<?xml version="1.0" encoding="UTF-8" standalone="no"?>
<!-- Created with Inkscape (http://www.inkscape.org/) -->

<svg
   width="188.3447mm"
   height="186.81613mm"
   viewBox="0 0 188.3447 186.81614"
   version="1.1"
   id="svg1"
   inkscape:version="1.4.1 (9315e674c8, 2025-04-14)"
   sodipodi:docname="jupiter.svg"
   xmlns:inkscape="http://www.inkscape.org/namespaces/inkscape"
   xmlns:sodipodi="http://sodipodi.sourceforge.net/DTD/sodipodi-0.dtd"
   xmlns="http://www.w3.org/2000/svg"
   xmlns:svg="http://www.w3.org/2000/svg">
  <sodipodi:namedview
     id="namedview1"
     pagecolor="#ffffff"
     bordercolor="#000000"
     borderopacity="0.25"
     inkscape:showpageshadow="2"
     inkscape:pageopacity="0.0"
     inkscape:pagecheckerboard="0"
     inkscape:deskcolor="#d1d1d1"
     inkscape:document-units="mm"
     inkscape:zoom="0.71535494"
     inkscape:cx="429.15759"
     inkscape:cy="340.39046"
     inkscape:window-width="1854"
     inkscape:window-height="1011"
     inkscape:window-x="66"
     inkscape:window-y="32"
     inkscape:window-maximized="1"
     inkscape:current-layer="layer1" />
  <defs
     id="defs1" />
  <g
     inkscape:label="Layer 1"
     inkscape:groupmode="layer"
     id="layer1"
     transform="translate(3.227688,-63.398912)">
    <path
       style="fill:#000000;stroke-width:0.264583"
       d="m 11.440785,249.89682 -0.984011,-0.21352 -1.8819288,-1.80533 -1.8819283,-1.80532 -0.550836,-1.56634 -0.5508096,-1.56634 0.2543704,-0.66293 0.2543969,-0.66292 2.648241,-0.1479 2.6482674,-0.14789 1.057725,1.18858 1.057751,1.18858 h 1.197107 1.197134 l 0.960596,-0.67283 0.960597,-0.67282 v -9.70025 -9.70024 h 3.457707 3.457681 l -0.0032,7.45564 -0.0032,7.45565 -0.40685,3.53812 -0.40685,3.53813 -0.96094,1.46592 c -0.528505,0.80625 -1.656795,1.92284 -2.507298,2.4813 l -1.546357,1.01538 -3.241596,0.10543 c -1.782868,0.058 -3.684375,0.009 -4.225607,-0.1081 z m 26.700612,-0.0663 c -0.59428,-0.1651 -1.927198,-0.78489 -2.962037,-1.37732 l -1.881504,-1.07713 -0.751867,-1.51613 c -0.413544,-0.83388 -0.984779,-2.39136 -1.269418,-3.46109 l -0.517551,-1.94495 0.125439,-8.64422 0.125465,-8.64422 3.326104,-0.12581 3.326103,-0.12581 0.131577,9.55179 0.131578,9.55179 1.080532,0.82942 1.080531,0.82943 2.014591,0.01 2.01459,0.01 1.11895,-1.32979 1.118949,-1.3298 v -9.04326 -9.04327 h 3.241569 3.241596 v 9.60225 9.60225 l -0.746999,1.9594 c -0.926994,2.43145 -1.602634,3.26635 -3.768222,4.65644 l -1.705848,1.09498 -3.696785,0.13302 c -2.033243,0.0732 -4.183036,-0.002 -4.777343,-0.16717 z m 20.746164,-13.28474 v -13.66784 l 7.490513,0.14376 7.490513,0.14376 1.555803,1.18759 c 0.855662,0.65317 2.00697,1.82014 2.558388,2.59327 l 1.002613,1.40567 0.153114,3.33379 0.153088,3.33379 -0.917072,1.48387 c -1.639094,2.6521 -3.999072,3.72044 -9.113891,4.12578 l -3.241569,0.2569 -0.0032,4.53821 -0.0032,4.53822 -3.562509,0.12553 -3.562508,0.12553 z m 11.345545,-1.45498 c 0.416005,-0.0217 1.145355,-0.42853 1.620811,-0.90396 l 0.864421,-0.86442 v -1.65581 -1.65581 l -1.114955,-0.5967 -1.114954,-0.5967 -2.158682,-0.0166 -2.158709,-0.0166 -0.005,3.02548 c -0.0026,1.66401 0.01164,3.12837 0.03204,3.25412 0.03252,0.20096 0.630846,0.20496 4.034948,0.027 z m 14.46022,14.81685 -0.305276,-0.30528 v -13.34469 -13.34469 l 3.349625,0.12623 3.349651,0.12624 v 13.39854 13.39855 l -3.044375,0.12519 -3.044349,0.12519 z m 19.346864,-0.26926 c -0.11136,-0.29714 -0.15388,-5.06235 -0.0945,-10.58934 l 0.10798,-10.04908 -3.96108,1.7e-4 -3.961078,1.7e-4 -0.144913,-2.84706 c -0.07972,-1.56589 -0.0639,-2.92735 0.03514,-3.02548 0.09906,-0.0981 5.107301,-0.17842 11.129461,-0.17842 h 10.94935 v 3.02548 3.02548 h -3.67379 -3.67379 v 10.58917 10.58917 h -3.25517 -3.25514 z M 122.85487,236.564 v -13.61465 h 9.07645 9.07642 v 2.78025 2.78024 l -0.82719,0.26255 c -0.45495,0.1444 -2.71076,0.16089 -5.0129,0.0366 l -4.18568,-0.22589 -0.72014,0.3854 -0.72015,0.38541 0.1578,1.98424 0.15782,1.98423 h 4.92692 4.92691 v 2.59327 2.59326 l -0.54028,0.0321 c -0.29713,0.0176 -2.57321,0.0663 -5.05791,0.10805 l -4.51765,0.076 0.0405,2.59327 0.0405,2.59326 6.09796,0.11992 6.09798,0.11992 v 2.32995 c 0,1.28147 -0.11806,2.63759 -0.26236,3.01361 l -0.26233,0.68366 h -9.24632 -9.24631 z m 24.20384,0.0182 v -13.63283 h 6.71317 6.71317 l 1.59109,0.6648 c 2.05312,0.85786 3.03496,1.76744 4.04588,3.74815 l 0.81844,1.60357 v 2.58235 c 0,3.6743 -0.8998,5.4423 -3.76254,7.39294 l -0.95147,0.64832 2.03576,3.24158 c 1.11967,1.78288 2.56932,4.01609 3.22144,4.96271 0.65209,0.94662 1.18565,1.87047 1.18565,2.053 v 0.33188 h -3.65858 -3.65861 l -0.51212,-0.97247 c -0.28165,-0.53486 -0.62887,-1.06972 -0.77158,-1.18858 -0.14269,-0.11886 -0.74568,-1.18858 -1.33999,-2.37716 -0.59428,-1.18858 -1.17964,-2.25831 -1.30077,-2.37717 -0.12112,-0.11885 -0.60684,-0.95268 -1.07939,-1.85294 l -0.85918,-1.63684 -0.82479,0.1241 -0.82478,0.1241 -0.0408,4.97043 -0.0408,4.97043 -3.34963,0.12623 -3.34965,0.12624 z m 13.03928,-3.26725 0.81013,-1.08802 -0.2729,-1.36442 -0.27289,-1.36443 -1.14112,-0.45471 -1.14109,-0.45471 -1.94496,0.0397 -1.94495,0.0397 -0.31755,0.49024 c -0.17463,0.26963 -0.32052,1.61747 -0.32414,2.9952 l -0.007,2.50497 2.87298,-0.12781 2.87301,-0.12779 z m 18.40915,3.62778 -0.46794,-1.02703 0.49231,-1.08052 0.49233,-1.08053 h 1.07458 1.07461 l 0.49152,0.91845 0.49154,0.91845 -0.52763,0.98592 -0.52766,0.98593 -1.06286,0.20317 -1.06286,0.20318 z m -177.2907276,-1.42708 -0.75318938,-0.83226 0.14594416,-0.7422 c 0.0802746,-0.40822 0.48630412,-0.95656 0.90230852,-1.21854 l 0.7563644,-0.47632 0.7563643,0.47414 0.7563909,0.47414 0.1412081,0.95213 0.1412346,0.95212 -0.5182923,0.62453 c -0.7047706,0.84917 -1.4304433,0.78442 -2.3283333,-0.20774 z m 37.3572086,-14.5205 c 0,-0.12396 0.443018,-0.95056 0.984514,-1.8369 0.541496,-0.88633 1.277303,-2.19501 1.635178,-2.90816 l 0.650663,-1.29663 2.578868,-0.25431 2.578893,-0.25431 0.351076,0.30284 0.351076,0.30284 -0.999384,1.73878 c -0.549672,0.95633 -1.485636,2.34282 -2.079916,3.08108 l -1.080532,1.3423 -2.485232,0.004 c -1.366864,0.002 -2.485204,-0.0975 -2.485204,-0.22145 z m 46.621964,-6.88479 c -0.150151,-0.15353 -1.608852,-0.45487 -3.241596,-0.66964 -5.053489,-0.66473 -8.569193,-1.35505 -8.99795,-1.76676 -0.225822,-0.21686 -0.753877,-0.39429 -1.17348,-0.39429 -0.879607,0 -4.270428,-1.06912 -6.261047,-1.9741 -0.749062,-0.34054 -1.568317,-0.61917 -1.820545,-0.61917 -1.488043,0 -10.837333,-5.44453 -15.618698,-9.09552 -6.469247,-4.93982 -17.72068,-18.34669 -17.72068,-21.11544 0,-0.2222 -0.158988,-0.46883 -0.353324,-0.54807 -0.194337,-0.0792 -0.989727,-1.50553 -1.767523,-3.16955 -0.777822,-1.66401 -1.784403,-3.80346 -2.236867,-4.75432 -0.933873,-1.96249 -2.557674,-6.9412 -2.557674,-7.84197 0,-0.32883 -0.183012,-0.93561 -0.406691,-1.34838 -0.223679,-0.41278 -0.709904,-2.35904 -1.080532,-4.32503 l -0.673814,-3.57452 0.01535,-7.23076 0.01534,-7.23076 0.747686,-4.32211 c 0.411216,-2.37716 0.868072,-4.51661 1.015207,-4.75432 0.147135,-0.23772 0.411268,-1.29996 0.586925,-2.36054 0.175683,-1.06058 0.470085,-2.22756 0.654262,-2.59327 0.184176,-0.36572 0.874156,-2.12365 1.533339,-3.90652 1.499659,-4.05619 4.339934,-9.49083 7.454239,-14.26297 l 2.397495,-3.6738 5.655919,-5.61874 5.655892,-5.618747 4.530566,-3.054848 c 5.749951,-3.877037 11.667992,-6.822246 17.713034,-8.815183 3.817911,-1.258695 5.528177,-1.629521 14.262999,-3.092548 l 2.809372,-0.470554 6.699277,0.213331 c 6.78254,0.21598 12.976174,0.863786 15.343504,1.604804 0.71316,0.223229 3.0471,0.926783 5.18655,1.563455 13.06097,3.886771 26.87465,13.97405 35.0592,25.60157 1.27994,1.81842 2.47306,3.51061 2.65131,3.76043 2.23091,3.12653 6.04451,11.51976 7.5507,16.61812 1.79134,6.06351 2.11,7.74586 2.5722,13.57906 l 0.44238,5.58314 -0.49485,5.65435 c -0.27217,3.10989 -0.69477,6.43232 -0.93913,7.38318 -0.24435,0.95087 -0.73962,2.89582 -1.10059,4.32212 -0.36097,1.42629 -0.83254,2.93099 -1.04794,3.34377 -0.21537,0.41278 -0.39161,0.96687 -0.39161,1.23131 0,0.26445 -0.31157,1.19094 -0.69239,2.05887 -0.38081,0.86793 -0.85595,1.96705 -1.05587,2.44248 -1.11794,2.65845 -2.69097,5.83073 -3.64344,7.34759 -0.59709,0.95086 -1.22021,2.02059 -1.38475,2.37716 -1.85248,4.01457 -10.57892,13.77939 -16.77908,18.77566 -1.62034,1.30571 -10.77693,7.15701 -11.19989,7.15701 -0.10637,0 -1.51982,0.59583 -3.14098,1.32406 -1.62118,0.72824 -3.33658,1.49642 -3.81201,1.70708 -1.48566,0.65828 -4.97094,1.72319 -5.63973,1.72319 -0.3515,0 -0.97679,0.18058 -1.38956,0.40129 -1.97522,1.05614 -9.668168,2.13031 -17.60678,2.45844 l -6.050941,0.25011 z M 102.1087,202.41932 c 0,-0.11886 -0.0972,-0.21611 -0.21608,-0.21611 -0.11888,0 -0.21611,0.0972 -0.21611,0.21611 0,0.11885 0.0972,0.2161 0.21611,0.2161 0.11885,0 0.21608,-0.0973 0.21608,-0.2161 z m 2.16107,-0.40671 c 0,-0.10483 -0.18106,-0.30249 -0.40235,-0.43926 l -0.40233,-0.24866 -0.27149,0.43926 -0.27149,0.43926 h 0.67384 c 0.3706,0 0.67382,-0.0858 0.67382,-0.1906 z m -36.799893,-2.01786 c -0.322527,-0.20436 -0.756099,-0.37455 -0.96348,-0.37819 l -0.377084,-0.007 0.534114,0.64356 0.534088,0.64355 0.429393,-0.26537 0.429392,-0.26537 z m 51.136893,-1.53232 c 0.43474,-0.39342 0.79042,-0.87965 0.79042,-1.08053 0,-0.64755 -1.14152,-0.3886 -1.87892,0.42622 l -0.71625,0.79145 0.28909,0.28908 c 0.4255,0.42551 0.64169,0.36471 1.51566,-0.42622 z m -30.687009,-0.86442 c 1.041135,-0.94223 0.997294,-1.65155 -0.169333,-2.73842 l -0.95975,-0.89413 -2.241576,0.19223 c -2.34143,0.20078 -4.050956,0.86652 -4.050956,1.57756 0,0.22935 -0.0029,0.56288 -0.0066,0.74116 l -0.0066,0.32416 2.923989,0.21611 2.924017,0.2161 -0.108056,0.54027 -0.108056,0.54026 h 0.506227 c 0.278421,0 0.861907,-0.32189 1.296644,-0.7153 z m -6.906577,-1.47817 c 0.08519,-0.25555 0.339645,-0.46463 0.565494,-0.46463 0.225821,0 0.480271,0.20908 0.565467,0.46463 l 0.154861,0.46463 h -0.720328 -0.720355 z m 5.968126,-0.6159 c 0,-0.11886 0.09726,-0.21611 0.216112,-0.21611 0.118851,0 0.216112,0.0972 0.216112,0.21611 0,0.11886 -0.09726,0.2161 -0.216112,0.2161 -0.118851,0 -0.216112,-0.0972 -0.216112,-0.2161 z m 9.292537,1.08053 0.267124,-0.43221 h -1.754346 -1.754347 v 0.43221 0.43221 h 1.487223 1.48725 z m -0.149383,-4.8605 -0.423598,-0.4236 -0.476938,0.29475 -0.476912,0.29475 0.236988,0.38347 0.237013,0.38347 0.663523,-0.25462 0.663522,-0.25462 z m 31.268616,0.10617 c 0.14692,-0.23771 0.16989,-0.43221 0.051,-0.43221 -0.11888,0 -0.33631,0.1945 -0.48324,0.43221 -0.14692,0.23772 -0.16989,0.43221 -0.051,0.43221 0.11885,0 0.33631,-0.19449 0.48321,-0.43221 z m -71.976958,-3.78349 0.01376,0.75473 5.726826,-0.20012 c 3.149733,-0.11007 5.921296,-0.18982 6.158998,-0.17721 0.237728,0.0126 14.533112,0.10677 31.767568,0.20927 l 31.335316,0.18637 1.85457,-0.69832 1.85455,-0.69832 -0.50279,-0.60583 c -0.27655,-0.3332 -0.36783,-0.60582 -0.20289,-0.60582 0.16495,0 -0.004,-0.30414 -0.37597,-0.67588 l -0.67588,-0.67587 -0.43553,0.26917 -0.43553,0.26917 v -0.47128 c 0,-0.25921 0.2952,-0.58456 0.65598,-0.72301 l 0.65596,-0.25172 -0.1157,-0.70719 -0.11571,-0.70719 0.86408,0.078 0.86408,0.078 0.33594,-0.60029 0.33594,-0.60029 0.63688,0.24439 c 0.8327,0.31954 0.82084,1.01634 -0.0172,1.01634 -0.35978,0 -1.02687,0.23276 -1.48243,0.51725 l -0.82826,0.51725 0.41712,0.77938 c 0.22942,0.42866 0.60476,0.77939 0.83413,0.77939 h 0.41701 v -1.06697 -1.06696 l 0.64209,0.2464 0.64211,0.2464 -0.64211,0.91673 c -0.35314,0.5042 -0.64209,1.07898 -0.64209,1.27729 v 0.36054 l 0.97247,-0.68129 0.97248,-0.68129 v -1.78824 -1.78823 l 0.60142,-0.20466 0.60143,-0.20465 -0.21352,1.11702 -0.21355,1.11702 1.18745,-0.95256 1.18745,-0.95256 0.22993,-1.08053 0.22992,-1.08053 -0.62667,-0.97247 -0.62664,-0.97248 h -1.07055 -1.07059 v 0.47907 0.47907 l -1.0805,-0.2712 -1.08053,-0.27119 v 0.44044 0.44045 h 1.08053 1.0805 v 0.43221 c 0,0.23771 -0.25506,0.43221 -0.56681,0.43221 -0.31174,0 -1.0087,0.41167 -1.54877,0.91483 l -0.98195,0.91483 -0.50424,-0.53665 -0.50422,-0.53664 0.54026,-0.1981 0.54028,-0.19809 v -0.8029 c 0,-0.76505 -0.57309,-1.36226 -1.51276,-1.57644 -0.2377,-0.0542 -0.86982,-0.22821 -1.40467,-0.38672 l -0.97248,-0.28821 v 0.52887 0.52886 l -0.60232,-0.23113 -0.6023,-0.23113 -0.98578,1.04931 c -0.54216,0.57712 -1.15449,1.04931 -1.3607,1.04931 -0.20625,0 -0.80185,0.39771 -1.32361,0.8838 -1.90156,1.77156 -6.61545,3.13026 -11.72067,3.37828 l -1.25188,0.0608 -0.54655,-0.45359 -0.54655,-0.4536 -0.28434,0.46009 -0.28435,0.46008 -2.06544,-0.0731 c -1.13597,-0.0402 -2.29886,0.0712 -2.58419,0.24751 l -0.51877,0.32062 1.52662,1.86303 1.52662,1.86303 -0.70337,0.2699 c -0.38684,0.14845 -0.72416,0.21671 -0.74956,0.15168 -0.0254,-0.065 -0.26054,-0.50721 -0.52255,-0.98264 l -0.47633,-0.86443 -0.92835,-0.13811 -0.92834,-0.13811 v -0.83437 -0.83436 h 0.48514 0.48514 l -0.51432,-0.61969 -0.5143,-0.6197 -8.826844,0.006 -8.826844,0.006 -0.258894,0.41892 -0.258922,0.41891 -0.501782,-0.36673 c -0.275987,-0.20171 -1.492462,-0.41362 -2.703274,-0.47091 l -2.201492,-0.10417 -0.552741,0.66603 c -0.304033,0.36631 -0.820685,0.66602 -1.14816,0.66602 h -0.595392 v -0.64832 c 0,-0.35657 -0.194495,-0.64831 -0.432223,-0.64831 -0.237702,0 -0.432197,0.16904 -0.432197,0.37566 v 0.37566 l -1.569588,0.2547 -1.569587,0.25471 -1.452933,-0.60708 -1.45296,-0.60708 -11.132396,-0.0344 c -6.122829,-0.0189 -12.250737,-0.13043 -13.617628,-0.2478 l -2.485205,-0.2134 v 0.48108 0.48109 l 0.864421,0.22605 0.86442,0.22605 v 0.84118 0.84118 l 0.972476,-0.13522 0.972476,-0.13522 0.138112,0.97247 c 0.07596,0.53486 0.270457,0.97514 0.432224,0.97838 0.16174,0.003 0.780335,0.11167 1.374616,0.24095 l 1.080532,0.23505 -1.188588,-0.68697 -1.188561,-0.68696 v -0.63451 -0.63452 l 0.540253,0.0137 c 0.297153,0.008 0.929243,0.30833 1.404699,0.66839 l 0.86442,0.65464 1.85e-4,0.73629 1.86e-4,0.7363 1.196101,0.0437 c 0.65786,0.0241 1.319266,0.1669 1.469814,0.31744 l 0.273711,0.27372 0.569251,-0.74965 0.569251,-0.74965 z m 9.090184,-0.0776 v -0.43386 l -0.579067,0.22221 -0.579067,0.22221 -0.45929,-0.55993 c -0.787189,-0.9597 -0.847434,-3.36931 -0.08424,-3.36931 h 0.45937 l -0.130757,0.77178 -0.130731,0.77178 0.620951,0.66475 0.620977,0.66474 0.995336,-0.19028 0.995362,-0.19027 v 0.46739 c 0,0.25706 -0.38899,0.67557 -0.86442,0.93001 l -0.86442,0.46263 z m 7.848044,-0.46099 v -1.08053 l 0.218017,0.54027 c 0.119909,0.29714 0.119909,0.78338 0,1.08053 l -0.218017,0.54026 z m 38.83081,0.43221 v -0.57628 l 0.28813,0.28814 0.28815,0.28814 -0.28815,0.28814 -0.28813,0.28814 z m 8.8788,0.0299 -0.24868,-0.40235 0.37899,-0.23422 c 0.41796,-0.25831 0.93176,0.11597 0.93176,0.67874 0,0.48757 -0.75317,0.45767 -1.06207,-0.0422 z m 7.11304,-0.24597 -0.53806,-0.64832 h 0.91734 0.91733 v 0.64832 c 0,0.35657 -0.17068,0.64831 -0.37928,0.64831 -0.2086,0 -0.62142,-0.29174 -0.91733,-0.64831 z m -30.038706,-0.21611 c 0.146897,-0.23772 0.352875,-0.43221 0.457703,-0.43221 0.104828,0 0.190606,0.19449 0.190606,0.43221 0,0.23772 -0.205978,0.43221 -0.45773,0.43221 h -0.457702 z m 24.751846,-0.43221 -0.53983,-0.86442 h -0.72445 -0.72443 l -0.21802,0.54026 -0.21799,0.54027 -0.0341,-0.47328 c -0.0188,-0.2603 0.34473,-0.81613 0.80777,-1.23517 l 0.84188,-0.76189 1.09498,1.18149 1.09498,1.18149 -0.23352,0.37784 c -0.34486,0.55796 -0.54896,0.47139 -1.14724,-0.48659 z m -69.193617,-0.17385 c -0.271251,-0.70685 0.04749,-1.12278 0.860425,-1.12278 h 0.576289 v 0.86442 0.86442 h -0.602086 c -0.331126,0 -0.706728,-0.27273 -0.834628,-0.60606 z m 25.208336,-0.22382 c 1.238911,-1.00868 1.565063,-1.08146 1.962732,-0.438 0.373406,0.60419 0.258048,0.68154 -1.530509,1.02621 l -1.512755,0.29152 z m 13.542645,0.54174 0.288131,-0.28814 0.288131,0.28814 0.288158,0.28814 h -0.576289 -0.576289 z m 8.284051,-0.14407 c 0.146923,-0.23772 0.450135,-0.43221 0.673815,-0.43221 0.2237,0 0.40672,0.19449 0.40672,0.43221 v 0.43221 h -0.67384 -0.673819 z m 15.563985,-0.007 0.27146,-0.43926 0.40235,0.24866 c 0.59949,0.37051 0.48771,0.62986 -0.27149,0.62986 h -0.67381 z m 15.73215,-0.0329 -0.60913,-0.39222 0.64834,-0.42559 c 0.35658,-0.23408 0.89143,-0.42858 1.18856,-0.43221 l 0.54028,-0.007 v 0.60208 c 0,0.33114 -0.26075,0.70214 -0.57946,0.82443 l -0.57947,0.22236 z m -56.317437,-0.31621 -0.277177,-0.44849 0.468021,-0.28925 c 0.642303,-0.39697 0.869685,-0.0813 0.441034,0.61234 l -0.3547,0.57389 z m -19.712596,-0.29212 c 0,-0.11885 0.09724,-0.2161 0.216112,-0.2161 0.118851,0 0.216085,0.0973 0.216085,0.2161 0,0.11886 -0.09723,0.21611 -0.216085,0.21611 -0.118877,0 -0.216112,-0.0973 -0.216112,-0.21611 z m 38.034621,-0.39619 v -0.68433 h 0.684319 0.684344 l -0.171079,0.51325 c -0.09411,0.28229 -0.402061,0.59024 -0.684345,0.68433 l -0.513239,0.17109 z m 17.941132,0.17304 0.27149,-0.43926 0.40232,0.24866 c 0.59952,0.37051 0.48774,0.62986 -0.27146,0.62986 h -0.67384 z m -34.365168,-0.4253 c 0,-0.23772 0.291729,-0.43221 0.648308,-0.43221 0.356579,0 0.648309,0.19449 0.648309,0.43221 0,0.23771 -0.29173,0.43221 -0.648309,0.43221 -0.356579,0 -0.648308,-0.1945 -0.648308,-0.43221 z m 23.483488,0.14407 0.28813,-0.28814 0.28816,0.28814 0.28813,0.28814 h -0.57629 -0.576286 z m 28.38188,-0.0911 c 0,-0.20861 0.26101,-0.59591 0.58005,-0.86067 l 0.58002,-0.48139 0.2844,0.28439 c 0.15642,0.15642 0.2844,0.54372 0.2844,0.86068 v 0.57628 h -0.86445 -0.86442 z M 56.138461,185.4793 c -0.486754,-0.48674 -0.296439,-0.99674 0.371925,-0.99674 0.356579,0 0.648335,0.18302 0.648335,0.40671 0,0.54501 -0.674952,0.93534 -1.02026,0.59003 z m 3.181297,-0.13231 v -0.43222 H 58.58501 57.850263 l 0.472228,-0.47225 0.472255,-0.47225 0.910828,0.48746 c 1.055793,0.56505 1.206076,1.32147 0.262519,1.32147 -0.356579,0 -0.648335,-0.1945 -0.648335,-0.43221 z m 5.726827,0.12176 c -0.297153,-0.10659 -0.540279,-0.46933 -0.540279,-0.8061 v -0.6123 h 0.86442 0.86442 v 0.62281 c 0,0.75171 -0.457385,1.05787 -1.188561,0.79559 z m 50.028475,-0.28495 c 0,-0.69332 1.20227,-1.80409 1.56266,-1.44372 0.1348,0.13482 0.11699,0.64878 -0.0396,1.14212 l -0.28469,0.897 h -0.61918 -0.6192 z m 9.7809,-0.48513 c 0.0815,-0.47543 0.15082,-1.0103 0.15407,-1.18858 0.0114,-0.63303 0.87032,-0.31316 0.87032,0.32416 0,0.35657 -0.18023,0.64831 -0.40052,0.64831 -0.2203,0 -0.48411,0.24312 -0.58629,0.54027 -0.10216,0.29714 -0.11909,0.15127 -0.0376,-0.32416 z m -44.357814,0.0462 c 0,-0.649 1.049099,-1.23022 1.466717,-0.8126 0.304827,0.30481 -0.548322,1.41468 -1.087437,1.41468 -0.208598,0 -0.37928,-0.27094 -0.37928,-0.60208 z m 2.161037,-0.0462 c 0,-0.35658 0.194495,-0.64832 0.432223,-0.64832 0.237728,0 0.432224,0.29174 0.432224,0.64832 0,0.35657 -0.194496,0.64832 -0.432224,0.64832 -0.237728,0 -0.432223,-0.29175 -0.432223,-0.64832 z m 17.612627,0.35038 -0.756367,-0.19766 v -0.62772 -0.62773 l 1.296647,0.67052 c 1.8715,0.96779 1.6112,1.34483 -0.54028,0.78259 z m 7.88786,-0.35038 v -0.64832 h 0.86442 0.86442 v 0.38597 c 0,0.21229 -0.30763,0.50403 -0.68366,0.64832 -0.96602,0.3707 -1.04518,0.34146 -1.04518,-0.38597 z m -61.554278,-0.1581 c -0.186188,-0.30125 -0.221801,-0.66445 -0.07914,-0.80711 0.386794,-0.38682 0.808566,0.18209 0.599651,0.80885 L 46.9439,185.0883 Z m 2.557409,-0.058 -0.267123,-0.43221 h 0.457729 c 0.251725,0 0.457703,0.1945 0.457703,0.43221 0,0.23772 -0.08575,0.43221 -0.19058,0.43221 -0.104854,0 -0.310806,-0.19449 -0.457729,-0.43221 z m 39.115153,0 v -0.43221 h 0.889926 0.889926 l -0.267123,0.43221 c -0.146923,0.23772 -0.54737,0.43221 -0.889926,0.43221 -0.342556,0 -0.622803,-0.19449 -0.622803,-0.43221 z m 9.076425,0 c 0,-0.23771 0.205978,-0.43221 0.457729,-0.43221 h 0.45773 l -0.267124,0.43221 c -0.146923,0.23772 -0.352901,0.43221 -0.457729,0.43221 -0.104828,0 -0.190606,-0.19449 -0.190606,-0.43221 z m 21.174421,-0.21134 0.53411,-0.64356 0.39029,0.24121 0.39029,0.24121 -0.24866,0.40235 c -0.13676,0.22129 -0.55274,0.40234 -0.9244,0.40234 h -0.67572 z m 3.61079,-0.0234 c -0.14076,-0.36683 -0.14761,-0.77529 -0.0151,-0.9077 0.37849,-0.3785 1.16269,0.26349 1.16269,0.95185 0,0.82935 -0.82447,0.79763 -1.1475,-0.0442 z m 4.43606,0.0521 c 0.12978,-0.3382 0.51266,-0.72108 0.85085,-0.85086 l 0.61492,-0.23596 v 0.85086 0.85085 h -0.85088 -0.85085 z m -13.66165,-0.0334 c 0,-0.11886 0.0973,-0.21611 0.21611,-0.21611 0.11885,0 0.21611,0.0972 0.21611,0.21611 0,0.11886 -0.0973,0.2161 -0.21611,0.2161 -0.11885,0 -0.21611,-0.0972 -0.21611,-0.2161 z m 7.34761,-0.43221 c 0,-0.11886 0.0972,-0.21611 0.21611,-0.21611 0.11885,0 0.21608,0.0972 0.21608,0.21611 0,0.11886 -0.0972,0.2161 -0.21608,0.2161 -0.11888,0 -0.21611,-0.0972 -0.21611,-0.2161 z m 10.11568,-0.28289 -0.30837,-0.49899 0.49898,0.30839 c 0.49823,0.30793 0.66891,0.68959 0.30839,0.68959 -0.10482,0 -0.32938,-0.22454 -0.499,-0.49899 z m -3.41641,-1.22985 c 0.14693,-0.23772 0.45014,-0.43221 0.67382,-0.43221 0.2237,0 0.40672,0.19449 0.40672,0.43221 v 0.43221 h -0.67385 -0.67381 z m 3.07986,-0.23024 c -0.3968,-1.03408 -0.37047,-1.06499 0.82336,-0.96618 l 1.09386,0.0905 -0.12634,0.65603 -0.12633,0.65604 -0.69702,0.13423 -0.69705,0.13424 z m -4.35517,-0.10862 c -0.1306,-0.13059 -0.23744,-0.49304 -0.23744,-0.80547 v -0.56805 l 1.0628,-0.26674 c 0.58455,-0.14671 1.28911,-0.53941 1.56567,-0.87266 0.27657,-0.33325 0.67355,-0.60591 0.88215,-0.60591 h 0.37928 v 0.86442 0.86442 h -0.64831 c -0.35658,0 -0.64984,0.14588 -0.65169,0.32416 -0.004,0.43695 -2.05319,1.36511 -2.35246,1.06583 z m 12.72891,-0.74167 c 0,-0.11886 0.0973,-0.2161 0.21612,-0.2161 0.11885,0 0.21611,0.0972 0.21611,0.2161 0,0.11886 -0.0973,0.21611 -0.21611,0.21611 -0.11885,0 -0.21612,-0.0973 -0.21612,-0.21611 z m -8.64422,-2.07212 c 0,-0.34727 0.29643,-0.87743 0.65876,-1.17813 l 0.65875,-0.54673 0.29843,0.29843 0.29842,0.29843 -0.44778,0.70991 c -0.2463,0.39045 -0.67704,0.78632 -0.95721,0.87971 l -0.50937,0.1698 z m -14.9737,-1.40275 c 3.64958,-0.91458 5.01594,-1.46229 6.65363,-2.66716 l 1.40468,-1.03345 v -0.58007 c 0,-0.31905 0.29175,-0.69204 0.64831,-0.82887 l 0.64833,-0.24878 v -0.87799 -0.87798 l 0.97248,-0.0246 c 0.53485,-0.0135 4.82023,-0.003 9.52304,0.0232 l 8.55057,0.0477 0.46011,-1.31984 0.46008,-1.31984 h 0.6404 0.64037 l -0.2848,1.29664 -0.28477,1.29663 h 0.45297 0.45299 l -0.23651,-0.61633 -0.23651,-0.61633 1.22256,-0.14004 1.22256,-0.14004 v -1.06736 -1.06736 l -1.51276,-0.0792 c -0.83201,-0.0436 -1.70722,0.0768 -1.94495,0.26747 l -0.4322,0.34668 -1.29664,-0.23418 c -0.71316,-0.12879 -3.48472,-0.28792 -6.15902,-0.35362 L 131.4991,166.832 v 0.61325 0.61325 h -0.79743 -0.79743 l -0.80849,-0.89336 -0.80848,-0.89336 -2.33649,0.13699 -2.33651,0.13699 -0.48775,-0.84331 c -1.04717,-1.81053 -2.86491,-2.93703 -2.86491,-1.77546 0,0.34254 -0.21146,0.75349 -0.46988,0.91321 l -0.46987,0.29039 -0.499,-0.49899 -0.49898,-0.49899 0.6169,-0.38127 0.61693,-0.38128 -0.56541,-0.68125 -0.56539,-0.68126 h -1.00209 c -0.55115,0 -1.12231,-0.1945 -1.26923,-0.43221 -0.14692,-0.23772 -0.64463,-0.43221 -1.10604,-0.43221 h -0.83891 v 0.86442 0.86442 h -0.6228 c -0.34256,0 -0.76597,-0.23164 -0.94097,-0.51476 l -0.31813,-0.51475 0.50874,-0.16958 c 0.2798,-0.0933 0.50874,-0.32877 0.50874,-0.52334 v -0.35376 l -2.48523,-0.28701 -2.48521,-0.287 -3.45768,0.44073 -3.4577,0.44073 -1.728845,0.87835 c -0.95086,0.48309 -2.506822,1.5589 -3.457708,2.39067 l -1.72884,1.51233 0.756364,0.006 0.756391,0.006 v 0.43222 c 0,0.23771 0.29173,0.43221 0.648309,0.43221 h 0.648308 v 0.68266 0.68265 l -1.188561,-0.24968 -1.188588,-0.24968 -0.625237,0.40142 -0.625236,0.40141 1.057433,0.88008 c 0.581607,0.48403 1.251956,0.89272 1.489657,0.90819 l 0.432224,0.0281 -0.801529,0.60718 -0.801502,0.60718 0.173884,0.5217 0.173911,0.52171 1.231635,0.13132 c 0.677413,0.0722 1.44272,0.34238 1.700689,0.60036 l 0.469053,0.46906 -0.974116,0.25474 -0.974143,0.25474 0.490775,0.59135 0.490776,0.59134 1.139137,-0.28362 1.139109,-0.28362 -0.548903,0.66666 -0.548905,0.66666 1.478648,0.70167 1.47865,0.70167 h 1.31387 1.31387 l 0.26712,0.43221 0.2671,0.43221 h 3.47787 3.47784 z m -0.74282,-0.97417 c -0.10152,-0.16791 0.0693,-0.53974 0.37952,-0.82629 l 0.56409,-0.52101 0.22768,0.59329 0.22767,0.59329 -0.60719,0.233 -0.6072,0.233 z m -10.97256,-0.73569 c -0.29713,-0.3375 -0.54025,-0.86771 -0.54025,-1.17824 v -0.5646 l -1.77411,-0.76859 -1.774088,-0.7686 -0.221271,-0.8461 c -0.121682,-0.46536 -0.393065,-0.8461 -0.603065,-0.8461 h -0.381793 v -1.72885 -1.72884 l 0.831691,-0.83171 c 1.873486,-1.87347 4.445526,-2.63747 9.862236,-2.92947 l 3.56246,-0.19205 3.98089,1.38941 3.98087,1.38941 0.16444,-0.49332 0.16444,-0.49333 1.15257,0.007 1.15256,0.007 -0.64831,0.41897 -0.64831,0.41898 0.78806,0.007 0.78806,0.007 -0.13975,0.72055 c -0.0769,0.39631 -0.38285,0.8015 -0.68001,0.90044 l -0.54028,0.17989 v -0.68434 -0.68433 h -0.66352 -0.66352 l 0.44974,0.84035 c 0.24736,0.46219 0.65376,0.96644 0.90313,1.12055 l 0.45336,0.2802 -0.71739,1.09488 -0.71739,1.09487 0.58587,0.37122 c 0.32221,0.20418 0.7317,0.37421 0.91,0.37785 0.17828,0.004 0.32417,0.29836 0.32417,0.65493 v 0.64832 h -0.4381 c -0.24093,0 -0.78782,-0.21842 -1.21528,-0.48538 l -0.77721,-0.48537 -1.35652,0.70148 c -0.74607,0.38581 -1.74369,0.70148 -2.21689,0.70148 -0.47321,0 -0.96833,0.17468 -1.10027,0.38817 l -0.23993,0.38818 -3.05549,0.30685 -3.05551,0.30685 0.22553,0.58777 0.22556,0.58776 -0.46122,0.28505 -0.46122,0.28505 -0.93327,-1.17043 -0.93326,-1.17042 -1.47077,0.14285 -1.47079,0.14285 -0.18719,0.56973 -0.18717,0.56974 0.75737,-0.13752 0.75737,-0.13753 0.18891,0.54026 0.18891,0.54027 -0.7924,-0.0164 c -0.43579,-0.009 -1.0355,-0.29258 -1.33265,-0.63008 z m -2.48521,-0.65012 -0.26712,-0.43221 h 0.67382 0.67384 v 0.43221 c 0,0.23772 -0.18302,0.43221 -0.40672,0.43221 -0.22368,0 -0.52689,-0.19449 -0.67382,-0.43221 z m 17.50457,-0.43221 v -0.86442 h 0.38598 c 0.48583,0 0.93898,1.12423 0.59274,1.47048 -0.52027,0.52028 -0.97872,0.2364 -0.97872,-0.60606 z m 4.74843,-3.4793 c -0.003,-0.34469 -0.12317,-1.06432 -0.26652,-1.59918 l -0.26061,-0.97248 h 0.43225 0.43222 l 0.23323,1.18858 0.23326,1.18858 -0.39897,0.4106 -0.39896,0.4106 z m 6.48906,-1.66038 v -0.47907 h 0.6123 c 0.33679,0 0.68882,-0.22949 0.78229,-0.50997 l 0.17,-0.50997 0.80272,0.30803 0.80274,0.30804 -0.39645,0.38746 c -0.21804,0.2131 -0.93128,0.51955 -1.58501,0.681 l -1.18859,0.29355 z m 3.70951,0.0109 -0.23143,-0.37445 0.87284,-0.7899 0.87283,-0.7899 -0.28093,0.73214 -0.28097,0.73214 h 0.45295 c 0.24913,0 0.57316,-0.1945 0.72006,-0.43222 0.14692,-0.23771 0.74189,-0.43221 1.32215,-0.43221 h 1.05502 v -0.43221 c 0,-0.23771 0.1945,-0.43221 0.43223,-0.43221 h 0.43219 v 1.29663 1.29664 h -2.56775 -2.56776 z m 6.23136,-0.9726 v -0.91483 l 0.97248,0.26062 c 0.53486,0.14333 1.4101,0.26326 1.94495,0.26651 l 0.97248,0.006 v 0.64832 0.64831 h -1.94495 -1.94496 z m -11.75075,0.18737 c 0.31202,-0.12485 0.68479,-0.10949 0.82841,0.0341 l 0.26114,0.26113 -0.82841,-0.0341 -0.82841,-0.0341 z m -3.26858,-0.67722 c 0.099,-0.29715 0.43939,-0.54026 0.75636,-0.54026 0.31695,0 0.65733,0.24311 0.75637,0.54026 l 0.1801,0.54026 h -0.93647 -0.93646 z m -27.769611,-2.94293 v -0.45772 l 0.432223,0.26712 c 0.237702,0.14692 0.432197,0.35289 0.432197,0.45772 0,0.10483 -0.194495,0.19059 -0.432197,0.19059 -0.237728,0 -0.432223,-0.20597 -0.432223,-0.45771 z m 3.025484,-1.05502 v -0.64832 H 99.0112 98.506957 l 0.27768,-0.2777 0.277707,-0.27769 0.65876,0.54672 c 0.749966,0.62242 0.868496,1.3053 0.226562,1.3053 -0.237728,0 -0.432223,-0.29174 -0.432223,-0.64831 z m 16.856257,-0.0181 c 0,-0.12879 0.36846,-0.62967 0.81881,-1.11306 l 0.81881,-0.87889 0.29892,0.48368 0.29893,0.48368 -0.52234,0.62939 c -0.50049,0.60305 -1.71313,0.8828 -1.71313,0.3952 z m -1.58477,-0.91838 0.28813,-0.28814 0.28813,0.28814 0.28816,0.28814 h -0.57629 -0.57629 z m -13.11042,-0.36018 c 0,-0.11886 0.0972,-0.2161 0.21611,-0.2161 0.11885,0 0.21608,0.0972 0.21608,0.2161 0,0.11886 -0.0972,0.21611 -0.21608,0.21611 -0.11888,0 -0.21611,-0.0972 -0.21611,-0.21611 z m 4.40438,-0.54026 0.14568,-0.75637 h 0.49832 c 0.27408,0 0.64421,-0.14587 0.82248,-0.32416 0.17831,-0.17829 0.68075,-0.32416 1.11654,-0.32416 h 0.7924 v 0.6987 0.69871 l -1.11461,-0.21307 -1.11458,-0.21307 -0.22828,0.59489 c -0.12555,0.3272 -0.41622,0.5949 -0.64596,0.5949 h -0.41764 z m 10.00266,0.46823 0.28815,-0.28814 0.28813,0.28814 0.28816,0.28814 h -0.57629 -0.57629 z m -11.73274,-1.03551 c 0.10401,-0.312 0.44437,-0.65237 0.75636,-0.75637 l 0.5673,-0.18909 -0.1891,0.56728 c -0.10401,0.312 -0.44437,0.65237 -0.75637,0.75637 l -0.56729,0.18909 z m 5.5377,-0.4307 v -0.45772 l 0.43223,0.26712 c 0.23772,0.14691 0.43222,0.35289 0.43222,0.45772 0,0.10483 -0.1945,0.1906 -0.43222,0.1906 -0.23773,0 -0.43223,-0.20598 -0.43223,-0.45772 z m -38.097272,15.59101 5.340006,-0.006 -0.164889,-1.72885 -0.164862,-1.72884 h 0.602086 0.602112 l -0.218757,0.83646 -0.218731,0.83646 0.625052,0.89238 0.625051,0.89239 h 4.981946 4.981945 l -0.181293,-0.54026 -0.181266,-0.54027 -0.827219,-5.3e-4 -0.82722,-5.3e-4 -0.03495,-1.08 c -0.01931,-0.59401 -0.182192,-1.90662 -0.362135,-2.91691 l -0.32721,-1.8369 h -1.454415 c -0.799914,0 -1.944026,0.22309 -2.54246,0.49576 l -1.088073,0.49576 -0.575548,-0.47767 -0.575574,-0.47767 -0.973323,0.25453 -0.973296,0.25453 -1.980803,-1.4225 -1.980804,-1.42249 -3.506549,-0.57033 -3.506576,-0.57032 -16.099895,-0.009 -16.099869,-0.009 v 0.60786 0.60785 l 0.86442,-0.22605 0.86442,-0.22605 v 0.66271 c 0,0.36449 -0.240824,0.74298 -0.535173,0.8411 l -0.535199,0.17839 0.545597,1.19744 0.545598,1.19745 0.878443,0.22972 0.878469,0.22972 -0.238998,0.62283 -0.238998,0.62282 0.477123,0.8915 0.477097,0.89151 0.414073,-0.59866 0.414073,-0.59865 -0.280115,0.99321 -0.280141,0.99322 0.523452,0.63072 0.523452,0.63072 12.087622,-0.034 12.087621,-0.0339 0.271939,0.27193 c 0.149569,0.14957 0.665877,0.16608 1.147366,0.0367 0.481462,-0.12938 3.278399,-0.23789 6.21538,-0.24114 z m -12.404699,-1.4917 c 0.08213,-0.39651 0.343826,-0.71064 0.581554,-0.69809 0.641509,0.0339 0.523664,1.00084 -0.149331,1.22517 l -0.581554,0.19385 z m -12.16869,-0.67526 c 0,-0.84246 0.458444,-1.12634 0.97872,-0.60606 0.346234,0.34625 -0.106918,1.47048 -0.592746,1.47048 h -0.385974 z m 27.229329,0.43221 v -0.43221 h 0.673814 0.673841 l -0.267123,0.43221 c -0.146923,0.23772 -0.450136,0.43221 -0.673841,0.43221 -0.223679,0 -0.406691,-0.19449 -0.406691,-0.43221 z m 8.86034,0 c 0.146923,-0.23771 0.450136,-0.43221 0.673814,-0.43221 0.223706,0 0.406718,0.1945 0.406718,0.43221 v 0.43221 h -0.673841 -0.673814 z m -42.356748,-0.43221 -0.267124,-0.43221 h 0.457729 c 0.251751,0 0.45773,0.19449 0.45773,0.43221 0,0.23772 -0.08578,0.43221 -0.190606,0.43221 -0.104828,0 -0.310806,-0.19449 -0.457729,-0.43221 z m 38.053088,0.0299 -0.248655,-0.40235 0.439261,-0.27148 0.439262,-0.27148 0.432196,0.26712 c 0.237729,0.14692 0.432224,0.45014 0.432224,0.67383 0,0.52591 -1.169829,0.52933 -1.494288,0.004 z M 45.056785,174.5162 v -0.45772 l 0.432224,0.26712 c 0.237701,0.14692 0.432197,0.35289 0.432197,0.45772 0,0.10483 -0.194496,0.1906 -0.432197,0.1906 -0.237728,0 -0.432224,-0.20597 -0.432224,-0.45772 z m 4.128823,-0.36979 -0.253021,-0.40939 0.40939,-0.25302 0.409416,-0.25302 0.253021,0.40939 0.253021,0.4094 -0.409416,0.25302 -0.40939,0.25302 z m 6.892581,-0.0369 -0.267123,-0.43221 h 0.457703 c 0.251751,0 0.457729,0.19449 0.457729,0.43221 0,0.23772 -0.08578,0.43221 -0.190606,0.43221 -0.104828,0 -0.31078,-0.19449 -0.457703,-0.43221 z m 27.013217,-0.37819 v -0.81039 l 1.365674,-0.27314 c 0.751125,-0.15022 1.464257,-0.17453 1.584774,-0.054 0.120518,0.12051 -0.105066,0.2191 -0.501253,0.2191 h -0.720354 v 0.86443 0.86442 h -0.86442 -0.864421 z m -42.127143,-1.04514 -0.336391,-0.77501 0.269505,-0.2695 c 0.438917,-0.43891 0.792718,0.17762 0.590708,1.02932 l -0.18743,0.7902 z m 1.325404,0.24098 c -0.142108,-0.14209 -0.258366,-0.51768 -0.258366,-0.83464 v -0.57628 h 0.864421 0.86442 v 0.60208 c 0,0.65196 -1.049867,1.22945 -1.470475,0.80884 z m 5.360379,0.10182 c 0,-0.11886 0.09726,-0.21611 0.216112,-0.21611 0.118877,0 0.216111,0.0973 0.216111,0.21611 0,0.11886 -0.09723,0.2161 -0.216111,0.2161 -0.118851,0 -0.216112,-0.0972 -0.216112,-0.2161 z m 8.644255,-0.70124 v -0.91734 l 0.643546,0.5341 0.643546,0.53411 -0.236829,0.38324 c -0.13028,0.21078 -0.419893,0.38323 -0.643572,0.38323 h -0.406691 z m 8.212005,-0.37929 c 0,-0.23771 0.194495,-0.43221 0.432223,-0.43221 0.237702,0 0.432197,0.1945 0.432197,0.43221 0,0.23772 -0.194495,0.43221 -0.432197,0.43221 -0.237728,0 -0.432223,-0.19449 -0.432223,-0.43221 z m -15.991813,-0.43221 v -0.57628 l 0.288131,0.28814 0.288131,0.28814 -0.288131,0.28814 -0.288131,0.28814 z m 17.288456,-0.18009 v -0.68433 h 0.684319 0.684345 l -0.17108,0.51325 c -0.09411,0.28229 -0.402061,0.59024 -0.684345,0.68433 l -0.513239,0.17109 z M 38.033342,169.92166 37.276977,169.724 v -0.61662 -0.61663 h 0.777981 c 0.801661,0 1.81528,0.77229 1.81528,1.38308 0,0.3631 -0.573326,0.37803 -1.836896,0.0478 z m 7.168594,-1.24385 -0.259927,-0.67737 0.451935,-0.45194 0.451961,-0.45195 0.469847,0.2904 c 0.258445,0.15972 0.469874,0.66791 0.469874,1.12931 v 0.83892 h -0.661882 -0.661882 z m 10.660142,0.0291 c 0,-0.35658 0.194495,-0.64832 0.432223,-0.64832 0.237702,0 0.432197,0.29174 0.432197,0.64832 0,0.35657 -0.194495,0.64832 -0.432197,0.64832 -0.237728,0 -0.432223,-0.29175 -0.432223,-0.64832 z m 10.084937,-0.50425 0.288131,-0.28814 0.288158,0.28814 0.288131,0.28814 h -0.576289 -0.576262 z m -25.068265,-0.43221 0.288131,-0.28814 0.288131,0.28814 0.288158,0.28814 h -0.576289 -0.576289 z m 44.37372,-2.52123 c 0,-0.11886 -0.09726,-0.21611 -0.216112,-0.21611 -0.11885,0 -0.216111,0.0973 -0.216111,0.21611 0,0.11886 0.09726,0.2161 0.216111,0.2161 0.118851,0 0.216112,-0.0972 0.216112,-0.2161 z m -33.698735,-3.08257 0.4894,-0.48931 -0.53647,-0.85903 -0.536469,-0.85903 -3.011328,-0.5682 -3.011329,-0.56819 -1.130909,0.63475 -1.130882,0.63476 -0.146817,0.76227 c -0.08072,0.41926 0.04739,0.99605 0.284745,1.28178 l 0.431509,0.5195 h 3.904588 3.904562 z m -5.920661,-2.176 0.288132,-0.28814 0.288157,0.28814 0.288132,0.28814 h -0.576289 -0.576289 z m 21.034296,2.4492 c 0,-0.23772 -0.194496,-0.43221 -0.432224,-0.43221 -0.237701,0 -0.432197,0.19449 -0.432197,0.43221 0,0.23771 0.194496,0.43221 0.432197,0.43221 0.237728,0 0.432224,-0.1945 0.432224,-0.43221 z m -31.119233,-0.81819 c 0,-0.21228 -0.291756,-0.49792 -0.648309,-0.63475 l -0.648335,-0.24878 v 0.63475 0.63476 h 0.648335 c 0.356553,0 0.648309,-0.17369 0.648309,-0.38598 z m 106.756253,-0.26234 c 0,-0.35658 -0.17068,-0.64832 -0.37928,-0.64832 -0.20863,0 -0.62143,0.29174 -0.91737,0.64832 l -0.53805,0.64832 h 0.91736 0.91734 z m -4.3221,-2.13555 c 0,-0.10483 -0.1945,-0.3108 -0.43223,-0.45772 l -0.43222,-0.26712 v 0.45772 c 0,0.25174 0.1945,0.45772 0.43222,0.45772 0.23773,0 0.43223,-0.0858 0.43223,-0.1906 z m -23.65037,-6.55792 c 0.14595,-0.14594 4.27898,-0.23284 9.18454,-0.19312 l 8.91921,0.0722 0.62698,-0.52034 0.62698,-0.52034 0.95774,0.48014 c 1.109,0.55597 1.6564,0.63589 3.87517,0.56579 l 1.62078,-0.0512 v -0.93844 -0.93845 l 0.71531,-0.7904 c 0.72638,-0.80264 1.87798,-1.07529 1.87798,-0.44463 0,0.19017 -0.23341,0.57916 -0.51866,0.86442 l -0.51866,0.51865 h 0.53223 c 0.29271,0 0.64416,-0.29174 0.781,-0.64831 0.13682,-0.35658 0.42246,-0.64832 0.63473,-0.64832 0.21231,0 0.38598,0.29174 0.38598,0.64832 0,0.35657 -0.1718,0.64831 -0.3818,0.64831 -0.20999,0 -0.48352,0.38899 -0.60785,0.86443 l -0.22606,0.86442 h 1.06558 1.06559 l -0.22543,-0.36472 c -0.57653,-0.93284 1.48077,-6.15374 3.13481,-7.95535 1.22219,-1.33123 1.79393,-1.50341 1.79393,-0.54026 v 0.64832 h 0.61296 c 0.33713,0 0.92062,0.11805 1.29664,0.26234 l 0.68366,0.26235 v -0.44839 -0.44839 l -0.96806,-0.13812 -0.96805,-0.13811 -0.14418,-0.75637 -0.14414,-0.75637 h 1.03997 1.04 l -0.0642,-0.87117 c -0.0353,-0.47914 -0.32316,-1.11125 -0.63968,-1.40469 l -0.57552,-0.53351 0.26082,0.74253 0.26085,0.74252 -0.42542,0.26292 -0.4254,0.26292 -0.83796,-1.00545 c -0.4609,-0.55299 -0.84444,-1.17513 -0.85235,-1.38252 l -0.0143,-0.37708 0.64833,0.53805 0.64831,0.53806 v -0.48514 -0.48513 h 0.64831 0.64834 v -0.46062 c 0,-0.25335 -0.20135,-0.83683 -0.44744,-1.29664 l -0.44741,-0.83601 h -1.67762 -1.67762 l -0.15197,-0.4559 -0.15195,-0.4559 -2.36929,-0.30047 c -1.30308,-0.16525 -3.77934,-0.24332 -5.50278,-0.17348 l -3.13354,0.12699 v 0.62938 0.62938 h -0.91067 -0.91067 l 0.2503,-0.65227 0.25032,-0.65228 -3.5537,1.9192 c -4.55213,2.45841 -8.53482,4.44839 -9.48933,4.74141 l -0.74909,0.22997 0.24437,0.63678 0.24434,0.63678 -1.44023,-0.0425 c -0.79211,-0.0234 -1.19708,-0.12426 -0.89996,-0.22423 0.29716,-0.1 0.54028,-0.34535 0.54028,-0.54529 V 141.759 l -5.94291,-0.18653 c -3.26861,-0.10259 -6.23467,-0.27538 -6.59122,-0.38398 -1.49574,-0.45553 -5.05097,-2.27622 -7.096469,-3.6342 l -2.196094,-1.45798 -1.512729,-0.26494 c -0.832009,-0.14572 -2.290736,-0.58673 -3.241596,-0.98003 l -1.72884,-0.7151 -13.398553,-0.0973 c -7.369227,-0.0535 -20.55696,-0.23095 -29.306096,-0.3943 l -15.907544,-0.29699 0.14277,1.03948 c 0.0785,0.57171 0.296015,1.28396 0.48334,1.58278 l 0.340625,0.54332 -0.567663,0.18775 c -0.312209,0.10326 -0.948161,0.24878 -1.413219,0.32339 l -0.845529,0.13564 -0.35232,1.69567 -0.352319,1.69567 0.441511,0.44149 c 0.582268,0.58228 0.565335,1.88413 -0.02707,2.0816 l -0.468577,0.15619 0.47826,3.44557 0.478235,3.44558 0.450453,0.15338 c 0.247756,0.0844 0.625316,0.61328 0.83902,1.17537 l 0.388567,1.022 38.993154,0.0195 c 21.446225,0.0108 39.087533,0.11395 39.202893,0.22931 0.30403,0.30404 3.33118,0.25787 3.64466,-0.0556 z m -78.46586,-0.85743 c -0.142108,-0.1421 -0.154146,-0.52997 -0.02675,-0.86194 l 0.231616,-0.60358 0.386927,0.23913 c 0.212804,0.13152 0.386926,0.51939 0.386926,0.86194 0,0.63647 -0.514958,0.82822 -0.978719,0.36445 z m 13.94505,-0.14834 c 0,-0.22369 0.194495,-0.52691 0.432223,-0.67383 l 0.432197,-0.26712 v 0.67382 0.67383 h -0.432197 c -0.237728,0 -0.432223,-0.18302 -0.432223,-0.4067 z m 59.6452,-0.0255 c 0,-0.23772 0.1945,-0.43221 0.4322,-0.43221 0.23773,0 0.43223,0.19449 0.43223,0.43221 0,0.23771 -0.1945,0.43221 -0.43223,0.43221 -0.2377,0 -0.4322,-0.1945 -0.4322,-0.43221 z m 3.45769,0 c 0,-0.23772 0.29175,-0.43221 0.64833,-0.43221 0.35658,0 0.64831,0.19449 0.64831,0.43221 0,0.23771 -0.29173,0.43221 -0.64831,0.43221 -0.35658,0 -0.64833,-0.1945 -0.64833,-0.43221 z m 7.34761,-0.25212 v -0.68434 l 0.51324,0.17109 c 0.28228,0.0941 0.59023,0.40204 0.68434,0.68433 l 0.17108,0.51325 h -0.68434 -0.68432 z m 15.77573,0.25212 c 0.14689,-0.23772 0.64463,-0.43221 1.10603,-0.43221 h 0.83892 v 0.43221 0.43221 h -1.10604 -1.10604 z m -7.32915,-0.40235 -0.24868,-0.40234 0.43926,-0.27148 0.43926,-0.27148 0.43223,0.26712 c 0.23772,0.14692 0.43222,0.45014 0.43222,0.67383 0,0.52591 -1.16986,0.52932 -1.49429,0.004 z m -91.17925,-0.40406 c -0.186187,-0.30126 -0.2218,-0.66446 -0.07914,-0.80712 0.386821,-0.38681 0.808567,0.18209 0.599652,0.80886 l -0.182007,0.54599 z m 17.900914,-0.27412 c 0,-0.35657 0.194495,-0.64832 0.432224,-0.64832 0.237728,0 0.432223,0.29175 0.432223,0.64832 0,0.35658 -0.194495,0.64832 -0.432223,0.64832 -0.237729,0 -0.432224,-0.29174 -0.432224,-0.64832 z m 52.297616,0.43221 c 0,-0.11886 0.0972,-0.2161 0.21609,-0.2161 0.11888,0 0.21611,0.0972 0.21611,0.2161 0,0.11886 -0.0972,0.21611 -0.21611,0.21611 -0.11885,0 -0.21609,-0.0973 -0.21609,-0.21611 z m 27.06312,-0.45803 -0.23889,-0.6225 h -0.87797 -0.87799 l -0.0274,-0.75637 -0.0274,-0.75637 -0.40274,1.00457 -0.40278,1.00456 -0.75843,-0.16581 -0.75843,-0.16581 0.13089,-0.58304 c 0.072,-0.32067 -0.071,-0.70778 -0.31766,-0.86024 -0.24669,-0.15246 -0.573,-0.89964 -0.72517,-1.6604 l -0.27662,-1.3832 h 1.30837 1.30839 l 0.47514,1.36303 0.47516,1.36302 0.79079,-0.71565 0.79079,-0.71565 0.28908,0.28909 c 0.15899,0.15899 0.28908,0.65713 0.28908,1.10697 v 0.8179 l 0.45114,-0.27883 0.45115,-0.27882 0.62939,0.52234 c 0.87775,0.72848 0.79052,1.06875 -0.41482,1.61794 l -1.0442,0.47577 z m 3.62389,0.51096 c 0,-0.0898 0.34036,-0.43012 0.75637,-0.75637 l 0.75639,-0.59319 -0.5932,0.75637 c -0.56462,0.71995 -0.91956,0.94891 -0.91956,0.59319 z m -28.09374,-0.67574 c 0,-0.22368 0.19449,-0.5269 0.43222,-0.67382 l 0.4322,-0.26712 v 0.67382 0.67383 h -0.4322 c -0.23773,0 -0.43222,-0.18302 -0.43222,-0.40671 z m -63.535114,-1.10603 v -0.64832 h 0.648335 0.648308 v 0.64832 0.64831 h -0.648308 -0.648335 z m 40.453997,0.31672 -11.195288,-0.11548 -0.568722,-0.74894 -0.568748,-0.74894 -0.01376,-1.16407 -0.01376,-1.16407 0.936096,-0.65566 0.93607,-0.65565 9.416229,0.0365 c 5.178928,0.0201 10.704063,0.16978 12.278043,0.3327 l 2.861787,0.29621 0.39394,0.6226 c 0.21667,0.34244 0.39693,1.017 0.40055,1.49903 l 0.007,0.87642 -0.79502,0.68072 c -1.16081,0.99391 -1.801051,1.03525 -14.074066,0.90864 z m 28.051547,-0.10062 c 0.14692,-0.23771 0.35288,-0.43221 0.45773,-0.43221 0.10483,0 0.19058,0.1945 0.19058,0.43221 0,0.23772 -0.20598,0.43221 -0.4577,0.43221 h -0.45773 z m -64.118594,-0.4106 c 0.09509,-0.28526 0.313902,-0.50406 0.486251,-0.48624 0.516785,0.0535 0.416693,0.64629 -0.140467,0.83201 l -0.518663,0.17289 z m 2.960661,-0.0216 c 0,-0.23772 0.194495,-0.43221 0.432197,-0.43221 0.237728,0 0.432223,0.19449 0.432223,0.43221 0,0.23771 -0.194495,0.43221 -0.432223,0.43221 -0.237702,0 -0.432197,-0.1945 -0.432197,-0.43221 z m 67.659563,0.0299 -0.24865,-0.40234 0.37896,-0.23422 c 0.41796,-0.25832 0.93176,0.11596 0.93176,0.67873 0,0.48758 -0.75317,0.45767 -1.06207,-0.0422 z m 4.34576,0.0382 -0.25323,-0.40974 0.64582,-0.24783 0.64585,-0.24783 v -0.66188 -0.66188 h 0.6483 0.64831 v 0.64832 0.64832 h -0.64831 -0.6483 l 0.10805,0.48623 c 0.1379,0.62059 -0.81058,0.98981 -1.14649,0.44629 z m 11.57409,-0.30057 0.25506,-0.66468 -0.58814,-0.22568 -0.58812,-0.22569 0.48736,-1.04685 c 0.48517,-1.04217 1.48858,-1.71793 1.91606,-1.29043 0.12346,0.12345 0.008,0.69865 -0.25566,1.27822 l -0.48014,1.05377 0.51797,0.1744 0.51798,0.17441 -0.5932,0.71861 c -0.32623,0.39523 -0.78467,0.7186 -1.0187,0.7186 h -0.42553 z m 1.99848,0.23247 c 0,-0.23772 0.20598,-0.43221 0.4577,-0.43221 h 0.45773 l -0.26712,0.43221 c -0.14693,0.23771 -0.35288,0.43221 -0.45773,0.43221 -0.10483,0 -0.19058,-0.1945 -0.19058,-0.43221 z m -107.188477,-0.89 v -0.45772 l 0.432223,0.26712 c 0.237702,0.14691 0.432197,0.35289 0.432197,0.45772 0,0.10483 -0.194495,0.1906 -0.432197,0.1906 -0.237728,0 -0.432223,-0.20598 -0.432223,-0.45772 z m 2.161064,0.0255 v -0.57628 l 0.288131,0.28814 0.288157,0.28814 -0.288157,0.28814 -0.288131,0.28814 z m 70.085053,-0.18916 c 0.0821,-0.39651 0.34383,-0.71065 0.58153,-0.69809 0.64153,0.0339 0.52366,1.00084 -0.14933,1.22517 l -0.58153,0.19385 z m 36.23897,0.30779 c 0,-0.21209 0.27586,-0.76286 0.61299,-1.22392 l 0.61299,-0.8383 0.34419,0.34421 0.34423,0.34421 -0.44781,0.70991 c -0.2463,0.39046 -0.67702,0.78632 -0.95718,0.87971 l -0.50941,0.1698 z m -30.687,-0.98305 v -0.86442 h 0.43222 0.4322 v 0.86442 0.86442 h -0.4322 -0.43222 z m 4.32212,-0.0136 v -0.85086 h 0.64831 0.64831 v 0.60207 0.60208 l -0.64831,0.24878 -0.64831,0.24878 z m 2.30513,0.58984 0.28813,-0.28814 0.28813,0.28814 0.28816,0.28815 h -0.57629 -0.57629 z m 18.52745,-0.23051 c -0.70588,-0.70589 -0.65185,-1.21019 0.12967,-1.21019 h 0.64831 v 0.86442 c 0,1.0075 -0.0805,1.04327 -0.77798,0.34577 z m -80.045586,-0.34577 c 0,-0.23772 0.194495,-0.43221 0.432224,-0.43221 0.237728,0 0.432223,0.19449 0.432223,0.43221 0,0.23772 -0.194495,0.43221 -0.432223,0.43221 -0.237729,0 -0.432224,-0.19449 -0.432224,-0.43221 z m 1.96342,0.0299 -0.248655,-0.40235 0.378962,-0.23422 c 0.417963,-0.25831 0.931757,0.11597 0.931757,0.67874 0,0.48757 -0.753136,0.45767 -1.062064,-0.0422 z m -14.929749,-0.46208 c 0,-0.23772 0.183012,-0.43221 0.406691,-0.43221 0.223705,0 0.526918,0.19449 0.673841,0.43221 l 0.267123,0.43221 h -0.673841 -0.673814 z m 6.125686,-0.28491 0.15322,-0.79562 h 0.642382 0.642408 v 0.6424 0.6424 l -0.795628,0.15322 -0.795602,0.15322 z m 12.891611,0.50102 c 0,-0.11886 0.09726,-0.21611 0.216112,-0.21611 0.118851,0 0.216111,0.0973 0.216111,0.21611 0,0.11885 -0.09726,0.2161 -0.216111,0.2161 -0.118851,0 -0.216112,-0.0973 -0.216112,-0.2161 z m 4.619255,-0.49525 c -0.563642,-0.56364 -0.294535,-1.01749 0.603302,-1.01749 h 0.900457 l -0.171106,0.51325 c -0.210529,0.63161 -0.932207,0.90468 -1.332653,0.50424 z m 41.453013,-0.0856 -0.27194,-0.44 0.46802,-0.28925 0.46802,-0.28925 0.2666,0.26659 0.26656,0.26659 -0.46265,0.46266 -0.46267,0.46267 z m -38.29246,-0.49973 c 0,-0.23772 0.183013,-0.43221 0.406718,-0.43221 0.223679,0 0.526891,0.19449 0.673814,0.43221 l 0.267123,0.43221 H 69.934471 69.26063 Z m 70.4505,0.0462 c 0,-0.46819 1.06717,-0.91066 2.19641,-0.91066 h 0.82907 v 0.3818 c 0,0.20999 -0.37968,0.48108 -0.8437,0.60243 l -0.84371,0.22063 -0.20269,-0.49438 -0.20273,-0.49438 -0.0341,0.54027 c -0.0384,0.60785 -0.89855,0.75555 -0.89855,0.15429 z M 31.658233,145.36744 v -0.7117 l 0.756364,0.14566 0.756364,0.14567 -0.08522,0.42629 c -0.04686,0.23446 -0.387244,0.48918 -0.756364,0.56604 l -0.671142,0.13974 z m 8.644228,0.21611 v -0.57628 l 0.288131,0.28814 0.288158,0.28814 -0.288158,0.28814 -0.288131,0.28814 z m 2.593261,-0.21611 v -0.64832 l -0.540253,-0.003 -0.540279,-0.003 -0.528241,-1.13787 c -0.582295,-1.25428 -0.397827,-1.88087 0.553773,-1.88087 h 0.622803 v 0.73093 0.73092 l 0.591979,-0.80957 0.591952,-0.80956 1.078203,-0.1444 1.078204,-0.14438 0.431297,0.54719 c 0.237199,0.30095 0.555519,1.06798 0.707364,1.70451 l 0.276092,1.15732 -0.679582,0.67958 -0.679556,0.67958 H 44.3776 42.895722 Z m 10.869744,-0.0449 -0.583856,-0.66031 0.318876,-0.29573 0.318876,-0.29572 0.192961,0.54026 c 0.106124,0.29715 0.468471,0.54027 0.805232,0.54027 0.336789,0 0.612299,0.19449 0.612299,0.43221 0,0.64714 -1.000045,0.49032 -1.664388,-0.26098 z m 17.656228,0.26098 c 0,-0.23772 0.194495,-0.43221 0.432223,-0.43221 0.237702,0 0.432197,0.19449 0.432197,0.43221 0,0.23771 -0.194495,0.43221 -0.432197,0.43221 -0.237728,0 -0.432223,-0.1945 -0.432223,-0.43221 z m 41.586596,-0.0668 c 0.22434,-0.673 1.19129,-0.79085 1.22518,-0.14933 0.0124,0.23772 -0.3016,0.49941 -0.6981,0.58154 l -0.72091,0.14933 z m 2.78712,0.21085 c -0.15848,-0.15848 -0.28813,-0.5248 -0.28813,-0.81404 v -0.52589 l 1.16118,-0.22198 c 2.23875,-0.42796 3.06046,0.49879 1.19565,1.34846 -1.26378,0.57581 -1.66494,0.6172 -2.0687,0.21345 z m 18.08086,-0.14407 c -0.14692,-0.23772 -0.64463,-0.43221 -1.10604,-0.43221 h -0.83891 V 144.772 c 0,-0.20861 0.30157,-0.62959 0.67019,-0.9355 l 0.67019,-0.55621 0.23617,0.90307 0.23616,0.90308 1.09943,-0.0756 1.09945,-0.0756 0.19129,0.54026 0.19127,0.54027 h -1.09104 -1.09104 z m 10.87731,0.14407 c -0.15846,-0.15848 -0.28813,-0.64472 -0.28813,-1.08053 v -0.79239 h 0.4322 0.43222 v 1.08053 c 0,1.13155 -0.0998,1.26883 -0.57629,0.79239 z m -38.53886,-0.57628 -0.31366,-0.50754 0.43219,-0.43221 0.43223,-0.43221 0.31366,0.50753 0.31369,0.50753 -0.43222,0.43222 -0.4322,0.43221 z m 13.4583,-0.5513 c -0.2915,-1.11463 -0.0981,-1.36767 0.78605,-1.0284 l 0.66696,0.25593 v 0.61564 c 0,0.3386 -0.27258,0.72024 -0.60574,0.84808 l -0.60571,0.23244 z m 8.80059,0.7674 c 0,-0.11886 0.0973,-0.2161 0.21611,-0.2161 0.11885,0 0.21612,0.0972 0.21612,0.2161 0,0.11886 -0.0973,0.21611 -0.21612,0.21611 -0.11885,0 -0.21611,-0.0973 -0.21611,-0.21611 z m 14.6952,-0.45772 v -0.67382 l 0.43222,0.26712 c 0.2377,0.14692 0.4322,0.45014 0.4322,0.67382 0,0.22369 -0.1945,0.40671 -0.4322,0.40671 h -0.43222 z m -107.082564,-0.73086 0.177906,-0.54026 0.938636,-0.13812 0.938609,-0.13811 v 0.67838 0.67837 h -1.116541 -1.116542 z m 87.393674,0.0704 -0.29041,-0.46987 0.44334,-0.44333 0.44333,-0.44333 0.46988,0.29039 c 0.25842,0.15972 0.46987,0.57066 0.46987,0.91321 v 0.6228 h -0.6228 c -0.34256,0 -0.75351,-0.21144 -0.91321,-0.46987 z m 6.98878,-0.2865 c -0.14674,-0.416 -0.39044,-1.03048 -0.5416,-1.3655 l -0.2748,-0.60914 0.79111,0.30358 0.79113,0.30358 -0.71027,-0.78484 -0.71028,-0.78484 0.40373,-0.63845 0.40373,-0.63844 0.007,0.76563 0.007,0.76564 1.08053,0.49232 1.08053,0.49232 v 0.51195 c 0,0.50251 -1.34959,1.94256 -1.82052,1.94256 -0.13184,0 -0.35978,-0.34036 -0.50652,-0.75637 z m 4.81224,0.19475 -1.18856,-0.46967 0.0138,-0.67293 c 0.008,-0.37012 0.27662,-1.01947 0.59793,-1.443 l 0.58418,-0.77006 1.13712,0.51811 1.13713,0.51811 -0.21606,0.68416 -0.21608,0.68416 1.25666,0.0443 1.25664,0.0443 0.20939,-0.80068 0.20939,-0.80068 h -0.39177 c -0.21545,0 -0.39174,-0.1945 -0.39174,-0.43222 v -0.43221 h 0.87799 0.878 l 0.23381,0.60931 0.23381,0.60931 -0.69069,1.33564 -0.6907,1.33564 h -0.55075 c -0.30295,0 -0.76224,-0.21144 -1.02066,-0.46987 l -0.46987,-0.46987 -0.29041,0.46987 c -0.34576,0.55949 -0.91289,0.53874 -2.50849,-0.0917 z m 6.59125,-0.27729 v -0.88993 h 0.4322 c 0.23773,0 0.43222,0.28026 0.43222,0.62281 0,0.34254 -0.19449,0.74301 -0.43222,0.88993 l -0.4322,0.26712 z M 32.603695,143.39548 c 0.104007,-0.31201 0.444367,-0.65237 0.756364,-0.75637 l 0.567293,-0.1891 -0.189098,0.56728 c -0.104007,0.31201 -0.444367,0.65237 -0.756364,0.75637 l -0.567293,0.18909 z m 88.954525,0.027 c 0,-0.23771 0.1945,-0.43221 0.43223,-0.43221 0.23773,0 0.43222,0.1945 0.43222,0.43221 0,0.23772 -0.19449,0.43221 -0.43222,0.43221 -0.23773,0 -0.43223,-0.19449 -0.43223,-0.43221 z m -68.086732,-0.45392 -0.289243,-0.46801 0.266594,-0.26659 0.266595,-0.26659 0.46265,0.46267 0.462677,0.46267 -0.440002,0.27193 -0.440002,0.27194 z m 33.221691,0.16578 0.288131,-0.28814 0.288132,0.28814 0.288157,0.28814 H 86.98131 86.405022 Z m -48.119558,-0.57628 c 0,-0.23772 0.291729,-0.43221 0.648308,-0.43221 0.356579,0 0.648309,0.19449 0.648309,0.43221 0,0.23772 -0.29173,0.43221 -0.648309,0.43221 -0.356579,0 -0.648308,-0.19449 -0.648308,-0.43221 z m 29.390392,-0.2478 v -0.68001 l 0.72054,0.13975 c 0.396319,0.0769 0.801502,0.38286 0.900456,0.68 l 0.179864,0.54027 h -0.90043 -0.90043 z m 38.034597,0.2478 c 0,-0.23772 0.29175,-0.43221 0.64833,-0.43221 0.35658,0 0.64831,0.19449 0.64831,0.43221 0,0.23772 -0.29173,0.43221 -0.64831,0.43221 -0.35658,0 -0.64833,-0.19449 -0.64833,-0.43221 z m 36.45492,-0.66696 c -0.32707,-0.85234 0.0604,-1.23981 0.91274,-0.91274 l 0.66696,0.25593 v 0.66189 0.66188 h -0.66188 -0.66188 z M 31.946364,141.8377 c -0.547952,-0.54796 -0.284771,-1.0085 0.576289,-1.0085 h 0.86442 v 0.64832 0.64832 h -0.576289 c -0.316944,0 -0.705935,-0.12967 -0.86442,-0.28814 z m 29.102261,-0.57629 c 0,-0.23771 0.194495,-0.43221 0.432197,-0.43221 0.237728,0 0.432223,0.1945 0.432223,0.43221 0,0.23772 -0.194495,0.43222 -0.432223,0.43222 -0.237702,0 -0.432197,-0.1945 -0.432197,-0.43222 z m 23.771622,-0.2161 v -0.7117 l 0.756364,0.14566 0.756391,0.14567 -0.08522,0.42629 c -0.04689,0.23446 -0.387245,0.48917 -0.756391,0.56604 l -0.671142,0.13974 z M 70.12505,140.61312 v -0.72035 l 0.464635,0.15487 c 0.255535,0.0852 0.464635,0.33965 0.464635,0.56548 0,0.22583 -0.2091,0.48029 -0.464635,0.56547 l -0.464635,0.15488 z m 7.582165,0.24597 -0.248655,-0.40235 0.439261,-0.27148 0.439261,-0.27147 v 0.67382 c 0,0.75919 -0.259345,0.87097 -0.629867,0.27148 z m 3.223128,-0.27148 v -0.67382 l 0.432223,0.26712 c 0.237702,0.14691 0.432197,0.45013 0.432197,0.67382 0,0.22369 -0.194495,0.4067 -0.432197,0.4067 h -0.432223 z m -39.54735,-0.1906 -0.313664,-0.50753 0.432197,-0.43221 0.432224,-0.43221 0.313663,0.50753 0.313664,0.50753 -0.432197,0.43221 -0.432224,0.43221 z m 1.512729,0 c 0,-0.23771 0.291756,-0.43221 0.648335,-0.43221 0.356579,0 0.648308,0.1945 0.648308,0.43221 0,0.23772 -0.291729,0.43221 -0.648308,0.43221 -0.356579,0 -0.648335,-0.19449 -0.648335,-0.43221 z m 22.258892,0 -0.313663,-0.50753 0.432223,-0.43221 0.432197,-0.43221 0.31369,0.50753 0.313664,0.50753 -0.432224,0.43221 -0.432197,0.43221 z m 66.776706,-0.2161 v -0.64832 h 0.63473 0.63477 l -0.24879,0.64832 c -0.13682,0.35657 -0.42246,0.64831 -0.63474,0.64831 -0.2123,0 -0.38597,-0.29174 -0.38597,-0.64831 z m 11.85079,0.15942 -0.33414,-0.54062 0.50874,-0.16958 c 0.2798,-0.0933 0.50874,-0.44511 0.50874,-0.78187 0,-0.75665 0.4191,-0.75877 1.40949,-0.007 l 0.76115,0.57767 -0.65312,0.54203 -0.6531,0.54204 -0.0138,-0.59319 -0.0138,-0.59318 -0.59309,0.78223 -0.59307,0.78223 z m -112.690509,-0.53459 -0.235347,-0.61334 1.047591,-0.98417 1.047618,-0.98418 0.325861,0.34902 0.325861,0.34902 -0.540279,0.19295 c -0.297128,0.10612 -0.540253,0.44467 -0.540253,0.75233 0,0.30766 -0.269029,0.78265 -0.597853,1.05554 l -0.597826,0.49617 z m 106.458459,-0.67001 c 0,-0.69371 -0.0654,-1.52031 -0.14525,-1.8369 -0.0799,-0.31659 -0.0637,-0.42974 0.036,-0.25145 0.0997,0.17828 0.55406,0.32415 1.00967,0.32415 h 0.82841 v 0.64832 c 0,0.7376 0.67755,0.86816 1.0849,0.20906 l 0.27146,-0.43926 0.40236,0.24866 c 0.22129,0.13676 0.40235,0.51978 0.40235,0.85116 v 0.60249 l -1.62079,0.45011 c -2.24038,0.62219 -2.26912,0.61198 -2.26912,-0.80634 z m -3.02548,0.39686 c 0,-0.23772 0.18301,-0.43221 0.40672,-0.43221 0.22368,0 0.52689,0.19449 0.67381,0.43221 l 0.26713,0.43221 h -0.67382 -0.67384 z m 1.87293,0.14407 0.28813,-0.28814 0.28814,0.28814 0.28815,0.28814 h -0.57629 -0.57629 z m -54.602747,-0.55077 c 0,-0.22369 0.194495,-0.52691 0.432223,-0.67383 l 0.432197,-0.26712 v 0.67383 0.67382 h -0.432197 c -0.237728,0 -0.432223,-0.18302 -0.432223,-0.4067 z m 3.057419,-0.20314 -0.506121,-0.60983 0.453204,-0.2801 0.453205,-0.28009 0.432197,0.26712 c 0.53258,0.32915 0.573987,1.51274 0.05294,1.51274 -0.208624,0 -0.60706,-0.27443 -0.885428,-0.60984 z m 57.452208,0.17763 c 0,-0.23772 0.19449,-0.43221 0.43222,-0.43221 0.2377,0 0.4322,0.19449 0.4322,0.43221 0,0.23772 -0.1945,0.43221 -0.4322,0.43221 -0.23773,0 -0.43222,-0.19449 -0.43222,-0.43221 z m -107.586569,-0.68434 0.03413,-0.8284 0.227012,0.56728 c 0.124857,0.312 0.109485,0.68478 -0.03413,0.8284 l -0.261117,0.26113 z m 13.040281,0.14408 c 0.09906,-0.29715 0.43942,-0.54027 0.756391,-0.54027 0.316944,0 0.657304,0.24312 0.756364,0.54027 l 0.180075,0.54026 h -0.936439 -0.936467 z m 14.253977,0.027 c 0.09411,-0.28229 0.402061,-0.59024 0.684345,-0.68434 l 0.513238,-0.17108 v 0.68433 0.68434 h -0.684318 -0.684345 z m 25.185343,0.081 -0.267123,-0.43221 h 0.69932 0.699347 l -0.267124,0.43221 c -0.146923,0.23771 -0.341418,0.43221 -0.432223,0.43221 -0.09078,0 -0.285274,-0.1945 -0.432197,-0.43221 z m 4.970436,-0.43221 v -0.93646 l 0.540253,0.18009 c 0.297153,0.0991 0.540279,0.43941 0.540279,0.75637 0,0.31695 -0.243126,0.65732 -0.540279,0.75637 l -0.540253,0.18008 z m 1.728841,0.25212 v -0.68433 h 0.684344 0.684319 l -0.17108,0.51325 c -0.09409,0.28228 -0.402034,0.59024 -0.684345,0.68433 l -0.513238,0.17108 z m -41.924526,-0.036 c 0,-0.11886 0.09726,-0.2161 0.216112,-0.2161 0.118851,0 0.216112,0.0972 0.216112,0.2161 0,0.11886 -0.09726,0.21611 -0.216112,0.21611 -0.118851,0 -0.216112,-0.0973 -0.216112,-0.21611 z M 134.9568,137.8431 c 0,-0.20115 0.29173,-0.60785 0.64831,-0.90378 l 0.64831,-0.53805 v 0.65499 0.655 l -0.64831,0.24878 -0.64831,0.24879 z m 10.97989,0.0621 c -0.26056,-0.17465 -0.61314,-0.88637 -0.78356,-1.5816 l -0.30983,-1.26406 0.69517,0.57694 0.69517,0.57693 -0.22223,0.57907 -0.22219,0.57907 h 0.39314 c 0.21622,0 0.5153,-0.19766 0.66461,-0.43926 l 0.27149,-0.43926 0.38346,0.237 0.38346,0.237 -0.24347,0.63447 c -0.26342,0.68647 -0.95142,0.809 -1.70522,0.3037 z m -4.27717,-0.52805 -0.26366,-0.42661 0.83159,-0.89259 0.83156,-0.89259 0.27847,0.72567 0.27845,0.72567 -0.49258,0.59353 c -0.58078,0.6998 -1.09802,0.75878 -1.46383,0.16692 z m -8.86378,-0.6179 v -0.68433 h 0.68434 0.68432 l -0.17108,0.51325 c -0.0941,0.28229 -0.40203,0.59024 -0.68434,0.68434 l -0.51324,0.17108 z m -98.112023,-0.2011 c 0,-0.23771 0.194495,-0.55242 0.432196,-0.69933 l 0.432224,-0.26712 v 0.43221 c 0,0.23771 -0.194495,0.55241 -0.432224,0.69933 l -0.432196,0.26712 z m 17.936765,-0.48323 c 0.146923,-0.23771 0.352901,-0.43221 0.457729,-0.43221 0.104828,0 0.190606,0.1945 0.190606,0.43221 0,0.23772 -0.205978,0.43222 -0.457729,0.43222 h -0.457729 z m 13.182467,-0.2161 c 0,-0.11886 0.09723,-0.21611 0.216112,-0.21611 0.118851,0 0.216085,0.0973 0.216085,0.21611 0,0.11886 -0.09723,0.2161 -0.216085,0.2161 -0.118877,0 -0.216112,-0.0972 -0.216112,-0.2161 z m 75.348891,-0.072 0.28813,-0.28814 0.28813,0.28814 0.28816,0.28814 h -0.57629 -0.57629 z M 40.302461,135.21048 c 0,-0.23771 0.194495,-0.43221 0.432223,-0.43221 0.237702,0 0.432197,0.1945 0.432197,0.43221 0,0.23772 -0.194495,0.43221 -0.432197,0.43221 -0.237728,0 -0.432223,-0.19449 -0.432223,-0.43221 z m 4.754324,-0.86442 c 0,-0.23772 0.194496,-0.43221 0.432224,-0.43221 0.237701,0 0.432197,0.19449 0.432197,0.43221 0,0.23772 -0.194496,0.43221 -0.432197,0.43221 -0.237728,0 -0.432224,-0.19449 -0.432224,-0.43221 z m 104.797805,18.17471 0.25363,-0.41038 -1.49669,-0.28078 -1.49673,-0.28078 -0.56829,0.3642 -0.56833,0.36421 1.51276,0.27005 c 0.832,0.14853 1.64713,0.29566 1.81139,0.32695 0.16425,0.0313 0.41277,-0.12777 0.55226,-0.35347 z m 4.40764,0.12223 -0.28813,-0.28814 -0.28813,0.28814 -0.28816,0.28814 h 0.57629 0.57629 z m -1.93053,-1.52715 -0.51866,-0.51865 v 1.03731 1.0373 l 0.51866,-0.51865 0.51866,-0.51865 z m -1.96292,-1.407 -1.149,-0.91619 v -0.74013 c 0,-0.92528 -0.58338,-0.95122 -1.32398,-0.0589 l -0.56539,0.68126 0.62053,0.39265 c 0.34129,0.21596 0.85053,0.39563 1.13165,0.39927 l 0.51115,0.007 0.26736,0.84236 0.26736,0.84237 0.69466,-0.26657 0.69467,-0.26657 z m 2.16461,-0.0913 -0.28813,-0.28814 v 0.57628 0.57628 l 0.28813,-0.28814 0.28816,-0.28814 z m -0.72035,-2.08902 c 0,-0.11886 -0.0972,-0.21611 -0.21609,-0.21611 -0.11888,0 -0.21611,0.0973 -0.21611,0.21611 0,0.11886 0.0972,0.2161 0.21611,0.2161 0.11885,0 0.21609,-0.0972 0.21609,-0.2161 z m 0.72035,-0.50425 -0.28813,-0.28814 v 0.57628 0.57629 l 0.28813,-0.28815 0.28816,-0.28814 z m -2.16106,-1.72884 -0.28813,-0.28814 -0.28813,0.28814 -0.28816,0.28814 h 0.57629 0.57629 z M 120.98842,136.212 c 0.75631,-0.30592 1.48354,-0.73162 1.61602,-0.946 l 0.2409,-0.38978 -0.65614,-0.54456 -0.65614,-0.54455 -6.30245,-0.21396 -6.30246,-0.21396 0.4802,0.89723 c 0.63727,1.19078 0.60785,1.38627 -0.2086,1.38627 h -0.68879 l -0.22606,-0.86442 c -0.25138,-0.96129 -0.98965,-1.18413 -0.98965,-0.29871 0,1.94807 1.47505,2.39004 7.77981,2.33108 l 4.53821,-0.0424 z m -9.29468,-0.80824 c 0.0769,-0.36913 0.33157,-0.7095 0.56602,-0.75637 l 0.4263,-0.0852 0.14568,0.75637 0.14565,0.75637 h -0.7117 -0.71171 z m 3.38132,0.23893 v -0.43221 h 0.86442 0.86442 v 0.43221 0.43221 h -0.86442 -0.86442 z m 4.32213,-0.24161 v -0.67383 l 0.43219,0.26713 c 0.23773,0.14691 0.43223,0.45013 0.43223,0.67382 0,0.22369 -0.1945,0.4067 -0.43223,0.4067 h -0.43219 z m -87.864423,-0.62195 c -0.08856,-1.26583 -0.46609,-1.65648 -0.908711,-0.94029 -0.305568,0.49443 0.188992,2.23606 0.634973,2.23606 h 0.364411 z m 117.254783,0.43135 v -0.43221 h -0.67381 -0.67382 l 0.26713,0.43221 c 0.14689,0.23772 0.45013,0.43221 0.67381,0.43221 0.22368,0 0.40669,-0.19449 0.40669,-0.43221 z m -51.000947,-3.67379 c 0,-0.11886 -0.09726,-0.21611 -0.216112,-0.21611 -0.118851,0 -0.216112,0.0973 -0.216112,0.21611 0,0.11885 0.09726,0.2161 0.216112,0.2161 0.118851,0 0.216112,-0.0973 0.216112,-0.2161 z m 48.740857,-2.29613 0.17108,-0.51325 h -0.87493 c -0.48122,0 -0.98488,0.17789 -1.11924,0.3953 l -0.24432,0.3953 0.54298,0.217 c 0.74988,0.29971 1.32154,0.11433 1.52443,-0.49435 z m -104.208001,-0.36918 -0.288158,-0.28814 v 0.57629 0.57628 l 0.288158,-0.28815 0.288131,-0.28813 z m 6.62723,0.50425 c 0,-0.11886 -0.09723,-0.2161 -0.216111,-0.2161 -0.118851,0 -0.216085,0.0972 -0.216085,0.2161 0,0.11886 0.09723,0.21611 0.216085,0.21611 0.118877,0 0.216111,-0.0972 0.216111,-0.21611 z m 64.183421,-0.2161 0.26712,-0.43222 h -0.67381 -0.67384 v 0.43222 c 0,0.23771 0.18301,0.43221 0.40671,0.43221 0.22368,0 0.52689,-0.1945 0.67382,-0.43221 z m -9.72476,-0.81151 c 0,-0.20861 -0.28321,-0.61434 -0.62939,-0.90163 l -0.62937,-0.52234 -0.45117,0.27882 c -0.24812,0.15336 -0.45114,0.55909 -0.45114,0.90163 v 0.62281 h 1.08054 1.08053 z m 3.4577,0.16319 c 0,-0.11886 -0.0973,-0.21611 -0.21611,-0.21611 -0.11885,0 -0.21611,0.0973 -0.21611,0.21611 0,0.11886 0.0973,0.2161 0.21611,0.2161 0.11885,0 0.21611,-0.0972 0.21611,-0.2161 z m 4.17804,-0.93646 -0.28813,-0.28814 v 0.57628 0.57628 l 0.28813,-0.28814 0.28813,-0.28814 z m -25.572508,-1.00849 v -0.64832 h -0.85852 -0.858494 l -0.152426,0.79147 -0.152427,0.79147 1.01092,-0.14315 1.010947,-0.14316 z m 68.073318,-0.21611 c 0,-0.11886 -0.0973,-0.2161 -0.21611,-0.2161 -0.11885,0 -0.21611,0.0972 -0.21611,0.2161 0,0.11886 0.0973,0.21611 0.21611,0.21611 0.11885,0 0.21611,-0.0973 0.21611,-0.21611 z m -10.51716,-0.93645 -0.28813,-0.28815 -0.28816,0.28815 -0.28813,0.28813 h 0.57629 0.57626 z m -46.102558,-1.44071 c 0,-0.23772 -0.205978,-0.43221 -0.457729,-0.43221 h -0.457702 l 0.267096,0.43221 c 0.146924,0.23772 0.352902,0.43221 0.45773,0.43221 0.104828,0 0.190605,-0.19449 0.190605,-0.43221 z m 31.767538,-1.29663 0.26713,-0.43221 h -0.88993 -0.88992 v 0.43221 c 0,0.23771 0.28024,0.43221 0.6228,0.43221 0.34255,0 0.743,-0.1945 0.88992,-0.43221 z m -89.035567,-3.45769 -0.274373,-0.86443 h 0.319246 c 0.175604,0 0.64344,0.29338 1.039654,0.65195 l 0.720407,0.65195 3.635745,0.15411 3.635746,0.15411 0.432223,-0.31387 c 0.237702,-0.17263 1.210178,-0.4326 2.161064,-0.5777 l 1.72884,-0.26384 -0.648308,0.41335 c -0.799121,0.50948 -0.893763,0.49112 2.958782,0.57421 l 3.174894,0.0685 0.200263,-0.32415 c 0.11012,-0.17829 0.577745,-0.32416 1.039151,-0.32416 0.461407,0 0.838888,0.14587 0.838862,0.32416 l -7.9e-5,0.32415 29.498501,-0.0985 c 16.224199,-0.0542 29.832119,-0.10279 30.239839,-0.10806 l 0.74133,-0.01 1.4768,-1.29664 1.47677,-1.29663 h 5.23754 5.23753 v -0.38597 c 0,-0.21229 -0.30406,-0.50266 -0.67572,-0.64527 l -0.67569,-0.25929 0.24378,-0.39446 0.24379,-0.39446 1.07686,0.49946 c 0.59229,0.2747 1.07838,0.70852 1.08024,0.96403 l 0.003,0.46457 3.15518,0.0815 3.15521,0.0815 1.24777,-1.3024 1.24778,-1.3024 h -0.77542 -0.77541 l 0.23506,-0.61255 0.23505,-0.61254 -0.72908,-0.3205 c -0.40101,-0.17627 -0.89954,-0.28142 -1.10784,-0.23367 -0.20833,0.0477 -0.65699,-0.31036 -0.997,-0.7958 l -0.6182,-0.88263 -10.67274,0.0132 -10.67274,0.0131 0.72033,0.42036 c 0.39616,0.2312 1.17414,0.37116 1.72884,0.31102 l 1.00854,-0.10935 0.14251,1.24804 0.14247,1.24804 -0.68275,-0.262 -0.68276,-0.262 v 0.38263 c 0,0.21045 0.24313,0.46946 0.54025,0.57558 0.29716,0.10612 0.42887,0.31479 0.29269,0.4637 l -0.2476,0.27074 -1.15372,-0.53573 c -1.28362,-0.59605 -1.52262,-1.18405 -0.48127,-1.18405 h 0.67918 l -0.75271,-0.75272 -0.75274,-0.75272 -2.8439,-0.24907 -2.84388,-0.24906 -0.22045,0.3192 c -0.12123,0.17556 -0.80198,0.45847 -1.51273,0.6287 -1.21771,0.29163 -6.01805,2.31607 -7.66156,3.23109 -0.41278,0.22982 -1.33662,0.41785 -2.05301,0.41785 h -1.30249 v 0.81818 0.81818 l -0.63447,0.24347 -0.634499,0.24347 -0.267149,-0.43227 -0.26715,-0.43226 0.511466,-0.6163 0.511492,-0.61629 -12.355618,-0.12114 -12.355618,-0.12115 -0.20701,0.54027 c -0.11385,0.29714 -0.407617,0.54026 -0.65278,0.54026 h -0.445796 v -0.64974 -0.64973 l -7.455641,0.17535 c -4.100619,0.0964 -7.71025,0.19433 -8.021426,0.21752 l -0.565759,0.0422 0.255456,0.41333 0.255455,0.41334 0.684742,-0.26277 0.684768,-0.26276 -0.497708,0.92996 c -0.6545,1.22297 -1.077595,1.17331 -2.203688,-0.25863 l -0.934694,-1.18858 -7.956999,-0.0705 -7.957,-0.0705 v 0.3947 c 0,0.21708 0.194495,0.3947 0.432223,0.3947 0.237702,0 0.432197,0.27847 0.432197,0.61883 v 0.61883 l -1.089395,-0.11615 -1.089422,-0.11615 -0.610341,-0.82684 -0.610341,-0.82684 -0.558535,0.55105 -0.558536,0.55106 0.54409,0.87121 0.544062,0.87122 -0.28485,0.46093 -0.284877,0.46094 0.882174,-0.27999 0.882173,-0.27999 0.277972,0.44979 c 0.465719,0.75352 0.734139,0.50235 0.443097,-0.41463 z m 14.62315,-0.28814 0.288131,-0.28814 0.288158,0.28814 0.288131,0.28814 h -0.576289 -0.576262 z m 7.986897,-0.007 c 0.312023,-0.12485 0.684795,-0.1095 0.828411,0.0341 l 0.261144,0.26113 -0.828411,-0.0341 -0.82841,-0.0341 z m -15.694659,-0.56917 -0.267124,-0.43221 h 0.69932 0.699347 l -0.267123,0.43221 c -0.146923,0.23771 -0.341419,0.43221 -0.432224,0.43221 -0.0908,0 -0.2853,-0.1945 -0.432196,-0.43221 z m -2.377176,-0.21611 c 0,-0.11886 0.09726,-0.2161 0.216112,-0.2161 0.118851,0 0.216112,0.0972 0.216112,0.2161 0,0.11886 -0.09726,0.21611 -0.216112,0.21611 -0.118851,0 -0.216112,-0.0973 -0.216112,-0.21611 z m 75.851255,-0.21916 -0.26903,-0.43526 0.69437,-0.26645 c 0.82754,-0.31755 1.28873,0.0324 0.89093,0.67601 -0.35888,0.58071 -0.96594,0.59256 -1.31627,0.0257 z m -7.71766,-0.29684 c -0.48673,-0.48674 -0.29644,-0.99674 0.37195,-0.99674 0.35655,0 0.64831,0.18302 0.64831,0.4067 0,0.54501 -0.67495,0.93535 -1.02026,0.59004 z m -63.811467,-0.59004 v -0.45771 l 0.432196,0.26712 c 0.237729,0.14691 0.432224,0.35289 0.432224,0.45772 0,0.10483 -0.194495,0.1906 -0.432224,0.1906 -0.237701,0 -0.432196,-0.20598 -0.432196,-0.45773 z m -1.296644,-0.19059 c 0,-0.11886 0.09723,-0.21611 0.216112,-0.21611 0.118851,0 0.216085,0.0973 0.216085,0.21611 0,0.11886 -0.09723,0.2161 -0.216085,0.2161 -0.118878,0 -0.216112,-0.0972 -0.216112,-0.2161 z m 66.836501,-0.43221 -0.24879,-0.64832 h 0.41865 c 0.23024,0 0.41865,0.29174 0.41865,0.64832 0,0.35657 -0.0764,0.64831 -0.16989,0.64831 -0.0934,0 -0.2818,-0.29174 -0.41862,-0.64831 z m 1.88513,-0.14907 c 0,-0.2357 -0.12462,-0.75332 -0.27694,-1.15025 l -0.27694,-0.7217 1.0333,0.14609 1.03333,0.14608 v 0.85851 0.8585 l -0.75639,0.14566 -0.75636,0.14567 z m 20.74616,-1.1439 v -0.64466 l 0.86442,-0.53984 c 0.47543,-0.29691 0.86442,-0.7848 0.86442,-1.08419 0,-0.62348 -0.71993,-0.74115 -0.93646,-0.15307 -0.0792,0.21521 -0.71057,0.45833 -1.40298,0.54027 l -1.25894,0.14898 -0.14206,-0.43221 -0.14208,-0.43221 1.07654,-0.49947 1.07656,-0.49946 0.1981,0.32053 c 0.23513,0.38047 1.82374,0.31395 2.23112,-0.0934 0.15687,-0.15685 0.42013,-0.20179 0.58507,-0.0999 l 0.29986,0.18533 -0.19691,1.34162 -0.1969,1.34162 -0.59547,-0.2285 -0.59545,-0.2285 v 0.85086 0.85086 h -0.86442 -0.86442 z m -13.61466,-0.21977 -0.26712,-0.43221 h 0.45773 c 0.25172,0 0.4577,0.19449 0.4577,0.43221 0,0.23772 -0.0858,0.43221 -0.19058,0.43221 -0.10486,0 -0.31081,-0.19449 -0.45773,-0.43221 z m 17.30666,0.0295 c -0.3842,-0.62164 0.007,-1.17549 1.0183,-1.43982 l 0.83389,-0.21806 0.21294,0.81421 0.21291,0.81421 h -0.3564 c -0.19603,0 -0.64439,0.11051 -0.99634,0.24557 l -0.63995,0.24557 z m -14.49729,-1.3261 v -0.57628 l 0.28813,0.28814 0.28816,0.28814 -0.28816,0.28815 -0.28813,0.28814 z m -2.31735,-1.08052 -0.24879,-0.64832 h 0.85085 0.85087 v 0.64832 0.64831 h -0.60208 -0.60206 z m 4.62248,-0.072 0.28813,-0.28814 0.28816,0.28814 0.28813,0.28814 h -0.57629 -0.57626 z m -91.772923,6.31359 c 0,-0.22369 -0.194495,-0.4067 -0.432223,-0.4067 h -0.432197 v 0.67382 0.67383 l 0.432197,-0.26712 c 0.237728,-0.14692 0.432223,-0.45014 0.432223,-0.67383 z m 105.027413,0.24162 c 0,-0.11886 -0.0972,-0.21611 -0.21611,-0.21611 -0.11885,0 -0.21612,0.0973 -0.21612,0.21611 0,0.11885 0.0973,0.2161 0.21612,0.2161 0.11887,0 0.21611,-0.0973 0.21611,-0.2161 z m 2.88142,-2.2331 -0.28816,-0.28814 -0.28813,0.28814 -0.28813,0.28814 h 0.57626 0.57629 z m 1.29661,-0.43221 -0.28813,-0.28814 v 0.57628 0.57628 l 0.28813,-0.28814 0.28816,-0.28814 z M 39.870238,116.19318 c 0,-0.23771 -0.205952,-0.43221 -0.457703,-0.43221 h -0.457729 l 0.267123,0.43221 c 0.146923,0.23772 0.352901,0.43221 0.457729,0.43221 0.104828,0 0.19058,-0.19449 0.19058,-0.43221 z m 22.691116,-5.72609 c 0.713158,-0.0443 2.31775,0.06 3.565737,0.23194 l 2.269119,0.31257 v -0.43469 -0.43468 h 0.648309 c 0.356579,0 0.648308,0.14587 0.648308,0.32415 l -2.6e-5,0.32416 2.485231,-0.0707 c 1.36689,-0.0389 2.653797,-0.0875 2.859828,-0.10805 l 0.374544,-0.0374 -0.226033,-0.86443 c -0.282734,-1.08119 0.03532,-1.10035 0.940514,-0.0566 l 0.70059,0.80778 1.295056,0.0891 c 2.430542,0.1673 20.737962,0.0848 23.121749,-0.10418 l 2.37718,-0.18847 2.46594,-1.33866 c 3.61048,-1.95995 3.87078,-2.08229 5.56064,-2.61361 l 1.54345,-0.48527 h 8.22325 8.22325 l 0.99669,-0.86442 0.99668,-0.86442 h -0.49834 -0.49834 v -0.69456 -0.69456 l -0.63447,0.24347 -0.63448,0.24347 -0.25982,-0.42038 c -0.1429,-0.23121 -0.39438,-0.33721 -0.55888,-0.23556 -0.16446,0.10166 -0.64891,-0.071 -1.07651,-0.38367 l -0.77747,-0.56849 0.54062,-0.33412 0.54062,-0.33413 0.16957,0.50874 c 0.0933,0.2798 0.459,0.50873 0.81275,0.50873 h 0.64318 l -0.61762,-0.61762 -0.61762,-0.61763 -25.56205,-0.044 -25.562061,-0.044 v 0.53201 0.53201 l -0.518637,-0.51866 -0.518662,-0.51865 H 62.871657 49.740148 l -1.902327,1.8369 c -1.046295,1.01029 -1.905556,2.08001 -1.909472,2.37716 l -0.0071,0.54026 H 45.29744 44.673632 l -0.672809,0.9606 c -0.890905,1.27194 -0.848598,1.63267 0.191585,1.63267 h 0.86442 v 0.86442 0.86442 h -0.86442 -0.86442 v -0.64831 c 0,-0.83436 -0.608224,-0.8295 -1.305295,0.0104 l -0.546735,0.65876 0.312287,0.31371 c 0.631534,0.63442 13.24147,0.89088 20.773152,0.42248 z m -5.834856,-0.78258 v -0.45772 l 0.432223,0.26712 c 0.237702,0.14691 0.432197,0.35289 0.432197,0.45772 0,0.10483 -0.194495,0.1906 -0.432197,0.1906 -0.237728,0 -0.432223,-0.20598 -0.432223,-0.45772 z m 21.610584,-0.40671 v -0.43221 h 0.889926 0.889926 l -0.267123,0.43221 c -0.146897,0.23772 -0.54737,0.43221 -0.889926,0.43221 -0.34253,0 -0.622803,-0.19449 -0.622803,-0.43221 z m 2.161064,0.0462 c 0,-0.48582 1.124214,-0.93899 1.470475,-0.59274 0.520276,0.52028 0.236405,0.97871 -0.606055,0.97871 h -0.86442 z m 2.161037,-0.0462 c 0,-0.23771 0.194495,-0.43221 0.432223,-0.43221 0.237728,0 0.432224,0.1945 0.432224,0.43221 0,0.23772 -0.194496,0.43221 -0.432224,0.43221 -0.237728,0 -0.432223,-0.19449 -0.432223,-0.43221 z m 15.99184,0.21611 c 0,-0.11886 0.09726,-0.21611 0.216111,-0.21611 0.118851,0 0.216112,0.0973 0.216112,0.21611 0,0.11886 -0.09726,0.2161 -0.216112,0.2161 -0.11885,0 -0.216111,-0.0972 -0.216111,-0.2161 z m 3.457677,-0.21611 c 0,-0.23771 0.1945,-0.43221 0.43223,-0.43221 0.23773,0 0.43222,0.1945 0.43222,0.43221 0,0.23772 -0.19449,0.43221 -0.43222,0.43221 -0.23773,0 -0.43223,-0.19449 -0.43223,-0.43221 z m -6.267049,-0.86442 -0.782294,-0.86442 h 0.499189 c 0.274559,0 0.499216,0.20076 0.499216,0.44614 0,0.24537 0.437595,0.62204 0.972476,0.83702 l 0.972476,0.39089 -0.689398,0.0274 -0.689372,0.0274 z m -34.447268,-0.0864 0.518662,-0.51866 0.518637,0.51866 0.518662,0.51865 H 61.913045 60.87572 Z m 1.815279,-0.12967 V 107.549 h 0.648335 0.648309 v 0.64831 0.64832 h -0.648309 -0.648335 z m 3.889905,0.43222 c 0,-0.11886 0.09726,-0.21611 0.216111,-0.21611 0.118878,0 0.216112,0.0973 0.216112,0.21611 0,0.11885 -0.09723,0.2161 -0.216112,0.2161 -0.118851,0 -0.216111,-0.0973 -0.216111,-0.2161 z m -19.449521,-0.57628 c 0,-0.60899 0.48686,-0.88837 1.122786,-0.64434 0.333348,0.12792 0.606081,0.40626 0.606081,0.61854 v 0.38597 h -0.86442 c -0.475457,0 -0.864447,-0.16208 -0.864447,-0.36017 z m 29.822616,-0.26264 c 0,-0.75325 0.708686,-1.2533 1.277752,-0.90159 l 0.413332,0.25545 -0.243469,0.63447 c -0.133906,0.34897 -0.514403,0.63448 -0.845556,0.63448 h -0.602059 z m 23.339428,-0.0615 v -0.68434 l 0.51324,0.17108 c 0.28228,0.0941 0.59023,0.40205 0.68434,0.68434 l 0.17108,0.51325 h -0.68435 -0.68431 z m -2.161067,-0.56272 v -0.88688 l 0.666591,0.2558 0.666565,0.25579 -0.153326,0.46 c -0.08432,0.253 -0.384281,0.53698 -0.666591,0.63108 l -0.513239,0.17109 z m -8.356097,0.0945 c -0.158459,-0.15848 -0.288132,-0.48912 -0.288132,-0.73476 v -0.44662 l 0.51144,0.51145 c 0.281305,0.2813 0.410977,0.61194 0.288158,0.73476 -0.12282,0.12282 -0.352981,0.0937 -0.511466,-0.0648 z M 53.268817,106.4685 v -0.72035 l 0.464608,0.15487 c 0.255561,0.0852 0.464635,0.33965 0.464635,0.56548 0,0.22583 -0.209074,0.48029 -0.464635,0.56548 l -0.464608,0.15487 z m 40.495563,0.37193 c -0.403357,-0.40336 0.08406,-1.02025 0.806133,-1.02025 h 0.622829 v 0.64832 0.64832 h -0.576289 c -0.316971,0 -0.700669,-0.12438 -0.852673,-0.27639 z m 10.18125,-0.0338 c -0.29716,-0.10675 -0.54028,-0.4399 -0.54028,-0.74034 V 105.52 l 0.93136,-0.41559 0.93136,-0.41558 1.01359,0.93936 c 0.55748,0.51665 1.01359,1.06293 1.01359,1.21396 0,0.51013 -1.22309,0.27909 -1.40644,-0.26567 l -0.18183,-0.54026 -0.61055,0.48223 -0.61055,0.48223 z m -42.032585,-0.33816 c 0,-0.11886 0.09724,-0.21611 0.216112,-0.21611 0.118851,0 0.216085,0.0973 0.216085,0.21611 0,0.11886 -0.09723,0.2161 -0.216085,0.2161 -0.118877,0 -0.216112,-0.0972 -0.216112,-0.2161 z m 39.763465,-0.86442 v -1.08053 h 0.64831 0.64833 v 1.08053 1.08052 h -0.64833 -0.64831 z m -55.106969,0.2161 -0.31369,-0.50753 0.432223,-0.43221 0.432197,-0.43221 0.31369,0.50753 0.313663,0.50753 -0.432223,0.43221 -0.432197,0.43221 z m 63.325609,0.10805 c 0.004,-0.17828 0.17637,-0.59219 0.38389,-0.91979 l 0.37727,-0.59564 0.46164,0.28532 0.46167,0.28532 -0.24347,0.63448 c -0.24728,0.64435 -1.45314,0.90403 -1.441,0.31031 z m -18.01037,-0.775 c -0.140758,-0.36683 -0.147584,-0.7753 -0.01508,-0.90771 0.378487,-0.37849 1.162685,0.2635 1.162685,0.95185 0,0.82936 -0.824468,0.79764 -1.147498,-0.0441 z m 4.844098,0.27166 -0.253021,-0.4094 0.409416,-0.25302 0.40939,-0.25302 0.253021,0.4094 0.253021,0.40939 -0.40939,0.25302 -0.409416,0.25302 z m -39.13796,-0.68523 c 0,-0.35658 0.173699,-0.64832 0.385974,-0.64832 0.212275,0 0.497919,0.29174 0.634762,0.64832 l 0.248788,0.64831 H 58.22568 57.590918 Z m 19.541569,-0.10806 0.15539,-0.75637 0.848757,0.12859 c 0.466831,0.0707 1.104212,0.21522 1.41642,0.32111 l 0.567664,0.19251 -0.269002,0.43527 -0.269029,0.43526 h -1.302808 -1.302808 z m 17.279249,0.29174 c 0.0852,-0.25554 0.339646,-0.46462 0.565494,-0.46462 0.225822,0 0.480298,0.20908 0.565468,0.46462 l 0.154887,0.46463 H 94.97723 94.256876 Z m 4.815576,0.17649 0.288131,-0.28814 0.288131,0.28814 0.288156,0.28814 h -0.576287 -0.576289 z m -37.098155,-0.57628 -0.267123,-0.43221 h 0.673814 0.673814 v 0.43221 c 0,0.23772 -0.183012,0.43221 -0.406691,0.43221 -0.223678,0 -0.526917,-0.19449 -0.673814,-0.43221 z m 45.016813,-0.23437 0.25578,-0.66659 0.46,0.15334 c 0.253,0.0843 0.537,0.38429 0.63108,0.66658 l 0.17108,0.51325 h -0.88685 -0.88689 z m 1.87812,0.23437 c 0,-0.23772 0.20598,-0.43221 0.45773,-0.43221 h 0.45773 l -0.26712,0.43221 c -0.14693,0.23772 -0.3529,0.43221 -0.45773,0.43221 -0.10483,0 -0.19061,-0.19449 -0.19061,-0.43221 z m 15.23548,0.14597 c -0.29716,-0.1199 -0.54028,-0.49354 -0.54028,-0.83031 v -0.61229 h 0.64833 0.64831 v 0.86442 c 0,0.47543 -0.0486,0.84906 -0.10805,0.8303 -0.0594,-0.0188 -0.35119,-0.13222 -0.64831,-0.25212 z m -56.295557,-0.36208 c 0,-0.11885 0.09724,-0.2161 0.216085,-0.2161 0.118878,0 0.216112,0.0973 0.216112,0.2161 0,0.11886 -0.09723,0.21611 -0.216112,0.21611 -0.11885,0 -0.216085,-0.0973 -0.216085,-0.21611 z m 59.312017,-0.29714 c 0.0941,-0.28229 0.40206,-0.59024 0.68434,-0.68433 l 0.51324,-0.17109 v 0.68433 0.68434 h -0.68432 -0.68434 z M 48.082269,103.6591 v -0.57628 l 0.288132,0.28814 0.288157,0.28815 -0.288157,0.28814 -0.288132,0.28814 z m 12.16869,-0.23857 c 0.08215,-0.42368 0.411031,-0.85747 0.730885,-0.96397 l 0.581528,-0.19365 -0.149331,0.77033 c -0.08213,0.42368 -0.411004,0.85747 -0.730858,0.96398 l -0.581554,0.19364 z m 37.999776,0.0609 -0.506122,-0.60984 0.453205,-0.28009 0.453205,-0.28009 0.432223,0.26712 c 0.53258,0.32915 0.573987,1.51274 0.05292,1.51274 -0.208624,0 -0.60706,-0.27443 -0.885428,-0.60984 z m 13.798845,0.17763 c 0,-0.23772 0.19449,-0.43221 0.43222,-0.43221 0.2377,0 0.4322,0.19449 0.4322,0.43221 0,0.23771 -0.1945,0.43221 -0.4322,0.43221 -0.23773,0 -0.43222,-0.1945 -0.43222,-0.43221 z m -59.010289,-0.45392 -0.289243,-0.46802 0.266568,-0.26659 0.266594,-0.26658 0.462677,0.46266 0.462651,0.46267 -0.440003,0.27194 -0.440002,0.27194 z m 1.703043,-0.14077 -0.283686,-0.73923 0.276701,-0.2767 0.276702,-0.2767 0.511466,0.51145 0.511439,0.51145 -0.504481,0.50448 -0.504481,0.50448 z m 23.360856,0.13372 c -0.397774,-0.64363 0.06342,-0.99356 0.890958,-0.67601 l 0.694346,0.26645 -0.269002,0.43526 c -0.350334,0.56686 -0.957394,0.55501 -1.316302,-0.0257 z m 23.39946,0.14305 c -0.14208,-0.1421 -0.25837,-0.51769 -0.25837,-0.83465 v -0.57628 h 0.86442 0.86445 v 0.60208 c 0,0.65196 -1.04989,1.22945 -1.4705,0.80885 z m -35.555635,-0.40243 0.288131,-0.28815 0.288158,0.28815 0.288131,0.28814 h -0.576289 -0.576262 z m 1.152552,-0.57629 c 0,-0.23771 0.194495,-0.43221 0.432223,-0.43221 0.237728,0 0.432223,0.1945 0.432223,0.43221 0,0.23772 -0.194495,0.43222 -0.432223,0.43222 -0.237728,0 -0.432223,-0.1945 -0.432223,-0.43222 z m 27.229328,0 c 0,-0.23771 0.194496,-0.43221 0.432224,-0.43221 0.237728,0 0.432223,0.1945 0.432223,0.43221 0,0.23772 -0.194495,0.43222 -0.432223,0.43222 -0.237728,0 -0.432224,-0.1945 -0.432224,-0.43222 z m 15.559615,-0.25212 v -0.68433 l 0.51327,0.17108 c 0.28228,0.0941 0.59023,0.40205 0.68434,0.68433 l 0.17108,0.51326 h -0.68434 -0.68435 z m 15.99184,0.25212 v -0.57628 l 0.28813,0.28814 0.28816,0.28814 -0.28816,0.28814 -0.28813,0.28815 z m 11.88583,3.02548 c -0.14693,-0.23771 -0.48345,-0.43221 -0.74785,-0.43221 -0.2644,0 -0.8364,-0.32189 -1.27114,-0.7153 l -0.79039,-0.71531 v 0.41276 c 0,0.22701 0.23339,0.64615 0.51864,0.93141 0.28527,0.28526 0.36862,0.51865 0.18523,0.51865 -0.18338,0 -0.63383,-0.30042 -1.00102,-0.66761 l -0.66762,-0.66761 0.24609,-1.23036 0.24606,-1.23036 -1.0233,0.0611 -1.02331,0.0611 0.48779,0.58806 c 0.26826,0.32343 0.55001,1.05279 0.62608,1.62079 l 0.1383,1.03273 h -0.87921 -0.87921 v 0.43221 0.43221 h 3.05099 3.05099 z m -6.68108,-3.53348 c -0.51689,-0.48155 -1.04312,-0.77222 -1.1694,-0.64593 -0.12629,0.12629 0.1783,0.48437 0.67688,0.79574 l 0.90652,0.56613 0.0341,0.6524 0.0341,0.6524 0.22876,-0.57259 0.22878,-0.5726 z m 0.84622,-1.00474 c 0,-0.11885 -0.0973,-0.2161 -0.21611,-0.2161 -0.11885,0 -0.21611,0.0973 -0.21611,0.2161 0,0.11886 0.0973,0.21611 0.21611,0.21611 0.11885,0 0.21611,-0.0973 0.21611,-0.21611 z M 90.871215,93.522829 v -1.00878 l -0.683657,-0.262347 c -0.376026,-0.144291 -1.105377,-0.263544 -1.620811,-0.26501 -0.515409,-0.0016 -1.500929,-0.296685 -2.190009,-0.656047 l -1.252882,-0.653384 -0.259847,0.283007 -0.259874,0.283009 0.51599,0.184859 0.515991,0.184856 -0.238072,0.620393 -0.238072,0.620392 H 84.507483 83.85502 l 0.226034,-0.86442 0.22606,-0.864423 -1.148107,-0.0059 c -0.631481,-0.0033 -1.558951,-0.116174 -2.061077,-0.25095 l -0.912972,-0.245049 -0.235161,0.899269 -0.235162,0.899265 h -1.55321 -1.553183 v 0.390491 0.390488 l 3.99796,0.233198 c 4.617349,0.269325 8.80909,0.843513 9.229883,1.26432 0.495327,0.49531 1.03513,-0.118613 1.03513,-1.177235 z M 80.714231,91.989357 80.447134,91.557144 h 0.457703 c 0.251751,0 0.457729,0.194495 0.457729,0.432213 0,0.237715 -0.08578,0.43221 -0.190606,0.43221 -0.104828,0 -0.310806,-0.194495 -0.457729,-0.43221 z m 12.318047,1.944949 c 0,-0.118859 -0.09726,-0.216106 -0.216111,-0.216106 -0.118851,0 -0.216112,0.09725 -0.216112,0.216106 0,0.118859 0.09726,0.216106 0.216112,0.216106 0.11885,0 0.216111,-0.09725 0.216111,-0.216106 z M 107.644,92.314625 107.77663,91.631 l -0.88513,-0.280932 -0.88514,-0.280932 -0.46424,0.286914 -0.46424,0.286912 0.75298,0.832029 0.75298,0.83203 0.46376,-0.154384 c 0.25506,-0.08491 0.52345,-0.462018 0.5964,-0.838012 z M 75.574356,92.097407 c 0.315806,-0.416002 0.580363,-0.999487 0.58793,-1.296633 l 0.01376,-0.540263 -2.26912,0.03205 -2.269093,0.03205 -1.72884,0.836072 -1.728867,0.836076 1.651503,-0.245155 c 0.908314,-0.134835 1.931617,-0.352653 2.274014,-0.48404 l 0.622512,-0.238884 -0.25781,0.671833 c -0.141791,0.369509 -0.581608,0.757594 -0.977371,0.862409 l -0.719561,0.190571 2.113412,0.05014 2.113386,0.05014 z m -2.177442,-0.05908 -0.236855,-0.383238 0.653997,-0.542774 c 0.777055,-0.644888 1.275927,-0.295153 0.916173,0.642294 -0.282204,0.73542 -0.964433,0.880592 -1.333315,0.283718 z m 46.988786,-0.529965 -0.48099,-0.480994 -0.49085,0.303366 -0.49086,0.303366 0.52131,0.628157 0.52133,0.628156 0.45054,-0.45053 0.45053,-0.450527 z M 78.769279,91.124934 c 0,-0.237718 -0.194495,-0.432213 -0.432197,-0.432213 -0.237728,0 -0.432223,0.194495 -0.432223,0.432213 0,0.237715 0.194495,0.43221 0.432223,0.43221 0.237702,0 0.432197,-0.194495 0.432197,-0.43221 z m 12.534159,-6.075836 c 0,-0.575382 -0.732605,-0.863002 -1.473756,-0.578599 -0.37801,0.145063 -0.687308,0.507712 -0.687308,0.805889 v 0.542139 l 1.080532,-0.206555 c 0.594281,-0.113606 1.080532,-0.3669 1.080532,-0.562874 z M 2.2134417,211.85829 c -0.029924,-0.1994 -0.014817,-2.113 0.033311,-4.25244 l 0.087736,-3.8899 0.7175765,-0.55488 0.7176029,-0.55487 7.7852589,0.28251 7.785285,0.28251 0.491305,0.48847 0.491304,0.48847 0.20701,3.12878 0.20701,3.12879 -0.497707,0.41307 -0.497735,0.41307 -6.035463,0.21496 c -3.319489,0.11822 -7.2510382,0.34074 -8.7367794,0.49448 l -2.7013164,0.27953 z m 177.2570483,-1.55112 -0.64421,-0.97248 -0.1206,-7.34759 -0.12059,-7.34759 0.56361,-1.08053 0.56362,-1.08053 0.98546,-0.14123 0.98544,-0.14123 0.62453,0.51831 0.62452,0.51832 v 8.15909 8.15909 l -0.86442,0.86442 c -1.12033,1.12033 -1.80239,1.09196 -2.59736,-0.10805 z m -149.173009,-1.37282 -0.477811,-1.04866 0.26625,-1.06075 0.266223,-1.06075 0.915538,-0.23942 0.915538,-0.23942 0.997162,0.37912 0.997161,0.37912 0.288925,0.91034 0.288925,0.91035 -0.694108,1.05936 -0.694134,1.05937 h -1.295929 -1.295956 z m 116.057519,-0.96319 -0.288,-1.14742 0.41669,-0.66059 c 0.22919,-0.36332 0.74195,-0.86576 1.13951,-1.11653 l 0.72282,-0.45594 1.1045,1.1045 1.1045,1.10451 -0.44082,1.15945 -0.44082,1.15944 h -1.51519 -1.51522 z m 13.96704,-6.98018 -1.16139,-1.21223 v -1.53016 -1.53016 l 0.75716,-0.68522 c 0.41642,-0.37687 1.30794,-0.89463 1.98114,-1.15057 l 1.22397,-0.46536 1.22361,0.72281 1.22362,0.72281 0.46906,1.02943 c 0.25797,0.56619 0.46902,1.39435 0.46902,1.84036 v 0.81093 l -1.11895,1.32979 -1.11895,1.3298 h -1.39345 -1.39345 z M -0.90676301,189.7431 -1.622064,188.9527 v -0.92848 -0.92848 l 1.05936515,-0.69412 1.0593652,-0.69412 0.84693125,0.2688 c 0.4657989,0.14784 1.1726333,0.7659 1.5707254,1.37347 l 0.7237941,1.10467 -0.976577,1.03953 -0.9765771,1.03954 H 0.74675051 -0.19146198 Z M 16.339228,185.2508 c -0.871749,-1.24458 -0.848307,-1.77211 0.117581,-2.64621 l 0.79039,-0.71531 h 0.885534 c 1.483227,0 2.56831,2.40133 1.708891,3.78185 l -0.336339,0.54026 h -1.246611 -1.24661 z M 169.3846,181.9633 c -1.35673,-1.49917 -0.64267,-3.53171 1.24076,-3.53171 h 0.91874 l 1.0151,1.08053 1.0151,1.08053 -1.0151,1.08053 -1.0151,1.08052 h -0.7221 c -0.39714,0 -1.04399,-0.35568 -1.4374,-0.7904 z M 3.2403161,167.79789 2.2678401,166.68846 v -1.6627 -1.6627 l 1.2553156,-0.89385 1.2552891,-0.89386 h 1.118579 1.1185789 l 1.0838127,0.94237 1.0838127,0.94236 v 1.79167 1.79167 l -1.0003366,0.93976 -1.0003367,0.93976 -1.4848681,-0.008 -1.4848946,-0.008 z m 171.1362839,-7.72087 -0.83863,-1.06612 0.21119,-1.10466 0.21117,-1.10466 1.08656,-0.8547 c 1.30956,-1.03009 2.19014,-1.07628 3.4671,-0.18187 l 0.9606,0.67283 v 1.834 1.834 l -0.51866,0.51865 -0.51864,0.51865 h -1.61105 -1.61102 z M 4.2555488,143.86737 l -6.8726578,-0.22878 -0.3053027,-0.86442 -0.3052763,-0.86442 0.4399756,-0.97248 0.4399757,-0.97247 h 7.2112451 7.2112186 l 0.736309,0.81359 0.736282,0.8136 -0.28395,1.13135 c -0.156157,0.62225 -0.441458,1.13136 -0.633942,1.13136 -0.192511,0 -0.609044,0.0543 -0.925645,0.12073 -0.316574,0.0664 -3.6682889,0.0178 -7.4482322,-0.10806 z m 173.1333312,-5.76733 -0.93977,-1.00033 0.0138,-0.83657 c 0.008,-0.46011 0.2721,-1.17693 0.58791,-1.59293 l 0.57417,-0.75637 h 1.50011 1.50011 l 0.54935,1.0265 0.54938,1.0265 -0.54695,1.0265 c -1.17805,2.21107 -2.41191,2.57154 -3.78806,1.1067 z M 7.5981094,125.43592 l -0.7406217,-1.13033 0.6374606,-1.13572 0.6374607,-1.13572 0.7736681,-0.149 0.7736681,-0.14899 0.8322738,0.75319 0.832273,0.75318 v 0.9782 c 0,0.538 -0.118057,1.28584 -0.262361,1.66185 l -0.262334,0.68367 H 9.5791506 8.338731 Z M 169.10152,120.21535 c -1.75154,-0.62599 -2.1146,-2.14848 -0.83889,-3.5178 l 0.88995,-0.95527 1.27112,0.75085 1.27108,0.75085 v 1.18824 1.18824 l -0.836,0.44742 c -0.45982,0.24607 -0.89744,0.43206 -0.97248,0.41329 -0.0751,-0.0188 -0.42823,-0.13839 -0.78478,-0.26582 z M 1.6195315,112.25547 c -1.78315931,-0.86952 -2.32714264,-3.1334 -1.1049264,-4.59846 l 0.8112654,-0.97248 h 1.3059833 1.3059833 l 0.9378157,1.31707 0.937842,1.31705 -0.5054071,1.22015 -0.505407,1.22014 -1.0716419,0.48827 c -0.5894123,0.26856 -1.1111177,0.47512 -1.1593777,0.45903 -0.048233,-0.0161 -0.4766998,-0.21894 -0.9521296,-0.45077 z m 177.7358385,-0.0103 -0.7452,-0.41704 v -9.89386 -9.893871 l 0.43934,-0.271529 c 0.24164,-0.149338 0.87373,-0.349408 1.40467,-0.4446 l 0.96536,-0.173072 0.64831,0.403923 0.64833,0.403924 v 9.241845 9.24184 l -0.61277,0.73778 c -0.33703,0.40578 -0.92554,0.90517 -1.30781,1.10975 l -0.69501,0.37196 z M 17.844284,104.44198 c -1.105112,-1.18621 -1.105112,-1.67628 0,-2.86249 l 0.881274,-0.94592 h 0.816716 c 1.055582,0 2.175087,1.12818 2.175087,2.19193 v 0.83355 l -0.864421,0.86442 c -1.114107,1.11412 -1.914974,1.09242 -3.008656,-0.0815 z M 162.44066,98.007146 161.32171,96.67735 v -1.512824 -1.512824 l 1.26339,-1.263388 1.26338,-1.263385 h 1.14218 c 1.31818,0 2.79882,0.704093 3.55685,1.691388 l 0.52652,0.685771 0.0138,1.814904 0.0138,1.814902 -1.4455,1.102524 -1.44547,1.102521 h -1.32549 -1.32545 z M 2.2647974,86.150841 1.7237245,85.498866 1.974867,83.95122 c 0.1381389,-0.851207 0.4935008,-1.839667 0.7897018,-2.196579 l 0.5385858,-0.64893 6.0735633,0.09551 c 3.3404701,0.05253 6.5805581,0.176742 7.2002121,0.276024 l 1.126649,0.180518 0.542739,1.014116 0.54274,1.014119 -0.514323,1.558411 -0.514324,1.558412 H 10.283154 2.8058967 Z m 141.8004426,-1.665367 -0.54626,-1.020709 0.57719,-0.92424 0.57722,-0.924242 h 0.72509 c 0.39883,0 1.03277,0.118054 1.40877,0.262347 l 0.68369,0.262348 v 1.163947 1.163949 l -0.51867,0.518655 c -0.28524,0.285258 -0.93313,0.518652 -1.4397,0.518652 h -0.92104 z M 33.473512,84.123106 C 33.188265,83.837849 32.954876,83.22718 32.954876,82.766069 v -0.838385 l 0.756365,-0.574167 c 0.98806,-0.750052 1.75506,-0.745239 2.516081,0.0158 1.269841,1.269838 0.457465,3.272456 -1.327494,3.272456 -0.499216,0 -1.141042,-0.233394 -1.426316,-0.518655 z m 140.001518,-6.983097 -0.50729,-0.611254 0.11989,-6.42462 0.11988,-6.424618 5.44745,-0.120494 5.44746,-0.120494 0.50731,0.611257 0.50728,0.611253 -0.11988,6.424618 -0.11991,6.424618 -5.44745,0.120494 -5.44743,0.120493 z M -1.3597561,67.744639 -2.4864842,66.858362 v -0.74661 c 0,-1.661903 2.08756243,-2.348928 3.6549276,-1.202848 l 0.7946496,0.581067 -0.2849298,1.135301 -0.2849562,1.1353 -0.81311753,0.435174 -0.81314395,0.43517 z M 113.4424,67.97712 112.4818,67.304296 v -0.969577 c 0,-0.533267 0.23339,-1.202973 0.51864,-1.488231 l 0.51866,-0.518654 h 1.12376 1.12374 l 0.51866,0.518654 c 0.28525,0.285258 0.51864,0.935847 0.51864,1.445752 v 0.927098 l -0.79039,0.715304 c -0.97936,0.886298 -1.35747,0.892545 -2.57111,0.04248 z m 18.14314,0.154173 -0.51864,-0.518655 v -1.123749 -1.123748 l 0.51864,-0.518653 0.51866,-0.518654 h 11.53356 11.53355 l 0.708,1.080529 0.708,1.080526 -0.708,1.08053 -0.708,1.080526 H 143.63776 132.1042 Z M 42.256726,67.785522 36.647295,67.569419 36.229598,66.378611 35.8119,65.187806 l 0.408384,-0.379111 0.408385,-0.379113 6.559629,-0.297572 6.559656,-0.297574 0.462253,0.863706 0.462227,0.863706 -0.266938,0.69561 c -0.146791,0.382588 -0.778219,0.93154 -1.403138,1.219894 l -1.1362,0.524277 z m 23.161863,-0.685654 c -0.501756,-0.637871 -0.912283,-1.314138 -0.912283,-1.502815 0,-0.624168 1.345406,-1.701429 2.124948,-1.701429 h 0.766551 l 0.805206,0.889722 0.80518,0.889722 -0.437885,0.694177 c -0.240824,0.381796 -0.843227,0.963324 -1.338659,1.29228 l -0.900801,0.598107 z M 16.339228,66.824945 c -0.927047,-1.323533 -0.84746,-1.851036 0.402775,-2.670231 l 1.075611,-0.704765 0.869341,0.542917 0.869342,0.542914 v 1.362533 1.36253 l -0.683657,0.262348 c -1.203986,0.462015 -1.844357,0.285525 -2.533412,-0.698246 z m 73.252197,0.01468 c -1.027483,-1.10286 -1.072991,-1.574247 -0.256011,-2.652083 l 0.597747,-0.78863 1.217454,0.140314 1.217427,0.140314 0.410951,1.175493 0.410951,1.175491 -0.794147,0.877512 c -1.017932,1.124802 -1.708415,1.107958 -2.804372,-0.06841 z"
       id="path8" />
  </g>
</svg>
