<?xml version="1.0" encoding="UTF-8" standalone="no"?>
<!-- Created with Inkscape (http://www.inkscape.org/) -->

<svg
   width="183.77768mm"
   height="185.11729mm"
   viewBox="0 0 183.77768 185.11731"
   version="1.1"
   id="svg1"
   inkscape:version="1.4.1 (9315e674c8, 2025-04-14)"
   sodipodi:docname="saturno.svg"
   xmlns:inkscape="http://www.inkscape.org/namespaces/inkscape"
   xmlns:sodipodi="http://sodipodi.sourceforge.net/DTD/sodipodi-0.dtd"
   xmlns="http://www.w3.org/2000/svg"
   xmlns:svg="http://www.w3.org/2000/svg">
  <sodipodi:namedview
     id="namedview1"
     pagecolor="#ffffff"
     bordercolor="#000000"
     borderopacity="0.25"
     inkscape:showpageshadow="2"
     inkscape:pageopacity="0.0"
     inkscape:pagecheckerboard="0"
     inkscape:deskcolor="#d1d1d1"
     inkscape:document-units="mm"
     inkscape:zoom="0.71535494"
     inkscape:cx="-37.743501"
     inkscape:cy="487.17075"
     inkscape:window-width="1854"
     inkscape:window-height="1011"
     inkscape:window-x="66"
     inkscape:window-y="32"
     inkscape:window-maximized="1"
     inkscape:current-layer="layer1" />
  <defs
     id="defs1" />
  <g
     inkscape:label="Layer 1"
     inkscape:groupmode="layer"
     id="layer1"
     transform="translate(-233.83889,-111.55297)">
    <path
       style="fill:#000000;stroke-width:0.264583"
       d="m 249.03005,296.26856 c -3.41527,-1.1163 -6.21221,-4.39513 -6.21221,-7.2825 v -0.82064 l 0.96396,-0.25834 c 0.53017,-0.14208 2.06886,-0.26096 3.41926,-0.26418 l 2.45531,-0.006 0.26316,1.04852 0.26315,1.04852 1.01521,0.66519 c 1.28624,0.84278 2.45909,0.84233 4.09098,-0.002 l 1.28937,-0.66675 -0.13248,-1.36829 -0.13245,-1.36828 -1.92791,-0.9463 c -1.06037,-0.52047 -2.38755,-0.95425 -2.94928,-0.96396 -0.56177,-0.01 -1.7716,-0.24243 -2.68851,-0.51715 l -1.66714,-0.49948 -1.59578,-1.37945 -1.59579,-1.37945 v -3.58353 -3.58352 l 1.07106,-1.43415 c 1.32964,-1.78036 2.85999,-2.59242 6.20395,-3.29207 l 2.60369,-0.54476 1.9155,0.49335 c 1.05352,0.27134 2.59763,0.9176 3.43133,1.43614 l 1.51583,0.9428 0.97803,1.74018 0.97803,1.74018 -0.13922,0.72297 -0.13925,0.72298 -2.78305,0.51452 -2.78305,0.51453 -0.99501,-1.2428 -0.99502,-1.2428 h -1.81118 -1.81121 l -0.51411,0.51411 c -0.28276,0.28276 -0.51411,0.93536 -0.51411,1.45023 v 0.93611 l 1.13961,0.7467 1.13962,0.74669 2.39493,0.34677 c 1.3172,0.19072 2.91533,0.47587 3.55142,0.63366 l 1.15649,0.2869 1.69124,1.56135 1.69125,1.56134 0.30329,2.42745 0.30329,2.42744 -0.533,1.61502 -0.533,1.61501 -1.99007,1.99006 -1.99004,1.99005 -1.43129,0.28626 c -1.75984,0.35197 -6.79894,0.30185 -7.9648,-0.0792 z m 16.28661,-0.94866 c 0.15875,-0.72278 0.55846,-1.83134 0.88826,-2.46346 0.32978,-0.63213 0.60079,-1.44815 0.60225,-1.81339 0.003,-0.36523 0.16967,-0.84721 0.37385,-1.07107 0.29266,-0.32089 6.89438,-17.56467 7.57783,-19.79338 l 0.1642,-0.53553 h 3.65508 3.65509 v 0.64845 c 0,0.35665 0.17301,0.98323 0.38447,1.39239 0.21142,0.40917 0.71961,1.61151 1.12924,2.67187 0.40965,1.06036 0.98562,2.5063 1.27997,3.21321 0.29433,0.7069 0.79034,2.05645 1.10223,2.99899 0.31192,0.94255 0.69742,1.90651 0.85669,2.14215 0.15928,0.23563 0.43249,1.1032 0.60712,1.92792 0.17462,0.82473 0.4387,1.5959 0.58682,1.71372 0.14814,0.11781 0.64114,1.37097 1.09558,2.78478 0.45443,1.41381 0.95004,2.76336 1.10133,2.999 0.28152,0.43842 1.28199,3.7371 1.28199,4.22688 0,0.14939 -1.61235,0.27161 -3.58299,0.27161 h -3.58301 l -0.74092,-2.35556 c -0.40748,-1.29555 -0.94726,-2.48309 -1.19946,-2.63897 -0.37338,-0.23074 -3.63524,-0.29817 -8.0822,-0.16707 l -0.69405,0.0204 -0.5506,2.03504 c -0.30282,1.11926 -0.73705,2.27602 -0.96499,2.57056 l -0.41442,0.53554 h -3.40899 -3.409 z m 15.54022,-9.61045 c 0.11975,-0.10095 -0.27315,-1.14986 -1.46864,-3.92093 -0.32034,-0.74252 -0.58243,-1.7433 -0.58243,-2.22396 0,-0.48066 -0.19415,-0.99393 -0.43146,-1.14058 l -0.43145,-0.26666 -0.15008,0.56269 c -0.68595,2.57175 -1.79146,5.80596 -2.14389,6.27202 l -0.42965,0.56818 0.53448,0.33034 0.53451,0.33034 2.22271,-0.20382 c 1.22251,-0.1121 2.27817,-0.25053 2.3459,-0.30762 z m 16.22854,10.63897 -0.28564,-0.28562 v -10.21087 -10.21087 h -3.41927 -3.41926 l -0.25056,-0.99833 c -0.1378,-0.54908 -0.18968,-1.85043 -0.11525,-2.89189 l 0.13528,-1.89356 10.81781,-0.11446 10.81783,-0.11446 v 3.00635 3.00635 h -3.85585 -3.85588 v 10.49649 10.49649 h -3.1418 c -1.72799,0 -3.27033,-0.12853 -3.42741,-0.28562 z m 24.13479,0.006 c -0.5891,-0.10929 -1.84224,-0.725 -2.78479,-1.36824 l -1.71371,-1.16954 -1.07109,-2.12575 -1.07106,-2.12575 -0.12924,-9.97937 -0.12925,-9.97938 3.34245,0.12553 3.34246,0.12552 0.21423,9.35703 0.21421,9.35703 1.01142,0.81814 1.01142,0.81814 h 2.07288 2.07288 l 1.09286,-1.43283 1.09289,-1.43283 v -8.84946 -8.84944 h 3.2132 3.21321 l -0.004,9.96095 -0.004,9.96096 -1.27878,2.22973 -1.27879,2.22974 -2.0076,1.17654 -2.00763,1.17654 -3.67152,0.0877 c -2.01935,0.0482 -4.15354,-0.002 -4.74261,-0.11099 z m 20.54648,-0.0235 c -0.01,-0.18664 -0.0581,-6.26765 -0.1071,-13.51335 l -0.0891,-13.174 6.55704,-1.6e-4 6.55703,-1.7e-4 1.85727,0.84609 1.8573,0.84609 1.10693,1.31553 1.10697,1.31554 0.48686,1.80133 0.48686,1.80134 -0.23686,2.31151 -0.23685,2.31151 -1.22201,1.50982 c -0.99142,1.22493 -2.09005,2.12923 -3.01225,2.47945 -0.0633,0.024 1.14165,2.28965 2.67769,5.03468 1.53604,2.74503 2.79281,5.08707 2.79281,5.20453 0,0.11745 -1.60809,0.21356 -3.57352,0.21356 h -3.57349 l -2.5809,-5.03403 -2.58088,-5.03403 -0.68662,-0.13586 -0.68662,-0.13586 -0.12094,5.06279 -0.12097,5.06277 -3.32031,0.12513 -3.32031,0.12513 z m 12.78083,-15.985 0.92832,-0.86488 -0.15782,-1.3557 -0.15786,-1.3557 -0.7716,-0.5642 c -0.81148,-0.59337 -1.06775,-0.64207 -3.82103,-0.72611 l -1.71371,-0.0523 -0.21421,2.89228 -0.21423,2.89227 2.59689,-2.7e-4 2.59691,-2.6e-4 z m 11.22921,2.79281 v -13.49549 h 3.36013 3.36013 l 1.78101,2.9859 c 0.97954,1.64224 1.78102,3.18458 1.78102,3.42742 0,0.24284 0.19278,0.44153 0.42841,0.44153 0.23564,0 0.42844,0.20206 0.42844,0.44901 0,0.24696 0.70456,1.54831 1.5657,2.89189 0.86114,1.34359 2.01295,3.31045 2.55955,4.37081 l 0.99383,1.92793 0.0111,-8.26601 0.0111,-8.26601 3.1061,0.12587 3.10613,0.12588 -0.10713,0.32132 c -0.0589,0.17673 -0.1071,6.2015 -0.1071,13.38838 v 13.06706 h -2.97098 -2.97101 l -3.40072,-5.48817 c -1.87039,-3.01849 -3.53472,-5.91038 -3.6985,-6.42642 -0.1638,-0.51604 -0.4776,-0.93826 -0.69736,-0.93826 -0.21977,0 -0.40384,-0.24099 -0.40908,-0.53553 -0.005,-0.29455 -0.38655,-1.01752 -0.84732,-1.60661 l -0.83781,-1.07107 -0.01,8.03303 -0.01,8.03303 h -3.2132 -3.21321 z m 33.95295,13.21602 c -0.5302,-0.11471 -0.96399,-0.38794 -0.96399,-0.60719 0,-0.21924 -0.26982,-0.39863 -0.59965,-0.39863 h -0.59965 l -2.11225,-2.31115 -2.11227,-2.31116 -0.77126,-2.45199 -0.77124,-2.45199 0.22815,-3.91252 0.22818,-3.91253 0.94409,-1.92792 c 1.20552,-2.46188 3.17513,-4.54915 5.3517,-5.67141 l 1.7137,-0.88362 4.07009,-0.0105 4.07006,-0.0105 1.80324,0.93139 c 2.34331,1.21035 3.74057,2.74038 5.15474,5.64463 l 1.1474,2.35635 0.0153,4.49849 0.0154,4.4985 -1.00113,2.14214 -1.00113,2.14214 -1.56747,1.62813 c -0.86212,0.89546 -2.14588,1.93579 -2.85279,2.31183 l -1.28527,0.68371 -4.07009,0.11618 c -2.23853,0.0639 -4.50384,0.0223 -5.03401,-0.0924 z m 8.49982,-7.84932 1.61943,-1.70237 0.29583,-1.97268 0.29581,-1.97267 -0.26901,-1.9627 -0.26902,-1.96269 -1.02915,-1.3493 -1.02918,-1.3493 -1.77975,-0.58738 -1.77977,-0.58737 -1.55212,0.56126 c -1.9997,0.72309 -2.85909,1.5593 -3.7079,3.60786 l -0.68739,1.65893 v 2.45242 2.45243 l 0.71808,1.45821 c 0.39494,0.80202 1.09921,1.7956 1.56504,2.20797 l 0.84698,0.74974 h 2.57135 2.57136 z m -170.36831,-28.34509 -0.6944,-1.34278 0.83286,-1.12069 0.83283,-1.12068 1.43031,-0.14024 1.43031,-0.14024 0.76705,0.99709 c 0.42188,0.5484 0.77134,1.30088 0.77658,1.67217 l 0.01,0.67506 -0.99158,0.93154 -0.99158,0.93154 h -1.35377 -1.35376 z m 81.00264,0.40658 c -13.23613,-1.67156 -24.40517,-6.64443 -35.54801,-15.82732 l -2.98749,-2.46201 -0.43995,0.32635 c -0.24196,0.1795 -1.6931,0.67109 -3.22472,1.09243 -1.53162,0.42134 -3.26676,0.92947 -3.85585,1.12918 -0.98063,0.33244 -1.97972,0.55009 -7.7117,1.67991 l -1.92794,0.38001 -5.80086,0.0255 -5.80089,0.0255 -2.55346,-0.66438 c -1.40441,-0.3654 -3.56206,-1.15745 -4.79478,-1.7601 l -2.24131,-1.09573 -1.50408,-1.66483 c -0.82725,-0.91565 -1.90683,-2.52164 -2.39908,-3.56885 l -0.89498,-1.90401 0.18806,-3.13251 c 0.41574,-6.92429 3.27142,-12.5503 11.4408,-22.53956 1.29146,-1.57917 2.64102,-3.23767 2.999,-3.68557 0.35798,-0.4479 1.77138,-1.99024 3.14087,-3.42743 l 2.49002,-2.61306 -0.23487,-4.71271 -0.23488,-4.71271 0.42807,-5.96673 c 0.23543,-3.2817 0.63535,-6.75197 0.88871,-7.7117 1.26717,-4.80026 1.80131,-6.57277 2.35284,-7.80772 0.3316,-0.74252 0.6029,-1.54232 0.6029,-1.77733 0,-1.10748 4.87424,-9.78391 8.61952,-15.34328 2.02197,-3.00137 7.53795,-9.00594 11.42534,-12.43738 l 3.81349,-3.36623 4.244,-2.61588 c 5.37422,-3.31252 9.53632,-5.26497 14.95467,-7.01528 6.02647,-1.94675 6.42525,-2.04769 10.4965,-2.65701 l 3.64165,-0.54502 7.28326,-0.007 7.28329,-0.007 4.07006,0.54678 c 2.23854,0.30073 4.64847,0.72298 5.35535,0.93832 7.11356,2.16703 9.05576,2.86275 12.21021,4.37391 5.41504,2.59408 9.5373,5.24846 14.66315,9.4418 5.19785,4.25222 4.75213,4.11362 8.72027,2.71144 9.54733,-3.37366 21.53999,-4.0479 29.6559,-1.66731 l 2.27058,0.66602 2.00276,1.34581 2.00276,1.34581 1.20809,1.80687 1.20806,1.80688 0.45996,2.61123 0.45997,2.61123 -0.49813,2.53191 c -0.27397,1.39254 -0.77748,3.06746 -1.11892,3.72202 -0.34142,0.65457 -0.62198,1.34484 -0.62344,1.53394 -0.003,0.1891 -1.10117,1.99472 -2.44382,4.01249 l -2.44118,3.66868 -3.66392,3.72055 c -2.01515,2.0463 -4.24228,4.14351 -4.94919,4.66046 -2.71635,1.98642 -4.76457,3.56756 -6.08542,4.69774 l -1.37274,1.17453 -0.0558,8.56857 -0.0558,8.56856 -0.36955,2.35635 c -0.20325,1.296 -0.56552,3.22393 -0.80504,4.28429 -0.23953,1.06035 -0.6676,3.03648 -0.95123,4.39138 l -0.5157,2.46346 h -0.35679 c -0.19624,0 -0.35679,0.40465 -0.35679,0.89922 0,1.75948 -4.89874,11.61779 -8.44291,16.99063 l -2.47087,3.74578 -4.71828,4.87295 -4.71829,4.87295 -3.21321,2.42417 c -4.57033,3.44804 -11.79163,7.75183 -13.0067,7.75183 -0.34737,0 -0.69586,0.1446 -0.77441,0.32133 -0.53681,1.20782 -12.12498,4.39946 -19.82327,5.45976 l -4.68548,0.64534 -3.45467,-0.0645 c -1.90005,-0.0355 -4.80419,-0.23494 -6.45366,-0.44324 z m 10.62223,-10.04305 0.26852,-0.26853 -0.65894,-1.27427 -0.65895,-1.27428 -1.04335,0.98018 -1.04336,0.98017 0.327,0.30683 c 0.27463,0.2577 1.08008,0.52801 2.29063,0.76874 0.13745,0.0273 0.37076,-0.0711 0.51845,-0.21884 z m 7.04151,-0.41874 c -0.14234,-0.14236 -0.51186,-0.15758 -0.82113,-0.0338 l -0.56232,0.22502 0.82116,0.0338 0.82113,0.0338 z m -27.46616,-0.79171 c 0.13129,-0.34217 0.11856,-0.81654 -0.0283,-1.05417 l -0.26701,-0.43204 -0.82005,0.70216 -0.82008,0.70217 0.21754,0.352 c 0.11967,0.19361 0.50141,0.35201 0.84836,0.35201 h 0.63082 z m -2.97902,-1.3772 -0.28562,-0.28562 -0.28561,0.28562 -0.28562,0.28561 h 0.57123 0.57124 z m -8.85417,-4.83024 c 0,-0.22173 -0.19281,-0.52229 -0.42844,-0.66792 l -0.42842,-0.26479 v 0.66793 0.66793 h 0.42842 c 0.23563,0 0.42844,-0.18142 0.42844,-0.40315 z m 49.48346,-0.45371 v -0.64264 l -1.17819,-0.13557 -1.17817,-0.13556 v 0.59969 c 0,0.86966 0.48596,1.22446 1.48188,1.0819 l 0.87448,-0.12518 z m -38.13011,0 0.26476,-0.42843 h -0.4537 c -0.24953,0 -0.45371,0.1928 -0.45371,0.42843 0,0.23564 0.085,0.42843 0.18894,0.42843 0.1039,0 0.30808,-0.19279 0.45371,-0.42843 z m -6.64065,-3.42742 c 0,-0.23564 -0.19277,-0.42843 -0.42841,-0.42843 -0.23564,0 -0.42844,0.19279 -0.42844,0.42843 0,0.23563 0.1928,0.42842 0.42844,0.42842 0.23564,0 0.42841,-0.19279 0.42841,-0.42842 z m 52.48246,-0.42843 c -0.14563,-0.23564 -0.44619,-0.42843 -0.66791,-0.42843 -0.22175,0 -0.40315,0.19279 -0.40315,0.42843 v 0.42843 h 0.66791 0.66794 z m -87.18513,-1.67398 c 3.45427,-0.42773 6.68671,-1.07524 11.99597,-2.40299 1.29601,-0.32411 3.32034,-0.80377 4.4985,-1.06593 1.17819,-0.26215 2.52772,-0.64842 2.999,-0.85836 1.13959,-0.50768 8.17607,-2.95342 10.06806,-3.49946 0.82473,-0.23802 1.68267,-0.60763 1.9065,-0.82137 0.22387,-0.21374 0.6767,-0.38862 1.00635,-0.38862 0.32961,0 1.3032,-0.30884 2.16355,-0.68632 0.86034,-0.37748 1.94984,-0.84894 2.42109,-1.04768 0.47128,-0.19874 1.82084,-0.78717 2.999,-1.30761 1.17819,-0.52045 2.38313,-0.94869 2.67769,-0.95166 0.29454,-0.003 0.53552,-0.12732 0.53552,-0.27635 0,-0.14902 0.72297,-0.52754 1.60663,-0.84115 4.15285,-1.47387 31.36688,-14.89028 32.23921,-15.89379 0.11782,-0.13554 1.37097,-0.88506 2.78479,-1.66559 2.41663,-1.33416 5.63238,-3.38017 12.96821,-8.25096 1.71292,-1.13732 3.17278,-2.06785 3.24417,-2.06785 0.23092,0 10.69853,-7.04441 13.39416,-9.01392 1.43856,-1.05105 3.14499,-2.29659 3.79203,-2.76786 8.36284,-6.09086 16.60951,-13.03867 19.55805,-16.47763 2.2465,-2.62016 6.36273,-8.6315 6.39522,-9.33955 0.008,-0.17431 0.38703,-1.08811 0.84233,-2.03065 0.45527,-0.94254 0.83431,-2.17294 0.8423,-2.73421 l 0.0145,-1.0205 -0.90003,-1.45628 -0.90004,-1.45628 -1.56342,-0.7911 -1.56345,-0.7911 -4.44047,-0.511 -4.44051,-0.511 -3.05699,0.47624 c -4.36459,0.67993 -8.83563,1.71668 -10.40503,2.41271 -0.74253,0.32931 -1.56189,0.59874 -1.82084,0.59874 -0.72562,0 -0.55999,0.64332 0.38608,1.4995 0.47128,0.42649 0.85686,1.05584 0.85686,1.39856 v 0.62311 l 1.6066,-0.27995 c 0.88363,-0.15397 3.43815,-0.45203 5.67669,-0.66236 l 4.07006,-0.38241 2.74243,0.25285 2.7424,0.25286 0.60709,-0.81554 0.60706,-0.81555 1.06979,1.28529 c 0.58838,0.7069 1.2355,1.69342 1.43806,2.19227 l 0.36828,0.90698 -0.34743,1.54038 -0.34742,1.54039 -1.29866,1.6227 c -0.71426,0.89248 -3.77504,4.08232 -6.80169,7.08851 l -5.50304,5.46582 -5.87992,4.38803 c -3.23397,2.41342 -7.72393,5.64118 -9.9777,7.17281 -2.25375,1.53163 -4.32888,2.98162 -4.61134,3.22219 -0.28247,0.24058 -1.57396,1.10182 -2.86997,1.91387 -1.29598,0.81205 -2.45274,1.57918 -2.57056,1.70473 -0.11781,0.12555 -0.59981,0.46024 -1.07108,0.74375 -0.47125,0.28351 -4.3271,2.67785 -8.56856,5.32075 -4.24143,2.6429 -8.96485,5.47167 -10.4965,6.28615 -1.53162,0.81449 -3.2223,1.75272 -3.75705,2.08497 -0.53475,0.33224 -2.84827,1.589 -5.14112,2.79281 -2.29288,1.2038 -4.84079,2.54646 -5.66203,2.98367 -0.82124,0.43722 -1.72093,0.79494 -1.99933,0.79494 -0.27839,0 -0.57044,0.1446 -0.64899,0.32133 -0.20635,0.46432 -4.48757,2.50002 -15.78044,7.50357 -1.91998,0.85068 -6.70359,2.76322 -12.63862,5.05304 -0.47127,0.18182 -1.91722,0.67592 -3.21323,1.098 -1.29598,0.42208 -2.54913,0.89817 -2.78477,1.05798 -0.23563,0.1598 -1.1032,0.42044 -1.92793,0.57919 -0.82474,0.15875 -1.88508,0.44891 -2.35636,0.6448 -0.47127,0.19589 -2.11,0.68793 -3.64164,1.09343 -1.53162,0.4055 -3.17037,0.89174 -3.64165,1.08054 -2.12071,0.84956 -9.33156,2.02984 -14.6744,2.40191 l -3.96369,0.27602 -2.35599,-0.74104 -2.35595,-0.74105 -0.90152,-1.13819 -0.90151,-1.13819 0.22471,-2.14214 0.22474,-2.14214 1.36485,-2.57057 c 0.75067,-1.41381 2.3372,-3.91528 3.5256,-5.55881 1.1884,-1.64354 2.17543,-3.18588 2.19339,-3.42743 0.06,-0.80716 -0.66058,-4.08081 -0.89826,-4.08081 -0.42441,0 -3.99267,4.1826 -5.68814,6.66748 -2.34707,3.43979 -3.87033,5.85284 -5.01595,7.94593 l -1.3154,2.40322 -0.42103,1.97406 -0.421,1.97407 0.32009,1.75049 0.32009,1.7505 1.01735,1.08773 c 1.26021,1.3474 2.10431,1.80955 4.6146,2.52648 l 1.97231,0.56329 4.4985,-0.15238 c 2.47417,-0.0838 6.13722,-0.3553 8.14014,-0.60331 z m 46.69867,-15.89158 c 0,-0.23563 0.20418,-0.42843 0.45371,-0.42843 h 0.4537 l -0.26477,0.42843 c -0.14562,0.23564 -0.3498,0.42843 -0.4537,0.42843 -0.10393,0 -0.18894,-0.19279 -0.18894,-0.42843 z m 9.17371,14.73588 0.67522,-0.25911 -0.20947,-0.33894 c -0.11523,-0.18642 0.0495,-0.83808 0.36594,-1.44812 l 0.57547,-1.10918 0.25829,0.25831 c 0.14208,0.14207 0.16761,0.86212 0.0568,1.60012 l -0.20159,1.34181 0.3497,-0.79128 0.34968,-0.79129 0.56782,0.68418 0.56782,0.68418 0.69728,-0.0338 0.69729,-0.0338 -0.53552,-0.21609 c -0.29456,-0.11885 -0.53554,-0.39282 -0.53554,-0.60882 v -0.39273 h 0.85685 0.85685 v -0.64264 -0.64264 h 0.59682 0.5968 l 0.24659,0.64264 0.24662,0.64264 h -0.62921 c -0.34605,0 -0.62918,0.1928 -0.62918,0.42843 v 0.42843 l 0.74975,-0.002 c 0.41236,-0.001 1.47336,-0.20335 2.35778,-0.44896 0.88445,-0.24562 2.1376,-0.51537 2.7848,-0.59944 1.45767,-0.18936 6.66869,-1.96674 6.96052,-2.3741 0.1178,-0.16447 0.74438,-0.42879 1.39237,-0.58738 l 1.17819,-0.28834 v -1.06291 -1.0629 h 0.42842 c 0.23563,0 0.42844,0.19279 0.42844,0.42843 v 0.42842 h 0.70932 c 0.3901,0 1.3412,-0.48198 2.11354,-1.07107 0.77235,-0.58909 1.60991,-1.07107 1.86127,-1.07107 0.25135,0 0.45701,-0.2431 0.45701,-0.54024 0,-0.29713 0.57838,-1.01798 1.28527,-1.6019 1.40112,-1.15735 1.61398,-1.91026 0.6904,-2.44217 -0.32718,-0.18844 -0.67098,-0.7282 -0.76401,-1.19947 l -0.16915,-0.85685 1.2028,-0.74975 c 1.13604,-0.70812 2.36643,-1.09348 1.34697,-0.42187 -0.26279,0.17312 -0.60558,0.72464 -0.76177,1.22561 l -0.28397,0.91086 0.85312,0.22309 0.85312,0.2231 0.47543,-0.57287 0.47543,-0.57287 -0.12766,-0.77529 c -0.14687,-0.89186 0.35065,-1.84637 0.96237,-1.84637 h 0.41822 l -0.45341,0.84722 -0.45342,0.84721 0.61942,-0.2377 c 0.3407,-0.13073 0.71927,-0.49785 0.84129,-0.81582 l 0.22183,-0.57812 -0.51004,-1.09912 -0.51003,-1.09912 -0.69977,-0.003 -0.6998,-0.003 -0.23794,-0.90989 -0.23794,-0.90989 -1.09731,0.27541 c -1.34218,0.33687 -1.37591,0.12359 -0.15967,-1.00951 l 0.93763,-0.87355 h -1.35261 -1.35262 l 0.24659,-0.64264 0.24662,-0.64264 h 1.02523 1.02523 v -0.40314 c 0,-0.22173 -0.17388,-0.51061 -0.38639,-0.64196 l -0.3864,-0.2388 -2.29129,1.54651 c -1.26019,0.85058 -2.77326,1.73224 -3.36236,1.95924 l -1.07105,0.41273 0.80348,0.59005 0.80349,0.59006 -0.22908,0.59692 -0.22905,0.59692 -1.31672,0.0374 -1.31673,0.0374 -0.25979,-0.42036 -0.25982,-0.42037 -0.57902,0.48056 -0.57904,0.48055 0.23458,0.61132 0.23458,0.61132 h -0.44897 c -0.24694,0 -0.57335,-0.20122 -0.72536,-0.44716 l -0.27635,-0.44716 -1.35552,0.87981 c -0.74554,0.48389 -2.2231,1.29369 -3.28348,1.79955 -1.06034,0.50586 -2.93962,1.41973 -4.17615,2.03082 l -2.24822,1.11107 v 0.53553 0.53554 h -1.07106 -1.07109 l -0.0138,0.74975 c -0.0169,0.92595 -0.98179,2.24924 -1.64021,2.24924 h -0.48831 v -0.81102 -0.81102 l 0.70397,-0.27013 c 0.38717,-0.14858 0.59669,-0.3774 0.46559,-0.5085 -0.1311,-0.1311 -0.73705,0.0884 -1.3466,0.48779 -0.60952,0.39938 -1.10823,0.58397 -1.10823,0.4102 0,-0.17377 -0.28707,-0.0777 -0.63794,0.21348 l -0.63791,0.52943 0.24554,0.39731 0.24556,0.39732 0.77639,-0.24642 0.77639,-0.24642 -0.0627,1.05353 -0.0627,1.05353 -1.22219,0.24462 -1.22219,0.24462 -0.44932,-0.2777 -0.44934,-0.2777 0.6767,-0.4948 0.67667,-0.49479 -0.30946,-0.50072 -0.30945,-0.50071 -1.90895,0.88118 c -1.04989,0.48465 -2.24369,1.05846 -2.65284,1.27513 -0.40918,0.21666 -1.02582,0.39393 -1.37033,0.39393 -0.34452,0 -1.14255,0.47837 -1.77342,1.06305 -0.63088,0.58467 -1.2994,0.96888 -1.48561,0.85379 -0.18622,-0.11509 -0.85241,-0.0139 -1.48043,0.22488 l -1.14186,0.43412 0.17883,0.5329 0.17881,0.5329 0.81997,5.3e-4 0.81997,5.3e-4 v 0.64208 0.64207 l -1.02852,-0.11349 -1.02848,-0.11349 -0.50954,-0.6968 -0.50951,-0.6968 -1.56808,0.29417 -1.56808,0.29417 v 0.45486 0.45485 l 0.68131,-0.26144 0.6813,-0.26145 0.4355,0.26916 0.43551,0.26916 -0.46943,0.29013 -0.46945,0.29013 2.62919,0.54306 2.62922,0.54305 0.35851,-0.56542 0.35851,-0.56542 0.007,0.53554 0.007,0.53553 h 1.13747 1.13747 l -0.70905,-0.78348 c -0.96933,-1.0711 -0.89271,-1.35866 0.36202,-1.35866 h 1.07109 l 0.0642,0.42843 c 0.0353,0.23564 0.0836,0.66942 0.10713,0.96396 l 0.0428,0.53554 1.92791,0.25401 c 1.06037,0.13971 1.96038,0.28431 2.00001,0.32133 0.0396,0.037 0.37592,-0.0493 0.74729,-0.19181 z m -1.03357,-1.02618 c 0,-0.23563 0.19278,-0.42843 0.42842,-0.42843 0.23563,0 0.42844,0.1928 0.42844,0.42843 0,0.23564 -0.19281,0.42843 -0.42844,0.42843 -0.23564,0 -0.42842,-0.19279 -0.42842,-0.42843 z m -2.31611,-1.2408 c -0.9643,-1.06554 -0.86098,-1.27752 0.60238,-1.23591 l 1.28529,0.0365 v 0.74582 0.74582 l -0.60237,0.23116 -0.60241,0.23116 z m 11.52732,0.38395 c 0.14562,-0.23564 0.3498,-0.42843 0.4537,-0.42843 0.10391,0 0.18894,0.19279 0.18894,0.42843 0,0.23563 -0.20418,0.42842 -0.45373,0.42842 h -0.45371 z m -5.35536,-0.82799 c 0,-0.21975 -0.39573,-0.52516 -0.87942,-0.67867 l -0.87942,-0.27912 0.50345,-0.60661 c 0.61098,-0.73617 1.25539,-0.78997 1.25539,-0.10481 0,0.27599 0.31907,0.85437 0.70903,1.28528 l 0.70906,0.78349 h -0.70906 c -0.38996,0 -0.70903,-0.1798 -0.70903,-0.39956 z m -10.7107,-0.70721 v -0.67835 l 0.50874,0.16959 c 0.27982,0.0933 0.58507,0.39852 0.67837,0.67834 l 0.16957,0.50876 h -0.67834 -0.67834 z m 19.27926,0.3356 c 0,-0.44341 0.92755,-1.37097 1.37097,-1.37097 0.18851,0 0.34274,0.38558 0.34274,0.85685 v 0.85686 h -0.85685 c -0.47128,0 -0.85686,-0.15423 -0.85686,-0.34274 z m -17.13714,-0.2999 c 0,-0.11782 0.0964,-0.21422 0.21423,-0.21422 0.11782,0 0.21421,0.0964 0.21421,0.21422 0,0.11782 -0.0964,0.21421 -0.21421,0.21421 -0.11782,0 -0.21423,-0.0964 -0.21423,-0.21421 z m 5.14115,0 c 0,-0.11782 0.0964,-0.21422 0.21423,-0.21422 0.11779,0 0.21421,0.0964 0.21421,0.21422 0,0.11782 -0.0964,0.21421 -0.21421,0.21421 -0.11782,0 -0.21423,-0.0964 -0.21423,-0.21421 z m 7.28329,-0.41498 v -0.6292 l 0.64264,0.24661 c 0.35343,0.13563 0.64262,0.41877 0.64262,0.62919 0,0.21043 -0.28919,0.38259 -0.64262,0.38259 h -0.64264 z m 2.30052,-0.33477 c 0.14208,-0.53018 0.26096,-1.10251 0.26419,-1.27184 l 0.006,-0.30787 0.64265,0.2466 c 0.99284,0.38099 0.26193,2.29707 -0.87622,2.29707 h -0.2948 z m 4.55433,-0.13777 v -1.10173 l -1.14081,0.13777 -1.1408,0.13777 -0.18018,-0.53554 -0.18018,-0.53553 h 0.72416 0.72419 l -0.26641,-0.69428 -0.26643,-0.69428 0.86281,0.22563 0.8628,0.22563 0.23993,-0.38821 c 0.13194,-0.21351 0.51773,-0.38821 0.85727,-0.38821 h 0.61735 v 0.64265 0.64264 h -0.85685 c -0.47127,0 -0.85685,0.15644 -0.85685,0.34764 0,0.1912 0.38558,0.76152 0.85685,1.26737 0.47128,0.50585 0.85685,1.12058 0.85685,1.36607 v 0.44634 h -0.85685 -0.85685 z m -9.58035,0.0307 c 0.13562,-0.35345 0.49154,-0.64264 0.79094,-0.64264 0.29941,0 0.78436,0.28919 1.0777,0.64264 l 0.53335,0.64264 h -1.32432 -1.32429 z m -10.34156,-0.21421 -0.31094,-0.50309 0.42844,-0.42843 0.42842,-0.42843 0.31093,0.50309 0.31092,0.50309 -0.42842,0.42843 -0.42844,0.42843 z m 3.44572,0.0296 -0.24648,-0.39882 0.37565,-0.23217 c 0.41429,-0.25605 0.92361,0.11495 0.92361,0.67279 0,0.48331 -0.74658,0.45367 -1.05278,-0.0418 z m 19.47519,-0.24382 c 0,-0.11781 0.0964,-0.21421 0.2142,-0.21421 0.11782,0 0.21421,0.0964 0.21421,0.21421 0,0.11782 -0.0964,0.21422 -0.21421,0.21422 -0.11782,0 -0.2142,-0.0964 -0.2142,-0.21422 z m -20.85017,-0.49983 0.28561,-0.28562 0.28562,0.28562 0.28562,0.28562 h -0.57124 -0.57123 z m 4.99832,0.0714 c 0,-0.11782 0.0964,-0.21422 0.21421,-0.21422 0.11781,0 0.2142,0.0964 0.2142,0.21422 0,0.11781 -0.0964,0.21421 -0.2142,0.21421 -0.11782,0 -0.21421,-0.0964 -0.21421,-0.21421 z m 5.42676,-0.0714 c -0.15711,-0.15709 -0.28562,-0.42823 -0.28562,-0.60253 v -0.31692 l 0.85686,0.22408 c 0.47127,0.12324 0.85685,0.39438 0.85685,0.60253 0,0.44265 -1.01245,0.50847 -1.42809,0.0928 z m -7.0762,-0.54982 c 0.0942,-0.28276 0.31112,-0.49965 0.48196,-0.48198 0.51229,0.053 0.41307,0.64063 -0.13922,0.82473 l -0.51411,0.17137 z m 5.44936,-0.95373 c 0.19359,-0.52332 0.57457,-1.02568 0.84659,-1.11636 l 0.49463,-0.16487 v 0.66327 0.66327 l -0.84661,0.45308 -0.84659,0.45309 z m 14.89813,0.2899 -0.6975,-0.6975 -0.43172,0.26681 -0.43172,0.26682 v -0.45372 -0.45371 h 1.26 1.26003 l 0.28784,0.46576 0.28786,0.46576 -0.41865,0.41864 -0.41865,0.41864 z m -22.76811,-0.21444 c 0.14563,-0.23564 0.44619,-0.42843 0.66791,-0.42843 0.22172,0 0.40315,0.19279 0.40315,0.42843 v 0.42843 h -0.66794 -0.66792 z m 10.7107,0 -0.26479,-0.42843 h 0.88215 0.88214 v 0.42843 c 0,0.23563 -0.27781,0.42843 -0.61738,0.42843 -0.33954,0 -0.73649,-0.1928 -0.88212,-0.42843 z m -8.99699,-0.42843 c 0.14562,-0.23564 0.36118,-0.42843 0.479,-0.42843 0.11782,0 0.0951,0.19279 -0.0506,0.42843 -0.14563,0.23563 -0.36118,0.42843 -0.47898,0.42843 -0.11782,0 -0.0951,-0.1928 0.0506,-0.42843 z m 24.2062,-0.59681 v -0.5968 l 0.73667,-0.2827 0.73668,-0.28269 -0.30453,0.30454 -0.30454,0.30455 0.47715,0.57496 0.47718,0.57495 h -0.90932 -0.90929 z m -13.28129,-0.26005 c 0,-0.23563 0.28919,-0.42842 0.64264,-0.42842 0.35346,0 0.64265,0.19279 0.64265,0.42842 0,0.23564 -0.28919,0.42843 -0.64265,0.42843 -0.35345,0 -0.64264,-0.19279 -0.64264,-0.42843 z m -1.2853,-0.21421 c 0,-0.11782 0.0964,-0.21421 0.21424,-0.21421 0.11782,0 0.2142,0.0964 0.2142,0.21421 0,0.11782 -0.0964,0.21421 -0.2142,0.21421 -0.11782,0 -0.21424,-0.0964 -0.21424,-0.21421 z m 16.87306,-0.81073 0.28041,-1.1172 h -0.82931 -0.82934 l -0.2499,-0.53553 -0.24992,-0.53554 -0.24188,0.51147 -0.24191,0.51147 -0.62423,-0.23954 -0.62421,-0.23954 0.97322,-0.98132 c 0.53528,-0.53973 1.22182,-1.28868 1.52567,-1.66433 0.61047,-0.75476 1.80392,-0.92558 1.80392,-0.25819 0,0.23364 -0.3856,0.66559 -0.85688,0.95991 -0.47124,0.29431 -0.85685,0.68153 -0.85685,0.86049 0,0.63497 0.75528,0.3101 1.86952,-0.80412 l 1.12948,-1.1295 v 0.62966 c 0,0.34631 -0.13885,0.76853 -0.30858,0.93826 -0.16973,0.16973 -0.25257,0.95899 -0.1841,1.75392 l 0.12454,1.44531 -0.94501,0.50576 -0.94504,0.50575 z m -18.58676,0.3823 c 0,-0.11782 0.0964,-0.21421 0.2142,-0.21421 0.11782,0 0.21424,0.0964 0.21424,0.21421 0,0.11782 -0.0964,0.21422 -0.21424,0.21422 -0.11779,0 -0.2142,-0.0964 -0.2142,-0.21422 z m 5.998,-0.21421 c 0,-0.23564 0.1928,-0.42843 0.42843,-0.42843 0.23564,0 0.42842,0.19279 0.42842,0.42843 0,0.23563 -0.19278,0.42843 -0.42842,0.42843 -0.23563,0 -0.42843,-0.1928 -0.42843,-0.42843 z m 1.28529,-0.16494 v -0.59337 l -1.09694,-0.71875 -1.09693,-0.71874 0.13295,-1.15135 0.13298,-1.15135 0.96398,-0.42291 c 0.53017,-0.23261 0.96396,-0.56999 0.96396,-0.74975 0,-0.17976 0.38558,-0.32684 0.85685,-0.32684 h 0.85685 v 0.64264 c 0,0.35346 0.17902,0.64265 0.39783,0.64265 0.21881,0 0.68702,-0.28919 1.04048,-0.64265 0.79996,-0.79996 1.13225,-0.81463 1.13225,-0.05 v 0.59267 l 0.85471,0.22351 0.85469,0.22351 0.26932,0.70179 0.26929,0.70179 -0.32581,0.30285 -0.32578,0.30284 -0.19127,-0.53553 c -0.1052,-0.29455 -0.46437,-0.53554 -0.79819,-0.53554 -0.33383,0 -0.60696,-0.19279 -0.60696,-0.42843 0,-0.23563 -0.18909,-0.42842 -0.42026,-0.42842 h -0.42026 l -0.28835,1.17817 c -0.15859,0.648 -0.49964,1.3354 -0.7579,1.52757 l -0.46958,0.34938 0.96398,-0.27115 0.96396,-0.27115 v 0.58583 c 0,0.64106 -0.82645,1.61406 -1.37096,1.61406 -0.18852,0 -0.34275,-0.31908 -0.34275,-0.70905 v -0.70904 l -0.78348,0.70904 c -0.95554,0.86475 -1.35866,0.89907 -1.35866,0.11568 z m 4.7127,-0.27694 v -0.8703 l 0.66112,-0.2537 c 0.36361,-0.13953 0.76483,-0.14999 0.89156,-0.0233 0.32195,0.32194 -0.63558,2.01755 -1.13932,2.01755 h -0.41336 z m 2.24904,0.33477 c 0.0981,-0.29454 0.4676,-0.59168 0.82116,-0.66031 l 0.64286,-0.12477 v 0.66031 0.66031 h -0.82116 -0.82116 z m -10.19257,-0.34983 c -0.15534,-0.25131 -0.17502,-0.56432 -0.0438,-0.69556 0.35242,-0.35245 1.56088,0.19772 1.56088,0.71062 0,0.58149 -1.15554,0.57002 -1.51712,-0.0151 z m -3.62402,-0.82835 v -0.42843 h 0.66791 0.66794 l -0.26479,0.42843 c -0.14563,0.23564 -0.4462,0.42843 -0.66792,0.42843 -0.22174,0 -0.40314,-0.19279 -0.40314,-0.42843 z m 20.13611,-0.64264 c 0,-0.11782 0.0964,-0.21421 0.21421,-0.21421 0.11782,0 0.21423,0.0964 0.21423,0.21421 0,0.11782 -0.0964,0.21421 -0.21423,0.21421 -0.11779,0 -0.21421,-0.0964 -0.21421,-0.21421 z m -17.50166,-0.90134 c -0.31832,-0.35999 -0.47942,-0.75386 -0.358,-0.87527 0.31485,-0.31486 2.00781,0.65399 2.00781,1.14904 0,0.62874 -0.99827,0.46308 -1.64981,-0.27377 z m 7.64781,0.2587 c 0,-0.23564 0.1928,-0.42843 0.42844,-0.42843 0.23564,0 0.42841,0.19279 0.42841,0.42843 0,0.23563 -0.19277,0.42843 -0.42841,0.42843 -0.23564,0 -0.42844,-0.1928 -0.42844,-0.42843 z m 4.00328,-1.49616 0.49522,-1.06773 0.74975,-0.003 c 0.41238,-0.002 0.74361,0.14125 0.73612,0.31798 -0.0283,0.66696 -1.17787,1.82082 -1.81411,1.82082 h -0.6622 z m 6.70742,0.3998 v -0.66792 l 0.42844,0.26478 c 0.23564,0.14563 0.42842,0.4462 0.42842,0.66793 0,0.22173 -0.19278,0.40314 -0.42842,0.40314 h -0.42844 z m -8.14011,-1.68843 c 0,-0.11781 0.0964,-0.21421 0.2142,-0.21421 0.11782,0 0.21421,0.0964 0.21421,0.21421 0,0.11782 -0.0964,0.21422 -0.21421,0.21422 -0.11782,0 -0.2142,-0.0964 -0.2142,-0.21422 z m 7.28326,-0.21421 c 0,-0.23564 0.1928,-0.42843 0.42844,-0.42843 0.23564,0 0.42841,0.19279 0.42841,0.42843 0,0.23564 -0.19277,0.42843 -0.42841,0.42843 -0.23564,0 -0.42844,-0.19279 -0.42844,-0.42843 z m 3.85585,-0.42843 c 0,-0.23563 0.19281,-0.42843 0.42844,-0.42843 0.23564,0 0.42842,0.1928 0.42842,0.42843 0,0.23564 -0.19278,0.42843 -0.42842,0.42843 -0.23563,0 -0.42844,-0.19279 -0.42844,-0.42843 z m -7.7117,-0.85685 c 0,-0.23564 0.18142,-0.42843 0.40314,-0.42843 0.22173,0 0.52229,0.19279 0.66794,0.42843 l 0.26477,0.42842 h -0.66791 -0.66794 z m 5.00999,-0.27398 c -0.34229,-0.34228 0.0446,-1.01131 0.58486,-1.01131 0.22172,0 0.40315,0.28919 0.40315,0.64264 0,0.66253 -0.50554,0.85116 -0.98801,0.36867 z m -8.86584,-0.7971 c 0,-0.35345 0.1928,-0.64264 0.42844,-0.64264 0.23563,0 0.42841,0.28919 0.42841,0.64264 0,0.35346 -0.19278,0.64265 -0.42841,0.64265 -0.23564,0 -0.42844,-0.28919 -0.42844,-0.64265 z m 6.85485,0 c 0,-0.35345 0.1928,-0.64264 0.42844,-0.64264 0.23564,0 0.42841,0.28919 0.42841,0.64264 0,0.35346 -0.19277,0.64265 -0.42841,0.64265 -0.23564,0 -0.42844,-0.28919 -0.42844,-0.64265 z m 4.28429,-1.49949 c 0,-0.23564 0.19278,-0.42843 0.42841,-0.42843 0.23564,0 0.42844,0.19279 0.42844,0.42843 0,0.23563 -0.1928,0.42842 -0.42844,0.42842 -0.23563,0 -0.42841,-0.19279 -0.42841,-0.42842 z m -4.00693,-0.30356 c 0.27035,-0.0939 0.59629,-0.57125 0.7243,-1.06073 l 0.23272,-0.88996 0.71909,0.7191 c 0.85582,0.85581 0.78885,0.94721 -0.88241,1.20449 -0.70689,0.10882 -1.06408,0.12102 -0.7937,0.0271 z m -0.70578,-1.19594 c 0,-0.11782 0.0964,-0.21422 0.21421,-0.21422 0.11782,0 0.21421,0.0964 0.21421,0.21422 0,0.11782 -0.0964,0.21421 -0.21421,0.21421 -0.11782,0 -0.21421,-0.0964 -0.21421,-0.21421 z m 3.64162,-0.21422 c 0.14563,-0.23563 0.4462,-0.42842 0.66794,-0.42842 0.22173,0 0.40315,0.19279 0.40315,0.42842 v 0.42843 h -0.66794 -0.66791 z m -3.2132,-1.49949 v -0.64265 h 0.64264 0.64265 v 0.64265 0.64264 h -0.64265 -0.64264 z m 23.04944,15.98037 c 0.28276,-0.28277 0.51411,-0.95387 0.51411,-1.49134 v -0.97722 l -1.13739,-0.28547 -1.13736,-0.28546 -0.68345,0.43033 c -0.37589,0.23668 -0.74755,0.75631 -0.82592,1.15474 l -0.14248,0.72441 0.51625,0.62206 0.51626,0.62206 h 0.93295 c 0.5131,0 1.16427,-0.23135 1.44703,-0.51411 z m -106.14882,-6.17412 c -0.74711,-0.8509 -1.53347,-2.00766 -1.7475,-2.57057 -0.538,-1.41502 -0.89815,-1.28796 -2.04597,0.72176 l -0.993,1.73864 0.49233,0.59323 0.49237,0.59325 2.21435,0.15614 c 1.2179,0.0859 2.37895,0.1918 2.58008,0.23539 0.20114,0.0436 -0.24556,-0.61694 -0.99266,-1.46784 z m 19.44777,-4.83076 c 0.12912,-0.20893 0.90353,-0.50532 1.72091,-0.65866 0.81737,-0.15334 2.02445,-0.5596 2.68239,-0.90279 0.65797,-0.34319 1.48548,-0.62589 1.83894,-0.62822 0.35345,-0.002 1.23428,-0.36503 1.95739,-0.80599 0.7231,-0.44096 1.76667,-0.94517 2.31904,-1.12049 0.55235,-0.17531 1.69585,-0.62146 2.54109,-0.99144 0.84526,-0.36998 1.63322,-0.69255 1.75104,-0.7168 0.11781,-0.0243 1.17818,-0.47758 2.35635,-1.00739 1.17819,-0.52981 2.67232,-1.19531 3.32031,-1.47891 0.64801,-0.28358 1.17819,-0.66134 1.17819,-0.83945 0,-0.17812 0.24098,-0.32472 0.53554,-0.32578 0.29453,-0.001 2.36707,-0.86776 4.6056,-1.926 2.23854,-1.05823 4.31104,-1.92493 4.6056,-1.92599 0.29454,-0.001 0.53552,-0.14766 0.53552,-0.32578 0,-0.17811 0.62659,-0.58488 1.3924,-0.90392 2.58286,-1.07603 9.09881,-4.42656 9.78048,-5.02917 0.372,-0.32885 0.77719,-0.59791 0.90043,-0.59791 0.12321,0 1.93955,-1.06129 4.03632,-2.35843 2.09677,-1.29714 4.21653,-2.53428 4.71062,-2.74922 0.49405,-0.21493 2.1844,-1.17796 3.75629,-2.14007 1.57189,-0.9621 3.0313,-1.74927 3.24315,-1.74927 0.21186,0 0.44945,-0.16111 0.52798,-0.35802 0.0786,-0.19691 1.20317,-1.08849 2.49917,-1.98128 l 2.35636,-1.62325 -0.91882,0.2821 -0.91882,0.28211 -0.68778,-0.68779 c -0.88601,-0.88601 -0.8662,-1.1659 0.12639,-1.78579 l 0.81417,-0.50846 1.00664,0.94812 1.00666,0.94813 2.999,-2.15731 c 1.64944,-1.18651 3.52917,-2.42728 4.17716,-2.75725 1.33199,-0.67828 1.3943,-0.85908 0.64265,-1.86478 l -0.53555,-0.71653 -0.64264,0.41387 -0.64265,0.41387 0.74975,0.007 0.74975,0.007 v 0.42842 c 0,0.60956 -0.6077,0.53338 -2.3418,-0.29356 l -1.51405,-0.72199 v -0.77751 -0.7775 h 0.61738 c 0.33953,0 0.7131,-0.15493 0.83013,-0.34428 l 0.21277,-0.34428 -1.44274,-0.0409 -1.44272,-0.0409 0.23,0.59939 0.23,0.59938 h -0.68847 -0.68847 v -0.43424 c 0,-0.35498 0.4133,-1.24328 1.17554,-2.52642 0.0575,-0.0967 0.5193,0.19245 1.02629,0.64264 l 0.92181,0.81853 -0.23191,-1.25547 -0.2319,-1.25546 0.4514,-0.72282 0.45141,-0.72282 -0.26837,-0.69939 c -0.26344,-0.68653 -1.20092,-1.00833 -1.10141,-0.37807 0.0279,0.17672 0.0279,0.84471 0,1.48442 l -0.0507,1.1631 -0.89355,0.47822 c -1.04095,0.5571 -1.63762,0.19801 -0.89869,-0.5409 0.27882,-0.27883 0.50697,-0.88701 0.50697,-1.35151 0,-0.4645 0.31906,-1.19711 0.70903,-1.62803 l 0.70906,-0.78348 -0.77782,-0.85949 -0.77783,-0.85948 0.27927,-0.27927 0.27927,-0.27928 -0.47715,-0.57495 c -0.6331,-0.76282 -1.22912,-0.72999 -1.22912,0.0677 v 0.64265 h 0.4537 0.45371 l -0.29305,0.47417 -0.29305,0.47416 -0.34222,-0.55372 -0.34221,-0.55373 -0.65653,0.54487 -0.65654,0.54487 -0.45419,-0.2807 c -0.24979,-0.15439 -0.36282,-0.42849 -0.25119,-0.60912 l 0.20296,-0.32842 -1.37417,0.25092 c -1.45904,0.26641 -3.30207,1.30546 -3.30207,1.86163 v 0.33353 l 1.07106,-0.26882 1.07108,-0.26882 v 0.68909 0.68908 h -0.85685 c -1.32974,0 -0.7189,1.19434 0.92993,1.8183 l 0.71572,0.27084 -0.11356,0.77625 -0.11355,0.77625 -0.64389,0.12593 -0.64387,0.12593 -0.74348,-1.94675 c -0.40891,-1.07071 -0.9203,-1.94675 -1.13646,-1.94675 -0.71911,0 -1.03701,0.21006 -0.90721,0.59946 0.0706,0.21189 0.0209,0.66523 -0.11035,1.00743 l -0.23876,0.62219 -0.83937,-1.00743 -0.83936,-1.00743 -0.0143,0.74975 c -0.008,0.41236 0.13999,0.74975 0.32851,0.74975 h 0.34274 v 1.4995 1.49949 h -0.51112 c -0.28112,0 -0.62209,0.28919 -0.75774,0.64265 l -0.24659,0.64264 h -0.66953 -0.66956 l -0.25368,-0.66112 c -0.35187,-0.91696 0.13425,-1.27896 0.88299,-0.65755 l 0.62312,0.51714 0.50012,-0.9345 0.50014,-0.93451 -0.66574,-0.66574 -0.66575,-0.66575 -2.28489,1.51708 c -1.25669,0.83439 -3.24122,2.34868 -4.4101,3.36507 l -2.12524,1.848 0.12333,0.99229 0.12332,0.9923 h -0.65884 -0.65887 v -0.64265 c 0,-0.9112 -0.29003,-0.82195 -2.51941,0.77528 -1.0885,0.77985 -2.55746,1.71675 -3.26438,2.08199 -0.70689,0.36524 -2.41342,1.26951 -3.79224,2.0095 -1.37883,0.74 -2.77657,1.34544 -3.10611,1.34544 -0.32951,0 -0.59915,0.1928 -0.59915,0.42843 0,0.23564 0.27115,0.42843 0.60254,0.42843 h 0.60254 l -0.22408,0.85686 c -0.20579,0.78695 -1.04635,1.27085 -0.93025,0.53553 0.0279,-0.17672 0.0279,-0.56231 0,-0.85685 l -0.0507,-0.53554 h -0.64844 c -0.35666,0 -0.98322,0.18603 -1.39239,0.4134 -0.40915,0.22737 -1.70789,0.82941 -2.88608,1.33788 -1.17819,0.50846 -3.75182,1.67197 -5.7192,2.58559 -1.96739,0.91362 -3.80858,1.66112 -4.0915,1.66112 -0.28294,0 -0.69757,0.16745 -0.92143,0.3721 -0.22384,0.20465 -1.37097,0.70702 -2.54913,1.11638 -2.24896,0.78141 -2.90976,1.04111 -5.35535,2.1047 -2.26378,0.98451 -5.91034,2.37596 -8.78279,3.35132 -1.4138,0.48007 -2.75373,1.04187 -2.97757,1.24846 -0.22387,0.20658 -0.83468,0.37561 -1.35737,0.37561 -1.29603,0 -2.30571,0.42655 -2.30571,0.97409 v 0.454 l 0.28192,-0.2819 0.28188,-0.2819 0.57497,0.47717 c 0.31623,0.26244 0.57496,0.66884 0.57496,0.90311 v 0.42593 l -0.85688,-0.22407 -0.85685,-0.22407 v 0.38831 0.38832 h 1.28529 1.2853 v 0.42843 0.42843 h -0.83159 c -0.45736,0 -0.94588,0.18495 -1.08558,0.411 l -0.254,0.411 0.54599,0.87428 c 0.3003,0.48086 0.7888,0.87429 1.08559,0.87429 h 0.53959 v 0.55695 c 0,0.30633 -0.21278,0.76973 -0.47284,1.02979 l -0.47281,0.47282 0.45979,0.79104 0.4598,0.79104 0.013,-0.73631 0.013,-0.7363 0.64264,0.24661 c 0.87217,0.33469 0.81166,1.27661 -0.10713,1.66756 l -0.74975,0.31903 1.03931,0.27416 c 0.57163,0.15079 1.11787,0.50984 1.21388,0.79789 l 0.17458,0.52371 h -0.70721 -0.70723 l 0.28908,0.96397 c 0.15899,0.53018 0.55756,1.24626 0.88572,1.5913 l 0.59666,0.62734 v -0.73445 c 0,-0.85859 0.47424,-0.9457 1.1996,-0.22033 0.77525,0.77526 0.62188,1.19582 -0.44985,1.23342 l -0.96395,0.0338 0.53551,0.21609 c 0.29457,0.11885 0.53555,0.48921 0.53555,0.82303 0,0.67302 0.67453,0.82015 1.04105,0.22708 z m 0.24424,-2.0071 c 0,-0.70983 1.19192,-2.13348 1.5154,-1.81001 0.26411,0.2641 -0.80087,2.47582 -1.19409,2.47991 -0.17672,0.002 -0.32131,-0.29961 -0.32131,-0.6699 z m 1.63338,-0.0478 c 0.30927,-0.12376 0.67879,-0.10854 0.82116,0.0338 l 0.25884,0.25884 -0.82116,-0.0338 -0.82116,-0.0338 z m 1.36562,-0.56419 c 0,-0.23564 0.28919,-0.42843 0.64264,-0.42843 0.35346,0 0.64262,0.19279 0.64262,0.42843 0,0.23564 -0.28916,0.42843 -0.64262,0.42843 -0.35345,0 -0.64264,-0.19279 -0.64264,-0.42843 z m 2.82773,-1.48084 c -0.26,-1.03595 -1.11403,-1.55322 -1.11403,-0.67474 v 0.41498 l -0.64264,-0.24661 -0.64265,-0.2466 v -0.64265 -0.64264 l 0.62894,0.24134 0.62892,0.24134 0.2532,-0.40971 c 0.45956,-0.74355 0.96928,-0.42814 1.42616,0.88249 0.60807,1.74427 0.61762,1.87853 0.14505,2.03605 l -0.40942,0.13648 z m -7.53388,0.0884 c 0.004,-0.29455 0.18169,-0.81233 0.39577,-1.15063 l 0.3892,-0.61509 0.58587,0.4862 0.58584,0.48621 0.52149,-0.83508 0.52152,-0.83507 h 0.67472 0.67471 l -0.17664,0.53553 c -0.0971,0.29455 -0.61142,0.7542 -1.14284,1.02146 -0.53141,0.26725 -1.18131,0.70103 -1.44425,0.96396 -0.26292,0.26292 -0.72866,0.47804 -1.035,0.47804 h -0.55695 z m 1.38581,-2.7472 -0.53551,-0.2161 v -0.75475 -0.75475 l 0.78348,-0.70904 c 0.4309,-0.38998 1.10569,-0.70905 1.4995,-0.70905 h 0.71602 v 1.00467 1.00467 l -0.78349,0.70904 c -0.83293,0.7538 -0.8532,0.75893 -1.68,0.42531 z m 8.35711,0.0366 c -0.14576,-0.14576 -0.16129,-0.53536 -0.0345,-0.86578 l 0.23054,-0.60075 h 0.62822 0.62823 l -0.13854,0.71424 c -0.14867,0.76668 -0.88053,1.1857 -1.31394,0.75229 z m 5.67393,-1.03811 v -0.85685 h 0.42842 0.42844 v 0.85685 0.85686 h -0.42844 -0.42842 z m -1.7137,0.21422 c 0,-0.11782 0.0964,-0.21422 0.2142,-0.21422 0.11782,0 0.21421,0.0964 0.21421,0.21422 0,0.11782 -0.0964,0.21421 -0.21421,0.21421 -0.11782,0 -0.2142,-0.0964 -0.2142,-0.21421 z m -8.56859,-0.61736 c 0,-0.22173 0.19061,-0.52093 0.42352,-0.66489 l 0.42355,-0.26176 -0.25517,0.6649 c -0.2848,0.74222 -0.5919,0.87801 -0.5919,0.26175 z m 12.95995,-0.13239 c 0.0982,-0.29455 0.43559,-0.53554 0.74975,-0.53554 0.3142,0 0.65159,0.24099 0.74975,0.53554 l 0.17852,0.53553 h -0.92827 -0.92826 z m -20.67165,-1.60661 c 0.25222,-0.47127 0.66521,-0.85685 0.91776,-0.85685 h 0.45921 l -0.26006,0.67768 c -0.14303,0.37273 -0.26006,0.75831 -0.26006,0.85685 0,0.0985 -0.29596,0.17918 -0.6577,0.17918 h -0.65773 z m 18.85085,0.22929 v -0.62757 l 0.88061,-0.47128 c 0.48432,-0.25921 1.06571,-0.40959 1.29196,-0.33417 l 0.41137,0.13712 -0.67363,0.96174 -0.67363,0.96173 h -0.61833 -0.61835 z m 4.7127,-0.41822 c 0,-1.01558 0.51906,-1.71978 0.94999,-1.28885 0.33684,0.33685 -0.15219,2.33464 -0.5715,2.33464 h -0.37849 z m -13.13847,-0.0967 0.28562,-0.28561 0.28562,0.28561 0.28562,0.28562 h -0.57124 -0.57123 z m 6.28362,-0.35702 c 0,-0.35345 0.1928,-0.64264 0.42844,-0.64264 0.23564,0 0.42841,0.28919 0.42841,0.64264 0,0.35345 -0.19277,0.64264 -0.42841,0.64264 -0.23564,0 -0.42844,-0.28919 -0.42844,-0.64264 z m 5.14114,0.21422 v -0.57124 l 0.28562,0.28561 0.28562,0.28563 -0.28562,0.28561 -0.28562,0.28562 z m -15.4234,-0.66793 v -0.66793 l 0.42841,0.26478 c 0.23564,0.14563 0.42844,0.4462 0.42844,0.66793 0,0.22173 -0.1928,0.40315 -0.42844,0.40315 h -0.42841 z m -5.31112,-0.0733 c -0.49969,-0.49969 -0.25043,-0.97251 0.51271,-0.97251 0.42415,0 0.98036,-0.2092 1.23606,-0.46489 l 0.46489,-0.46488 1.37433,0.71069 c 0.75586,0.39088 1.27307,0.81194 1.14932,0.93569 -0.33427,0.33428 -4.4373,0.55592 -4.73731,0.2559 z m -1.97218,-0.73301 c 0,-0.74666 0.7025,-1.24233 1.26659,-0.89371 l 0.40971,0.25322 -0.24135,0.62893 c -0.13272,0.3459 -0.50988,0.62892 -0.83813,0.62892 h -0.59682 z m 10.71071,-0.48513 v -1.10248 l 0.74975,0.1429 0.74975,0.1429 0.13689,0.95958 0.13692,0.95959 h -0.88664 -0.88667 z m 15.85185,0.67406 c 0,-0.23564 0.28919,-0.42843 0.64264,-0.42843 0.35346,0 0.64265,0.19279 0.64265,0.42843 0,0.23564 -0.28919,0.42843 -0.64265,0.42843 -0.35345,0 -0.64264,-0.19279 -0.64264,-0.42843 z m 2.999,0.21421 c 0,-0.11781 0.0964,-0.21421 0.2142,-0.21421 0.11782,0 0.21421,0.0964 0.21421,0.21421 0,0.11782 -0.0964,0.21422 -0.21421,0.21422 -0.11782,0 -0.2142,-0.0964 -0.2142,-0.21422 z m -13.28129,-1.07107 v -0.85685 h 0.57126 c 0.31416,0 0.69807,0.12685 0.85312,0.2819 l 0.28191,0.2819 -0.47717,0.57495 c -0.26244,0.31623 -0.64635,0.57496 -0.85315,0.57496 h -0.37597 z m 4.23357,0.52209 c -0.0279,-0.16933 -0.0279,-0.45247 0,-0.62919 0.0279,-0.17673 -0.28848,-0.32132 -0.70308,-0.32132 h -0.7538 l -0.50257,-0.80474 -0.50255,-0.80474 1.04539,-0.90898 c 1.27397,-1.10769 1.74289,-1.13826 2.2728,-0.14816 l 0.40717,0.76082 -0.46056,0.82297 -0.46056,0.82297 0.49688,0.16563 c 0.69557,0.23186 0.61905,0.81253 -0.14576,1.10601 l -0.64264,0.24661 z m 2.62128,-0.30787 v -0.70547 l 0.74975,0.14439 0.74975,0.14438 -0.0845,0.42256 c -0.0465,0.23241 -0.38386,0.4849 -0.74975,0.56109 l -0.66529,0.13852 z m 8.14014,-0.21422 c 0,-0.23563 0.1928,-0.42842 0.42844,-0.42842 0.23564,0 0.42842,0.19279 0.42842,0.42842 0,0.23564 -0.19278,0.42843 -0.42842,0.42843 -0.23564,0 -0.42844,-0.19279 -0.42844,-0.42843 z m -28.87329,-0.73984 c -0.13883,-0.13882 -0.0254,-0.52581 0.25188,-0.86 l 0.50427,-0.6076 -0.6115,-0.37794 -0.61153,-0.37793 0.52183,-0.52183 0.52184,-0.52184 0.80502,0.72854 0.80503,0.72853 0.70458,-0.27038 0.70461,-0.27038 v 0.90269 0.9027 h -0.64264 c -0.35346,0 -0.64265,-0.19279 -0.64265,-0.42843 0,-0.23563 -0.19278,-0.42843 -0.42841,-0.42843 -0.23564,0 -0.42844,0.26857 -0.42844,0.59681 0,0.64332 -1.03992,1.21946 -1.45389,0.80549 z m 26.14827,0.0142 c -0.4825,-0.48249 -0.29385,-0.98802 0.36867,-0.98802 0.35346,0 0.64265,0.18141 0.64265,0.40315 0,0.54023 -0.66903,0.92715 -1.01132,0.58487 z m 4.86717,-0.34538 c 0,-0.11781 0.0964,-0.21421 0.2142,-0.21421 0.11782,0 0.21424,0.0964 0.21424,0.21421 0,0.11782 -0.0964,0.21422 -0.21424,0.21422 -0.11781,0 -0.2142,-0.0964 -0.2142,-0.21422 z m -32.50449,-0.78929 -0.55525,-0.66904 0.16123,-0.77033 0.16124,-0.77034 0.54457,0.98772 c 0.29953,0.54324 0.47683,1.19096 0.39404,1.43937 l -0.15057,0.45166 z m 13.31868,0.0805 c 0.22238,-0.66711 1.18086,-0.78393 1.21446,-0.14802 0.0124,0.23563 -0.29895,0.49504 -0.69199,0.57645 l -0.71461,0.14802 z m 17.10793,0.0876 c 0.0942,-0.28276 0.31115,-0.49965 0.48199,-0.48198 0.51226,0.053 0.41304,0.64063 -0.13925,0.82472 l -0.51411,0.17138 z m 4.22002,-0.21035 v -0.66793 h 0.42842 c 0.23564,0 0.42844,0.18142 0.42844,0.40315 0,0.22173 -0.1928,0.5223 -0.42844,0.66792 l -0.42842,0.26479 z m -22.7067,-1.40237 v -1.16288 l 0.69334,0.69334 0.69335,0.69333 -0.2902,0.46954 c -0.15962,0.25825 -0.47162,0.46954 -0.69334,0.46954 h -0.40315 z m 10.7864,0.4976 c 0.0762,-0.3659 0.32867,-0.70329 0.56108,-0.74975 l 0.42257,-0.0845 0.14438,0.74975 0.14438,0.74975 h -0.70546 -0.70548 z m 10.2066,0.26213 c 0,-0.22173 0.19277,-0.5223 0.42841,-0.66793 l 0.42844,-0.26478 v 0.66793 0.66792 h -0.42844 c -0.23564,0 -0.42841,-0.18141 -0.42841,-0.40314 z m -16.90032,-0.41712 -0.25079,-0.40582 0.40581,-0.2508 0.4058,-0.25081 0.25082,0.40582 0.2508,0.40581 -0.40582,0.25081 -0.40582,0.2508 z m 13.04444,-0.89345 c 0,-0.23564 0.28919,-0.42843 0.64265,-0.42843 0.35345,0 0.64264,0.19279 0.64264,0.42843 0,0.23563 -0.28919,0.42843 -0.64264,0.42843 -0.35346,0 -0.64265,-0.1928 -0.64265,-0.42843 z m 6.47139,-0.16003 -0.48837,-0.58846 1.03929,-0.68096 1.03925,-0.68096 0.47511,0.57248 0.47512,0.57247 -0.26744,0.69694 -0.26745,0.69695 h -0.75856 c -0.41722,0 -0.97832,-0.26481 -1.24695,-0.58846 z m -28.3128,-0.26319 -0.62703,-0.38754 0.7562,-0.29019 0.75623,-0.29019 0.27427,0.27428 0.27429,0.27429 -0.40346,0.40344 -0.40344,0.40345 z m 31.69526,-0.005 v -0.57124 l 0.28562,0.28562 0.28561,0.28562 -0.28561,0.28562 -0.28562,0.28561 z m -36.84482,-0.42843 v -0.42843 h 0.85686 0.85685 v 0.42843 0.42843 h -0.85685 -0.85686 z m 13.06706,0 c 0.14563,-0.23564 0.45757,-0.42843 0.69321,-0.42843 h 0.42844 l -0.2648,0.42843 c -0.14562,0.23563 -0.45757,0.42843 -0.69321,0.42843 h -0.42841 z m -1.4995,-0.85686 c 0,-0.23563 0.1928,-0.42843 0.42844,-0.42843 0.23564,0 0.42841,0.1928 0.42841,0.42843 0,0.23564 -0.19277,0.42843 -0.42841,0.42843 -0.23564,0 -0.42844,-0.19279 -0.42844,-0.42843 z m 16.06606,0 c -0.14563,-0.23563 -0.15386,-0.6079 -0.0183,-0.82725 l 0.24649,-0.39882 -0.41672,-0.25754 -0.4167,-0.25754 0.24829,-0.64703 0.24828,-0.64703 0.48276,0.16092 c 0.26551,0.0885 0.4857,0.33764 0.4893,0.55364 0.004,0.216 0.16528,0.64295 0.3593,0.94878 l 0.35272,0.55605 -0.23874,0.62212 c -0.27567,0.71838 -0.95186,0.81637 -1.3367,0.1937 z m 10.92493,-0.85685 c 0.54338,-0.47127 1.15126,-0.85686 1.35083,-0.85686 0.19958,0 0.36288,0.38559 0.36288,0.85686 v 0.85685 h -1.35083 -1.35086 z m -5.56958,-0.0971 c 0,-0.65869 0.83002,-1.6166 1.40078,-1.6166 h 0.37253 l -0.13689,0.95959 -0.13692,0.95959 -0.74975,0.1429 -0.74975,0.14289 z m -19.67386,-0.58123 0.0338,-0.82115 0.22503,0.56231 c 0.12374,0.30927 0.10853,0.67879 -0.0338,0.82115 l -0.25884,0.25885 z m 5.53574,-0.17851 c 0,-0.23564 0.1814,-0.42843 0.40315,-0.42843 0.22172,0 0.52228,0.19279 0.66791,0.42843 l 0.2648,0.42843 h -0.66794 -0.66792 z m -7.4975,-0.42843 c 0.14563,-0.23563 0.34981,-0.42843 0.45371,-0.42843 0.10393,0 0.18894,0.1928 0.18894,0.42843 0,0.23564 -0.20418,0.42843 -0.45371,0.42843 h -0.45373 z m 3.64165,0 c 0,-0.23563 0.19277,-0.42843 0.42841,-0.42843 0.23564,0 0.42844,0.1928 0.42844,0.42843 0,0.23564 -0.1928,0.42843 -0.42844,0.42843 -0.23564,0 -0.42841,-0.19279 -0.42841,-0.42843 z m 23.56355,-0.40314 c 0,-0.22173 0.19278,-0.5223 0.42842,-0.66793 l 0.42844,-0.26478 v 0.66792 0.66793 h -0.42844 c -0.23564,0 -0.42842,-0.18141 -0.42842,-0.40314 z m 4.07006,-0.75921 c -0.47127,-0.11336 -1.04,-0.38018 -1.26386,-0.59295 l -0.40701,-0.38684 h 1.37097 c 0.75403,0 1.51294,-0.0482 1.68642,-0.10711 0.17352,-0.0589 0.38042,0.23028 0.45985,0.64265 l 0.14438,0.74975 -0.56695,-0.0497 c -0.31181,-0.0273 -0.95252,-0.14245 -1.4238,-0.2558 z m 3.64165,-0.12293 v -0.57124 l 0.28561,0.28562 0.28562,0.28562 -0.28562,0.28561 -0.28561,0.28563 z m -10.71071,-0.42843 v -0.57124 l 0.28562,0.28562 0.28562,0.28562 -0.28562,0.28562 -0.28562,0.28562 z m 3.53452,-0.71405 -0.53552,-0.21421 v -0.75239 -0.75238 l 1.08551,-0.49459 1.0855,-0.4946 0.26797,0.69827 0.26795,0.69827 -0.42011,0.66602 c -0.4822,0.76445 -0.98803,0.95092 -1.7513,0.64561 z m -18.95795,-0.57123 c 0,-0.23564 0.28919,-0.42843 0.64264,-0.42843 0.35346,0 0.64265,0.19279 0.64265,0.42843 0,0.23563 -0.28919,0.42842 -0.64265,0.42842 -0.35345,0 -0.64264,-0.19279 -0.64264,-0.42842 z m 2.00353,-0.1717 -0.25239,-0.65772 0.38013,-0.23492 0.3801,-0.23493 0.29218,0.47275 0.29218,0.47275 -0.4199,0.41989 -0.41992,0.4199 z m 7.50401,0.13956 c 0.0845,-0.2533 0.33668,-0.46056 0.56054,-0.46056 0.22384,0 0.47609,0.20726 0.56052,0.46056 l 0.15351,0.46056 h -0.71403 -0.71406 z m 3.1311,-0.39629 c 0.14563,-0.23564 0.45757,-0.42843 0.69321,-0.42843 h 0.42844 l -0.2648,0.42843 c -0.14562,0.23563 -0.45757,0.42843 -0.6932,0.42843 h -0.42842 z m -4.4985,-1.25387 v -0.88827 h 0.88829 0.88826 l -0.14343,0.74482 -0.14346,0.74484 -0.74483,0.14344 -0.74483,0.14344 z m 2.14215,-0.018 v -0.41498 l 0.64264,0.2466 c 0.35346,0.13564 0.64265,0.32238 0.64265,0.41499 0,0.0926 -0.28919,0.16837 -0.64265,0.16837 -0.35345,0 -0.64264,-0.18674 -0.64264,-0.41498 z m -7.51078,-0.89182 -0.28673,-0.46392 0.26426,-0.26425 0.26424,-0.26426 0.45863,0.45862 0.45861,0.45862 -0.43614,0.26956 -0.43617,0.26955 z m 10.24887,-0.15987 -0.29239,-0.76195 0.59439,-0.36734 0.59438,-0.36735 0.41365,0.41365 0.41365,0.41364 -0.71564,0.71565 -0.71565,0.71564 z m 4.83452,0.32791 -0.28189,-0.2819 0.47715,-0.57495 c 0.26244,-0.31623 0.64635,-0.57496 0.85315,-0.57496 h 0.37598 v 0.85686 0.85686 h -0.57124 c -0.31419,0 -0.6981,-0.12686 -0.85315,-0.28191 z m 6.13709,-0.57495 c 0,-0.23564 0.1928,-0.42843 0.42844,-0.42843 0.23561,0 0.42841,0.19279 0.42841,0.42843 0,0.23564 -0.1928,0.42843 -0.42841,0.42843 -0.23564,0 -0.42844,-0.19279 -0.42844,-0.42843 z m 1.71371,-0.21421 c 0,-0.35346 0.1928,-0.64265 0.42844,-0.64265 0.23563,0 0.42841,0.28919 0.42841,0.64265 0,0.35345 -0.19278,0.64264 -0.42841,0.64264 -0.23564,0 -0.42844,-0.28919 -0.42844,-0.64264 z m 4.28429,0.28061 c 0,-0.19911 0.39013,-0.7151 0.86699,-1.14663 l 0.86696,-0.78461 0.47519,0.47519 0.47519,0.4752 -0.25765,0.67144 -0.25765,0.67144 h -1.08453 -1.0845 z m -25.27726,-0.70904 c 0,-0.35346 0.19277,-0.64264 0.42841,-0.64264 0.23564,0 0.42844,0.28918 0.42844,0.64264 0,0.35345 -0.1928,0.64264 -0.42844,0.64264 -0.23564,0 -0.42841,-0.28919 -0.42841,-0.64264 z m 5.56956,0.21421 c 0,-0.23563 0.28919,-0.42843 0.64264,-0.42843 0.35346,0 0.64265,0.1928 0.64265,0.42843 0,0.23564 -0.28919,0.42843 -0.64265,0.42843 -0.35345,0 -0.64264,-0.19279 -0.64264,-0.42843 z m -2.42777,-0.28562 0.28562,-0.28562 0.28562,0.28562 0.28562,0.28562 h -0.57124 -0.57123 z m 27.27661,0.0714 c 0,-0.11782 0.0964,-0.21422 0.21421,-0.21422 0.11782,0 0.21421,0.0964 0.21421,0.21422 0,0.11782 -0.0964,0.21421 -0.21421,0.21421 -0.11782,0 -0.21421,-0.0964 -0.21421,-0.21421 z m -19.27928,-0.56076 c 0,-0.1906 0.25976,-0.70179 0.57724,-1.13597 l 0.57727,-0.78943 0.31755,0.51385 0.31758,0.51384 -0.23874,0.62213 -0.23873,0.62212 h -0.65609 c -0.36084,0 -0.65608,-0.15594 -0.65608,-0.34654 z m 17.13714,-0.2961 c 0,-0.35345 0.19277,-0.64264 0.42841,-0.64264 0.23564,0 0.42844,0.28919 0.42844,0.64264 0,0.35345 -0.1928,0.64264 -0.42844,0.64264 -0.23564,0 -0.42841,-0.28919 -0.42841,-0.64264 z m -11.89781,-0.29454 c 0.0933,-0.27982 0.39851,-0.58508 0.67834,-0.67835 l 0.50876,-0.16958 v 0.67834 0.67835 h -0.67836 -0.67834 z m 2.23509,0.043 -0.28784,-0.46576 0.43945,-0.43945 0.43945,-0.43946 0.46577,0.28786 c 0.25617,0.15832 0.46574,0.56566 0.46574,0.90521 v 0.61736 h -0.61735 c -0.33954,0 -0.74689,-0.2096 -0.90522,-0.46576 z m -14.24919,-0.71242 0.14288,-0.74975 0.85249,-0.10956 c 0.46886,-0.0603 1.11818,0.0628 1.4429,0.27342 l 0.59042,0.38298 -0.29438,0.47633 -0.2944,0.47633 h -1.2914 -1.29141 z m 25.45329,0.43461 c -0.51572,-0.51573 -0.23434,-0.97015 0.60076,-0.97015 h 0.85686 v 0.3826 c 0,0.48156 -1.1144,0.93077 -1.45762,0.58755 z m -19.96379,-0.54172 c 0,-0.23563 0.28919,-0.42843 0.64262,-0.42843 0.35346,0 0.64265,0.1928 0.64265,0.42843 0,0.23564 -0.28919,0.42843 -0.64265,0.42843 -0.35343,0 -0.64262,-0.19279 -0.64262,-0.42843 z m 23.13511,0 c 0,-0.23563 0.28919,-0.42843 0.64265,-0.42843 0.35346,0 0.64265,0.1928 0.64265,0.42843 0,0.23564 -0.28919,0.42843 -0.64265,0.42843 -0.35346,0 -0.64265,-0.19279 -0.64265,-0.42843 z m -7.28329,-0.45371 v -0.45371 l 0.42844,0.26478 c 0.23564,0.14563 0.42844,0.3498 0.42844,0.45371 0,0.10391 -0.1928,0.18893 -0.42844,0.18893 -0.23564,0 -0.42844,-0.20417 -0.42844,-0.45371 z m 4.90932,-0.86008 c -0.15531,-0.25131 -0.17502,-0.56432 -0.0438,-0.69557 0.35245,-0.35244 1.56088,0.19773 1.56088,0.71063 0,0.58149 -1.15551,0.57002 -1.51712,-0.0151 z m -7.26567,-0.82835 c 0.14563,-0.23563 0.34981,-0.42843 0.45373,-0.42843 0.10391,0 0.18892,0.1928 0.18892,0.42843 0,0.23564 -0.20418,0.42843 -0.45371,0.42843 h -0.45371 z m 2.78479,-0.42843 c 0,-0.97112 0.44429,-1.09806 1.1996,-0.34274 0.75533,0.75532 0.62838,1.1996 -0.34274,1.1996 h -0.85686 z m -4.43873,0.13116 c -0.48249,-0.48249 -0.29387,-0.98801 0.36867,-0.98801 0.35343,0 0.64262,0.18141 0.64262,0.40314 0,0.54024 -0.66902,0.92716 -1.01129,0.58487 z m 7.43773,0.12513 c 0,-0.11668 0.48199,-0.73221 1.07106,-1.36785 l 1.07109,-1.1557 -0.0135,0.5981 c -0.0119,0.53276 -2.12868,2.44736 -2.12868,1.92545 z m 3.42741,-0.4705 v -0.71405 l 0.46056,0.15352 c 0.25332,0.0844 0.46056,0.33667 0.46056,0.56053 0,0.22385 -0.20724,0.47609 -0.46056,0.56052 l -0.46056,0.15352 z m -18.13679,-0.0714 c -0.46267,-0.46269 -0.3303,-0.89084 0.35703,-1.15459 l 0.64265,-0.24661 v 0.84341 c 0,0.84189 -0.45929,1.09816 -0.99968,0.55779 z m 20.70738,0.0714 c 0,-0.11782 0.0964,-0.21421 0.21421,-0.21421 0.11782,0 0.2142,0.0964 0.2142,0.21421 0,0.11782 -0.0964,0.21421 -0.2142,0.21421 -0.11782,0 -0.21421,-0.0964 -0.21421,-0.21421 z m -7.41569,-0.51025 c -0.13171,-0.21314 -0.0835,-0.63989 0.10713,-0.94834 l 0.3466,-0.56082 0.23951,0.38752 c 0.13171,0.21313 0.0835,0.63988 -0.10713,0.94834 l -0.34661,0.56081 z m 8.70096,-0.13239 c 0,-0.23564 0.28919,-0.42843 0.64264,-0.42843 0.35346,0 0.64265,0.19279 0.64265,0.42843 0,0.23563 -0.28919,0.42843 -0.64265,0.42843 -0.35345,0 -0.64264,-0.1928 -0.64264,-0.42843 z m 1.58305,-0.45338 -0.23058,-0.8818 0.71125,0.13697 0.71123,0.13698 0.14345,0.74482 0.14343,0.74484 h -0.6241 -0.62407 z m -6.29576,-0.35764 c 0,-0.21043 0.30496,-0.49962 0.67768,-0.64264 0.95758,-0.36746 1.03605,-0.33848 1.03605,0.38259 v 0.64264 h -0.85688 -0.85685 z m -10.28226,-0.9027 v -0.85685 h 0.42841 0.42844 v 0.85685 0.85686 h -0.42844 -0.42841 z m 3.42741,0.21422 c 0,-0.35346 0.1928,-0.64264 0.42844,-0.64264 0.23564,0 0.42841,0.28918 0.42841,0.64264 0,0.35345 -0.19277,0.64264 -0.42841,0.64264 -0.23564,0 -0.42844,-0.28919 -0.42844,-0.64264 z m 10.75163,0.2395 -0.56083,-0.34661 0.38753,-0.2395 c 0.21312,-0.13172 0.63987,-0.0835 0.94832,0.10711 l 0.56084,0.34661 -0.38754,0.23949 c -0.21312,0.13173 -0.63986,0.0835 -0.94832,-0.1071 z m -19.96283,-0.88214 -0.26477,-0.42843 h 0.66791 0.66794 v 0.42843 c 0,0.23563 -0.18142,0.42842 -0.40314,0.42842 -0.22175,0 -0.52232,-0.19279 -0.66794,-0.42842 z m 2.65091,-0.2767 c -0.55872,-0.55871 -0.29197,-1.00859 0.59801,-1.00859 h 0.89255 l -0.16958,0.50876 c -0.2087,0.62608 -0.92405,0.89676 -1.32098,0.49983 z m 10.84458,-0.34066 v -0.66793 h 0.42841 c 0.23564,0 0.42844,0.18141 0.42844,0.40314 0,0.22173 -0.1928,0.5223 -0.42844,0.66793 l -0.42841,0.26479 z m 4.14147,-0.0967 c -0.54316,-0.54316 -0.28228,-0.99967 0.57124,-0.99967 h 0.85685 v 0.64265 0.64264 h -0.57124 c -0.31416,0 -0.69977,-0.12853 -0.85685,-0.28562 z m -8.21153,-0.57124 -0.26479,-0.42843 h 0.4537 c 0.24956,0 0.45371,0.1928 0.45371,0.42843 0,0.23564 -0.085,0.42843 -0.18891,0.42843 -0.10393,0 -0.30808,-0.19279 -0.45371,-0.42843 z m 1.75861,-0.25171 c -0.36642,-0.95488 -0.33724,-1.03357 0.38351,-1.03357 h 0.64265 v 0.61735 c 0,0.33955 -0.17259,0.72403 -0.38354,0.8544 l -0.38352,0.23704 z m 4.23936,0.25171 -0.26476,-0.42843 0.29305,-0.47417 0.29305,-0.47416 0.3683,0.58127 c 0.20259,0.3197 0.37129,0.72587 0.37489,0.9026 0.01,0.46961 -0.75568,0.39262 -1.06453,-0.10711 z m 6.64065,0.0953 c 0,-0.18321 0.31149,-0.77783 0.69223,-1.32139 l 0.69223,-0.98829 -0.47803,-0.47801 -0.47799,-0.47801 v 0.95599 0.95599 l -0.66112,0.25369 -0.66114,0.2537 -0.28662,-0.28663 -0.28662,-0.28662 0.51932,-0.83156 c 0.28562,-0.45736 0.51933,-1.12336 0.51933,-1.48001 v -0.64846 h -0.64265 -0.64265 v -0.61736 c 0,-0.33954 0.22204,-0.75458 0.49342,-0.92231 l 0.49343,-0.30495 0.51289,0.70144 0.51292,0.70143 0.26861,-0.2686 0.2686,-0.26861 0.69935,0.58041 0.69934,0.58042 0.5845,-0.79934 0.58449,-0.79934 0.25368,0.66106 0.25368,0.66106 0.82918,-0.21684 0.82918,-0.21684 v 0.42594 c 0,0.23427 -0.32052,0.69054 -0.71231,1.01393 l -0.71232,0.588 -0.17653,-0.52444 -0.17655,-0.52444 -1.01981,0.6682 -1.01981,0.6682 0.48437,0.7756 0.48437,0.7756 -0.68723,0.68724 c -0.71048,0.71048 -2.03374,0.94091 -2.03374,0.35415 z m 1.7137,-3.73697 c 0,-0.11782 -0.0964,-0.21421 -0.2142,-0.21421 -0.11782,0 -0.21421,0.0964 -0.21421,0.21421 0,0.11782 0.0964,0.21421 0.21421,0.21421 0.11782,0 0.2142,-0.0964 0.2142,-0.21421 z m 4.08837,3.24282 -0.24648,-0.39883 0.43542,-0.2691 0.43543,-0.2691 v 0.66792 c 0,0.75255 -0.2571,0.86335 -0.62437,0.26911 z m -14.94186,-0.74365 c -0.15709,-0.15709 -0.28562,-0.48484 -0.28562,-0.72833 v -0.44271 l 0.50697,0.50697 c 0.27884,0.27884 0.40735,0.60658 0.28561,0.72833 -0.12173,0.12174 -0.34988,0.0928 -0.50696,-0.0643 z m 4.96263,0 c -0.29456,-0.11782 -0.53555,-0.40435 -0.53555,-0.63674 v -0.42253 l 0.87382,0.13691 c 0.48061,0.0753 0.88066,0.32488 0.889,0.55462 0.0182,0.5041 -0.49893,0.65907 -1.22727,0.36774 z m -8.67569,-0.99967 c 0,-0.23564 0.1928,-0.42843 0.42844,-0.42843 0.23564,0 0.42841,0.19279 0.42841,0.42843 0,0.23563 -0.19277,0.42843 -0.42841,0.42843 -0.23564,0 -0.42844,-0.1928 -0.42844,-0.42843 z m 4.99835,0.14281 c -0.15711,-0.15709 -0.28565,-0.65514 -0.28565,-1.10677 v -0.82116 l 0.53555,0.17637 0.53554,0.17637 0.1369,0.9304 0.13692,0.93041 h -0.38682 c -0.21275,0 -0.51536,-0.12853 -0.67244,-0.28562 z m 12.99564,0.0993 c 0,-0.10247 0.19995,-0.71225 0.44435,-1.35504 l 0.44434,-1.16873 0.4477,0.44768 0.44767,0.44768 -0.56666,0.90737 c -0.50228,0.8043 -1.2174,1.22785 -1.2174,0.72104 z m 1.71371,0 c 0,-0.10247 0.18801,-0.68085 0.41783,-1.28528 l 0.41783,-1.09896 h 0.63979 0.63981 l -0.26384,0.74975 -0.26381,0.74975 0.57716,-0.53554 c 0.31745,-0.29454 0.82177,-0.53553 1.12069,-0.53553 h 0.54351 l -0.20844,0.53553 c -0.33353,0.85698 -3.62053,2.14641 -3.62053,1.42028 z m -10.7107,-2.84837 v -0.89256 l 0.53554,0.17831 c 0.29453,0.0981 0.59785,0.49973 0.67405,0.89256 l 0.13851,0.71425 h -0.67405 -0.67405 z m -2.14215,-0.39273 c 0,-0.23563 0.1928,-0.42843 0.42844,-0.42843 0.23564,0 0.42841,0.1928 0.42841,0.42843 0,0.23564 -0.19277,0.42843 -0.42841,0.42843 -0.23564,0 -0.42844,-0.19279 -0.42844,-0.42843 z m 10.54965,-0.34242 -0.31792,-0.51443 h -0.87741 -0.87741 l 0.26003,-0.67769 c 0.14303,-0.37272 0.26006,-0.75831 0.26006,-0.85685 0,-0.0986 0.28241,-0.17918 0.62756,-0.17918 h 0.62757 l 0.4713,0.88061 c 0.25921,0.48434 0.39767,1.10142 0.30771,1.37129 l -0.16354,0.49068 z m 1.44635,-0.086 c 0,-0.23563 0.1928,-0.42842 0.42844,-0.42842 0.23561,0 0.42841,0.19279 0.42841,0.42842 0,0.23564 -0.1928,0.42843 -0.42841,0.42843 -0.23564,0 -0.42844,-0.19279 -0.42844,-0.42843 z m -16.28027,-0.64264 v -0.71404 l 0.46057,0.15352 c 0.25331,0.0844 0.46056,0.33667 0.46056,0.56052 0,0.22386 -0.20725,0.47609 -0.46056,0.56053 l -0.46057,0.15352 z m 2.999,0 c 0,-0.35345 0.19278,-0.64264 0.42842,-0.64264 0.23564,0 0.42844,0.28919 0.42844,0.64264 0,0.35346 -0.1928,0.64264 -0.42844,0.64264 -0.23564,0 -0.42842,-0.28918 -0.42842,-0.64264 z m 5.14112,-0.42843 0.53335,-0.64264 h -0.51229 -0.51231 l 0.14438,-0.74975 0.14441,-0.74975 h 0.52967 c 0.29131,0 0.48147,0.1363 0.42254,0.30288 -0.0589,0.16659 0.26504,0.57499 0.71985,0.90757 l 0.82699,0.60469 -0.90591,0.48482 c -0.49826,0.26665 -1.13498,0.48483 -1.41497,0.48483 h -0.50905 z m 2.36069,0.20723 0.26909,-0.43542 0.39883,0.24649 c 0.59425,0.36727 0.48345,0.62435 -0.26911,0.62435 h -0.66791 z m -4.07439,-0.42144 c 0,-0.23563 0.20418,-0.42843 0.4537,-0.42843 h 0.45371 l -0.26477,0.42843 c -0.14562,0.23564 -0.3498,0.42843 -0.4537,0.42843 -0.10393,0 -0.18894,-0.19279 -0.18894,-0.42843 z m 5.56955,-0.85686 c 0,-0.23563 0.19281,-0.42842 0.42844,-0.42842 0.23564,0 0.42844,0.19279 0.42844,0.42842 0,0.23564 -0.1928,0.42843 -0.42844,0.42843 -0.23563,0 -0.42844,-0.19279 -0.42844,-0.42843 z m -1.7137,-0.42842 v -0.57124 l 0.28562,0.28562 0.28561,0.28562 -0.28561,0.28561 -0.28562,0.28562 z m 4.28429,-0.17852 v -0.67834 h 0.67834 0.67834 l -0.16957,0.50876 c -0.0933,0.27982 -0.39855,0.58507 -0.67837,0.67834 l -0.50874,0.16959 z m -1.83131,-0.51032 -0.26041,-0.2604 0.50628,-0.81067 c 0.69803,-1.11774 1.157,-1.01444 1.157,0.26041 v 1.07107 h -0.57123 c -0.31417,0 -0.68842,-0.11718 -0.83164,-0.26041 z m -5.02354,-1.23909 v -0.64264 h 1.07106 1.07109 v 0.64264 0.64264 h -1.07109 -1.07106 z m 7.7117,-1.07107 c 0,-0.23564 0.19281,-0.42843 0.42842,-0.42843 0.23564,0 0.42844,0.19279 0.42844,0.42843 0,0.23564 -0.1928,0.42843 -0.42844,0.42843 -0.23561,0 -0.42842,-0.19279 -0.42842,-0.42843 z m -1.28529,-1.71371 v -0.85686 h 0.38259 c 0.21042,0 0.49961,0.30496 0.64264,0.67768 0.36746,0.95757 0.33849,1.03603 -0.38258,1.03603 h -0.64265 z m 2.14215,0.42843 c 0,-0.23564 0.20418,-0.42843 0.4537,-0.42843 h 0.45371 l -0.26477,0.42843 c -0.14562,0.23563 -0.3498,0.42842 -0.4537,0.42842 -0.10393,0 -0.18894,-0.19279 -0.18894,-0.42842 z m -2.14215,-2.14215 c 0,-0.23563 0.28919,-0.42842 0.64265,-0.42842 0.35345,0 0.64264,0.19279 0.64264,0.42842 0,0.23564 -0.28919,0.42843 -0.64264,0.42843 -0.35346,0 -0.64265,-0.19279 -0.64265,-0.42843 z m 28.27626,48.19817 c 0,-0.11782 -0.0964,-0.21421 -0.21421,-0.21421 -0.11782,0 -0.2142,0.0964 -0.2142,0.21421 0,0.11782 0.0964,0.21422 0.2142,0.21422 0.11782,0 0.21421,-0.0964 0.21421,-0.21422 z m -19.36493,-1.58518 c 0.64555,-0.64558 0.66585,-2.16177 0.0373,-2.7903 l -0.47678,-0.47678 0.30512,-0.49367 0.30509,-0.49367 0.76708,0.69419 0.76706,0.69419 0.21767,-1.63024 c 0.11972,-0.89664 0.43688,-2.40142 0.70482,-3.34396 0.26795,-0.94254 0.54676,-2.1151 0.61963,-2.60569 l 0.13248,-0.89199 -3.77704,2.55641 -3.77706,2.55641 0.89871,1.26212 0.89871,1.26212 -0.53938,1.00784 -0.53937,1.00785 1.23528,1.0861 c 1.43084,1.25806 1.53387,1.28585 2.22068,0.59907 z m -1.61248,-1.39505 -0.51776,-0.62387 0.27638,-0.4472 c 0.152,-0.24596 0.47842,-0.4472 0.72536,-0.4472 h 0.44899 l -0.24661,0.64265 -0.2466,0.64264 h 0.62918 c 0.34608,0 0.62921,0.19279 0.62921,0.42843 0,0.64296 -1.10818,0.51542 -1.69815,-0.19545 z m 0.8413,-4.08883 v -0.85686 h 0.86047 0.86051 l -0.53512,0.85686 c -0.29432,0.47127 -0.68154,0.85685 -0.86051,0.85685 -0.17893,0 -0.32535,-0.38558 -0.32535,-0.85685 z m -1.2853,-1.28529 c 0,-0.23563 0.1928,-0.42843 0.42844,-0.42843 0.23564,0 0.42842,0.1928 0.42842,0.42843 0,0.23564 -0.19278,0.42843 -0.42842,0.42843 -0.23564,0 -0.42844,-0.19279 -0.42844,-0.42843 z m 3.57024,-1.99933 0.28561,-0.28562 0.28562,0.28562 0.28562,0.28562 h -0.57124 -0.57123 z m -13.99532,8.14013 -0.28562,-0.28561 -0.28562,0.28561 -0.28562,0.28562 h 0.57124 0.57123 z m 32.27493,-1.21388 v -1.49949 h -0.82627 c -0.45442,0 -1.12921,-0.30296 -1.4995,-0.67325 l -0.67323,-0.67324 v 0.40657 c 0,0.22361 0.28919,0.64658 0.64265,0.93992 0.35345,0.29334 0.64264,0.70253 0.64264,0.90931 0,0.31664 1.27159,1.94231 1.60661,2.05398 0.0589,0.0196 0.1071,-0.63907 0.1071,-1.4638 z m -105.82177,-0.83157 c 0,-0.10391 -0.17947,-0.29984 -0.39883,-0.43541 l -0.39881,-0.24649 -0.26911,0.43542 -0.26911,0.43541 h 0.66795 c 0.36734,0 0.66791,-0.085 0.66791,-0.18893 z m 110.00795,-9.58487 0.16971,-0.50906 -0.67845,0.26035 c -0.37314,0.14319 -0.67844,0.44857 -0.67844,0.67863 v 0.4183 l 0.50874,-0.16959 c 0.27982,-0.0933 0.58513,-0.39866 0.67844,-0.67863 z m -6.75674,-2.85138 v -0.6292 l -0.64265,0.24661 c -0.35345,0.13563 -0.64264,0.41877 -0.64264,0.6292 0,0.21042 0.28919,0.38259 0.64264,0.38259 h 0.64265 z m -110.24888,-0.51328 -0.28562,-0.28562 -0.28562,0.28562 -0.28562,0.28562 h 0.57124 0.57126 z m 16.32439,-6.0918 c 1.24174,-0.42894 2.38241,-0.90463 2.53487,-1.05709 0.15248,-0.15246 0.63066,-0.2772 1.06267,-0.2772 h 0.78544 v -0.45371 -0.45371 l 0.45233,0.27955 0.45234,0.27956 2.43956,-0.96228 c 1.34175,-0.52925 3.45742,-1.41485 4.70149,-1.96798 1.24407,-0.55314 2.36966,-1.00571 2.50129,-1.00571 0.13163,0 1.48891,-0.57838 3.0162,-1.28528 1.52725,-0.70691 2.84633,-1.28529 2.93129,-1.28529 0.0849,0 1.46923,-0.5941 3.0762,-1.32022 1.60698,-0.72612 3.98214,-1.7985 5.27815,-2.38307 6.37741,-2.87658 14.99497,-7.87131 14.99497,-8.69107 0,-0.17652 0.43378,-0.51877 0.96398,-0.76055 0.53017,-0.24178 2.40991,-1.6263 4.17716,-3.0767 7.14865,-5.86694 11.86246,-9.47408 12.3807,-9.47408 0.18664,0 0.68829,-0.38558 1.1148,-0.85685 l 0.77544,-0.85686 h -0.46424 c -0.25532,0 -0.7534,0.28919 -1.10686,0.64264 -0.35345,0.35346 -0.86333,0.64265 -1.13307,0.64265 h -0.49046 l 0.15404,-0.74975 0.15407,-0.74975 0.72736,0.12431 0.72739,0.12432 -0.2532,-0.65985 -0.25324,-0.65985 h -1.1353 -1.1353 l -3.64926,2.89189 c -3.69401,2.92733 -4.75091,3.80676 -7.88678,6.56245 -2.84739,2.5022 -9.80533,7.68278 -10.31857,7.68278 -0.10279,0 -1.20277,0.62749 -2.44443,1.39441 -2.23142,1.37827 -6.41771,3.50941 -9.32664,4.74799 -0.82473,0.35115 -2.65626,1.14808 -4.07006,1.77095 -1.41383,0.62287 -2.95616,1.29968 -3.42744,1.50404 -1.47534,0.63973 -7.57097,2.91911 -10.92491,4.08523 -1.76726,0.61444 -3.50872,1.27347 -3.86993,1.46451 -0.36118,0.19103 -1.29055,0.48655 -2.06525,0.6567 l -1.40854,0.30937 0.22572,0.58824 0.22574,0.58825 -0.40974,0.25322 c -0.22534,0.13927 -0.4097,0.62742 -0.4097,1.08479 v 0.83157 h -0.85686 -0.85685 v -0.37597 c 0,-0.20678 0.28919,-0.61598 0.64262,-0.90932 0.35346,-0.29333 0.64265,-0.70253 0.64265,-0.90931 0,-0.59161 -1.55668,-0.43876 -2.09124,0.20534 l -0.48244,0.58131 0.26932,1.34662 c 0.31358,1.56783 0.16113,1.54101 3.06252,0.53876 z m 0.98938,-1.5842 0.0338,-0.82116 0.22503,0.56231 c 0.12374,0.30927 0.10853,0.67879 -0.0338,0.82116 l -0.25885,0.25884 z m 1.12652,-0.87469 c -0.33433,-0.33434 0.12631,-1.44597 0.5992,-1.44597 0.48953,0 0.50059,1.16179 0.014,1.46257 -0.20275,0.12532 -0.47865,0.11785 -0.61311,-0.0166 z m 3.76658,-2.30282 -0.26479,-0.42843 h 0.90744 0.90741 l -0.26477,0.42843 c -0.14565,0.23563 -0.43481,0.42843 -0.64264,0.42843 -0.20783,0 -0.49702,-0.1928 -0.64265,-0.42843 z m 2.57056,-0.85686 c 0.14563,-0.23563 0.55399,-0.42843 0.90744,-0.42843 h 0.64265 l -0.2648,0.42843 c -0.14562,0.23564 -0.55398,0.42843 -0.90741,0.42843 h -0.64265 z m 34.48849,-15.2092 c 0,-0.11782 0.0964,-0.21421 0.21421,-0.21421 0.11782,0 0.2142,0.0964 0.2142,0.21421 0,0.11782 -0.0964,0.21422 -0.2142,0.21422 -0.11782,0 -0.21421,-0.0964 -0.21421,-0.21422 z m 1.79155,-2.30824 -0.48811,-0.30167 0.85268,-0.73008 c 0.46897,-0.40154 1.04325,-0.73008 1.27619,-0.73008 0.71384,0 0.47024,1.05001 -0.36454,1.57134 l -0.78809,0.49217 z m 2.92116,-2.61868 v -0.85686 h 0.42841 0.42844 v 0.85686 0.85685 h -0.42844 -0.42841 z m 2.66403,-1.77991 c 0.22236,-0.6671 1.18087,-0.78393 1.21444,-0.14802 0.0124,0.23564 -0.29895,0.49504 -0.69199,0.57645 l -0.71461,0.14803 z m 2.19147,-1.50471 0.28564,-0.28562 0.28562,0.28562 0.28562,0.28562 h -0.57124 -0.57126 z m 2.19681,-1.02676 -0.30724,-0.49713 0.59042,-0.37397 c 1.23976,-0.78526 1.758,-0.0708 0.62857,0.86654 l -0.60449,0.50169 z m -0.84011,-1.68662 -0.26479,-0.42842 h 0.6932 0.69324 l -0.2648,0.42842 c -0.14562,0.23564 -0.33842,0.42843 -0.42844,0.42843 -0.09,0 -0.28278,-0.19279 -0.42841,-0.42843 z m 3.64249,-2.24924 v -0.32132 h 1.52477 1.52479 l -0.25344,0.41008 -0.25344,0.41009 -1.27051,-0.0888 c -0.69876,-0.0488 -1.27084,-0.23336 -1.27132,-0.41008 z m 46.555,31.52517 -0.28562,-0.28562 v 0.57124 0.57123 l 0.28562,-0.28562 0.28565,-0.28561 z m -115.22487,-3.42291 0.14015,-0.42045 -1.08025,-0.57813 c -1.31519,-0.70388 -1.75297,-0.3831 -1.03851,0.76095 l 0.53083,0.84999 0.65381,-0.0959 c 0.3596,-0.0528 0.71689,-0.28516 0.79397,-0.51641 z m 14.08501,-5.93111 c 1.75488,-0.58909 3.53364,-1.07107 3.95282,-1.07107 0.41918,0 0.94531,-0.15343 1.16914,-0.34097 0.22387,-0.18753 1.17819,-0.59556 2.12074,-0.90673 0.94253,-0.31117 2.93212,-1.1217 4.42127,-1.80118 1.48916,-0.67947 2.77707,-1.2354 2.862,-1.2354 0.21071,0 5.46481,-2.36562 8.35435,-3.76147 1.29601,-0.62606 2.42062,-1.289 2.49917,-1.47319 0.0785,-0.1842 0.39233,-0.3349 0.69729,-0.3349 0.30496,0 0.77893,-0.27045 1.05325,-0.60098 l 0.49877,-0.60098 -0.55343,-0.25193 -0.5534,-0.25192 0.96837,0.24053 0.96835,0.24053 2.42707,-1.51814 c 2.866,-1.79269 9.84309,-7.52997 14.0403,-11.54536 1.63783,-1.56688 3.13135,-2.84888 3.31891,-2.84888 0.18756,0 0.34105,-0.20417 0.34105,-0.45371 v -0.45372 l -0.39883,0.24649 -0.39884,0.24649 -0.26908,-0.43542 c -0.14801,-0.23948 -0.67908,-0.43542 -1.18017,-0.43542 h -0.91107 l -0.95985,0.90175 -0.95989,0.90174 -0.48805,-0.30163 -0.48805,-0.30164 0.73697,-0.81432 0.73695,-0.81432 h -1.75482 -1.75485 l -0.26477,-0.42843 -0.2648,-0.42843 h -4.48445 -4.48447 l -2.77352,0.52613 -2.77355,0.52614 v 0.35959 0.35959 l -0.90789,-0.28815 -0.90792,-0.28816 -1.02002,0.4735 c -1.74503,0.81007 -2.9074,1.26525 -4.01902,1.57385 -0.58907,0.16354 -1.64944,0.70509 -2.35636,1.20344 -0.70688,0.49835 -1.34082,0.84761 -1.40874,0.77613 -0.0679,-0.0715 -1.29485,0.65225 -2.72651,1.60827 -1.43166,0.95603 -2.38826,1.73823 -2.12577,1.73823 h 0.47726 v 0.64265 c 0,0.78135 -0.5012,0.82692 -1.21745,0.11068 l -0.53195,-0.53195 -0.40402,0.63906 c -0.22222,0.35148 -0.40698,0.77761 -0.4106,0.94694 l -0.007,0.30787 0.74975,-0.28098 0.74975,-0.28098 -0.61685,0.75764 -0.61687,0.75765 0.51943,0.83173 0.51943,0.83174 -0.86654,-0.54115 c -0.47657,-0.29764 -0.86651,-0.78397 -0.86651,-1.08074 0,-0.61431 -0.0961,-0.64023 -1.03603,-0.27954 -0.87445,0.33556 -0.87744,1.02524 -0.005,1.02524 h 0.67326 l -0.64265,0.64264 c -0.81774,0.81774 -1.13228,0.81311 -1.13228,-0.0167 v -0.65932 l -1.92791,2.36698 c -2.12847,2.61318 -2.21745,2.80751 -1.2853,2.80751 h 0.64265 v -0.64265 c 0,-0.35345 0.19277,-0.64264 0.42841,-0.64264 0.23564,0 0.42844,0.28919 0.42844,0.64264 0,0.35346 -0.1928,0.64265 -0.42844,0.64265 h -0.42841 v 0.68908 0.68909 l -1.02992,-0.25849 -1.02991,-0.25849 -0.4658,1.17601 c -0.2562,0.6468 -1.04466,2.23637 -1.75215,3.53236 l -1.28633,2.35636 -0.27321,1.6161 c -0.15028,0.88885 -0.44071,1.7196 -0.6454,1.8461 -0.68757,0.42495 -0.37181,2.75001 0.37346,2.75001 0.0959,0 1.61018,-0.48199 3.36505,-1.07107 z m -1.72302,-2.15134 -0.82558,-0.62459 0.27157,-0.27157 0.27157,-0.27156 0.66111,0.25369 0.66112,0.2537 v 0.65609 c 0,0.78948 -0.003,0.78949 -1.03979,0.004 z m 3.18193,-1.91873 v -0.57123 l 0.28562,0.28562 0.28562,0.28561 -0.28562,0.28562 -0.28562,0.28562 z m 7.71171,-0.21421 c 0,-0.11782 0.0964,-0.21421 0.2142,-0.21421 0.11782,0 0.21424,0.0964 0.21424,0.21421 0,0.11782 -0.0964,0.21421 -0.21424,0.21421 -0.11782,0 -0.2142,-0.0964 -0.2142,-0.21421 z m -6.42641,-0.67324 c 0,-1.41363 2.09404,-2.13085 3.00757,-1.03012 l 0.54194,0.653 -0.29474,0.29475 -0.29475,0.29475 -0.83156,-0.51932 c -1.07847,-0.67351 -1.27161,-0.65478 -1.27161,0.12332 0,0.35346 -0.1928,0.64265 -0.42844,0.64265 -0.23564,0 -0.42841,-0.20657 -0.42841,-0.45903 z m 4.50281,0.0236 0.2691,-0.43542 0.39881,0.24649 c 0.59426,0.36726 0.48345,0.62434 -0.26911,0.62434 h -0.66791 z m 3.20889,-0.0183 v -0.45371 l 0.42841,0.26478 c 0.23564,0.14564 0.42844,0.34981 0.42844,0.45372 0,0.10391 -0.1928,0.18893 -0.42844,0.18893 -0.23563,0 -0.42841,-0.20417 -0.42841,-0.45372 z m -9.76037,-0.46933 c 0.22235,-0.66711 1.18083,-0.78394 1.21443,-0.14802 0.0124,0.23563 -0.29895,0.49504 -0.69199,0.57645 l -0.71461,0.14802 z m 11.04564,-0.14802 c 0,-0.11782 0.0964,-0.21422 0.21423,-0.21422 0.11782,0 0.21421,0.0964 0.21421,0.21422 0,0.11781 -0.0964,0.21421 -0.21421,0.21421 -0.11782,0 -0.21423,-0.0964 -0.21423,-0.21421 z m -13.04801,-1.16144 c 0.42122,-1.3696 0.48112,-1.39738 1.75802,-0.81557 l 1.13808,0.51853 -0.3865,0.3526 c -0.21257,0.19394 -0.93207,0.48143 -1.59885,0.63888 l -1.21238,0.28627 z m 12.33398,-0.19525 0.28561,-0.28562 0.28562,0.28562 0.28562,0.28562 h -0.57124 -0.57123 z m -7.55103,-0.41056 c -0.33435,-0.33434 0.12631,-1.44596 0.5992,-1.44596 0.48954,0 0.5006,1.16179 0.014,1.46256 -0.20278,0.12532 -0.47869,0.11785 -0.61312,-0.0166 z m 3.12394,-0.14561 c 0,-0.22734 0.38557,-0.61971 0.85685,-0.87193 l 0.85685,-0.45857 v 0.87193 0.87193 h -0.85685 -0.85685 z m 5.56956,-0.87193 v -0.42842 h 0.85685 0.85685 v 0.42842 0.42843 h -0.85685 -0.85685 z M 285.103,173.83154 c -0.2812,-0.28118 0.61013,-1.87009 1.04904,-1.87009 h 0.28525 l -0.22582,0.86354 c -0.24993,0.95573 -0.72652,1.38851 -1.10847,1.00655 z m 15.8266,-0.0252 c -0.15068,-0.15069 -0.27395,-0.53103 -0.27395,-0.84521 v -0.57124 h 0.64262 0.64265 v 0.61736 c 0,0.71575 -0.61148,1.19892 -1.01132,0.79909 z m -12.17175,-1.06835 c 0.0933,-0.27982 0.39851,-0.58507 0.67833,-0.67835 l 0.50874,-0.16958 v 0.67834 0.67835 h -0.67833 -0.67834 z m 16.18207,0.0803 c 0,-0.23564 0.1928,-0.42843 0.42844,-0.42843 0.23564,0 0.42841,0.19279 0.42841,0.42843 0,0.23564 -0.19277,0.42843 -0.42841,0.42843 -0.23564,0 -0.42844,-0.19279 -0.42844,-0.42843 z m -1.28529,-0.61736 v -0.66792 h 0.42844 c 0.23564,0 0.42844,0.18141 0.42844,0.40314 0,0.22173 -0.1928,0.52229 -0.42844,0.66793 l -0.42844,0.26478 z m -7.71171,-0.2395 c 0,-0.23563 0.28919,-0.42842 0.64265,-0.42842 0.35346,0 0.64265,0.19279 0.64265,0.42842 0,0.23564 -0.28919,0.42843 -0.64265,0.42843 -0.35346,0 -0.64265,-0.19279 -0.64265,-0.42843 z m 6.42644,0.21422 c 0,-0.11782 0.0964,-0.21422 0.21421,-0.21422 0.11782,0 0.2142,0.0964 0.2142,0.21422 0,0.11782 -0.0964,0.21421 -0.2142,0.21421 -0.11782,0 -0.21421,-0.0964 -0.21421,-0.21421 z m -14.56655,-0.64264 c 0,-0.23564 0.20415,-0.42843 0.4537,-0.42843 h 0.45371 l -0.26477,0.42843 c -0.14565,0.23563 -0.3498,0.42842 -0.45373,0.42842 -0.1039,0 -0.18891,-0.19279 -0.18891,-0.42842 z m 2.99899,0 c 0,-0.23564 0.19278,-0.42843 0.42842,-0.42843 0.23564,0 0.42844,0.19279 0.42844,0.42843 0,0.23563 -0.1928,0.42842 -0.42844,0.42842 -0.23564,0 -0.42842,-0.19279 -0.42842,-0.42842 z m 6.42642,-0.85686 v -0.42843 h 0.85685 0.85685 v 0.42843 0.42843 h -0.85685 -0.85685 z m 8.56855,0.0194 c 0,-0.24631 0.26858,-0.44784 0.59682,-0.44784 h 0.5968 l 0.24662,-0.64264 0.24659,-0.64265 h 0.61026 0.61023 l 0.27014,0.70397 c 0.33327,0.86847 0.37886,0.83405 -1.57085,1.18654 l -1.60661,0.29046 z m 4.2843,-0.0194 c 0,-0.23564 0.1928,-0.42843 0.42841,-0.42843 0.23564,0 0.42844,0.19279 0.42844,0.42843 0,0.23563 -0.1928,0.42843 -0.42844,0.42843 -0.23561,0 -0.42841,-0.1928 -0.42841,-0.42843 z m -20.993,-0.25706 c 0,-0.741 0.98931,-1.45665 2.01361,-1.45665 h 0.98539 v 0.42842 0.42843 h -0.98539 c -0.54194,0 -1.21671,0.23135 -1.4995,0.51412 l -0.51411,0.51411 z m 13.81662,-0.7069 c 0.0981,-0.29455 0.49972,-0.59788 0.89255,-0.67406 l 0.71427,-0.13852 v 0.67405 0.67406 h -0.89257 -0.89255 z m -2.18479,-0.2999 c 0.18412,-0.55231 0.77173,-0.65152 0.82473,-0.13924 0.0177,0.17083 -0.19921,0.38772 -0.48199,0.48198 l -0.51411,0.17137 z m 9.78958,-0.63878 v -0.66793 h 0.42844 c 0.23564,0 0.42844,0.18141 0.42844,0.40314 0,0.22173 -0.1928,0.5223 -0.42844,0.66793 l -0.42844,0.26478 z m -5.71236,-0.0967 c -0.49297,-0.49297 -0.31199,-0.99967 0.35701,-0.99967 h 0.64264 v 0.64264 c 0,0.66903 -0.5067,0.84999 -0.99965,0.35703 z m -2.33854,-1.55413 0.051,-1.62553 0.5725,0.21969 0.57251,0.2197 v -0.6292 c 0,-0.34606 0.1928,-0.6292 0.42844,-0.6292 0.56266,0 0.55089,0.73061 -0.0175,1.08185 l -0.44584,0.27555 0.28487,0.92791 0.28485,0.9279 -0.33218,-0.31466 -0.33219,-0.31466 -0.5588,0.74309 -0.5588,0.74309 z m 11.47834,0.98289 c 0,-0.23564 0.1928,-0.42843 0.42844,-0.42843 0.23561,0 0.42841,0.19279 0.42841,0.42843 0,0.23563 -0.1928,0.42843 -0.42841,0.42843 -0.23564,0 -0.42844,-0.1928 -0.42844,-0.42843 z m -15.42701,-0.44627 -0.63905,-0.41059 0.63905,-0.41058 0.63908,-0.41059 0.41058,0.41059 0.41058,0.41058 -0.41058,0.41059 -0.41058,0.41059 z m 16.8551,0.16065 0.28561,-0.28562 0.28562,0.28562 0.28562,0.28562 h -0.57124 -0.57123 z m -26.70535,-0.51878 c 0,-0.20678 0.29384,-0.61984 0.65299,-0.91791 l 0.65299,-0.54193 0.26493,0.26491 0.2649,0.26491 -0.54195,0.653 c -0.5956,0.71765 -1.29386,0.86716 -1.29386,0.27702 z m 2.14214,-0.0525 c 0,-0.23563 0.1814,-0.42843 0.40315,-0.42843 0.22172,0 0.52229,0.1928 0.66791,0.42843 l 0.2648,0.42843 h -0.66794 -0.66792 z m 15.63762,0 c 0.14563,-0.23563 0.54261,-0.42843 0.88215,-0.42843 0.33954,0 0.61735,0.1928 0.61735,0.42843 v 0.42843 h -0.88215 -0.88212 z m -13.92391,-0.64264 v -0.71405 l 0.46056,0.15352 c 0.25331,0.0844 0.46056,0.33668 0.46056,0.56053 0,0.22385 -0.20725,0.47609 -0.46056,0.56053 l -0.46056,0.15352 z m 23.13511,0.0357 v -0.67834 h 0.67834 0.67837 l -0.1696,0.50876 c -0.0933,0.27981 -0.39852,0.58507 -0.67834,0.67834 l -0.50877,0.16959 z m -15.58872,-0.8655 0.23622,-0.61559 0.6072,0.233 c 0.33395,0.12815 0.60719,0.40516 0.60719,0.61559 v 0.38259 h -0.84341 -0.84342 z m 9.43581,-0.0271 0.24659,-0.64264 h 0.59682 0.5968 v 0.64264 0.64265 h -0.84341 -0.84342 z m -12.69793,-0.85685 c 0,-0.35346 0.1928,-0.64264 0.42844,-0.64264 0.23563,0 0.42844,0.28918 0.42844,0.64264 0,0.35345 -0.19281,0.64264 -0.42844,0.64264 -0.23564,0 -0.42844,-0.28919 -0.42844,-0.64264 z m 11.78179,-0.21422 -0.2648,-0.42842 h 0.45374 c 0.24952,0 0.4537,0.19279 0.4537,0.42842 0,0.23564 -0.085,0.42843 -0.18894,0.42843 -0.1039,0 -0.30808,-0.19279 -0.4537,-0.42843 z m 8.21152,0.14281 c -0.15708,-0.15709 -0.28561,-0.54267 -0.28561,-0.85685 v -0.57124 h 0.85685 0.85688 v 0.85686 0.85685 h -0.57124 c -0.31419,0 -0.69977,-0.12853 -0.85688,-0.28562 z m 2.28497,-0.14281 c 0,-0.23563 0.28919,-0.42842 0.64265,-0.42842 0.35343,0 0.64262,0.19279 0.64262,0.42842 0,0.23564 -0.28919,0.42843 -0.64262,0.42843 -0.35346,0 -0.64265,-0.19279 -0.64265,-0.42843 z m -14.32205,-0.32673 c -0.13449,-0.13448 -0.2445,-0.49551 -0.2445,-0.80229 v -0.5578 l 0.56255,0.21588 0.56256,0.21588 0.71895,-0.79441 0.71893,-0.79442 1.79417,0.14193 c 2.07909,0.16446 2.17291,0.21964 1.84157,1.08307 l -0.24786,0.64589 -1.68881,-0.0953 -1.68878,-0.0953 -1.04214,0.54067 c -0.57319,0.29737 -1.15218,0.43065 -1.28664,0.29618 z m -4.10036,-0.53012 c 0,-0.23564 0.19278,-0.42843 0.42842,-0.42843 0.23564,0 0.42844,0.19279 0.42844,0.42843 0,0.23563 -0.1928,0.42843 -0.42844,0.42843 -0.23564,0 -0.42842,-0.1928 -0.42842,-0.42843 z m 20.99297,-0.8044 v -0.90931 h 0.64265 c 0.35346,0 0.64265,0.16918 0.64265,0.37596 0,0.20679 -0.28919,0.61598 -0.64265,0.90932 l -0.64265,0.53335 z m -19.49347,-0.0525 -0.31093,-0.50309 0.42844,-0.42842 0.42841,-0.42843 0.31094,0.50309 0.31091,0.50308 -0.42841,0.42843 -0.42844,0.42843 z m -6.85485,-0.42843 c 0.14563,-0.23563 0.36116,-0.42842 0.47898,-0.42842 0.11782,0 0.0951,0.19279 -0.0506,0.42842 -0.14563,0.23564 -0.36119,0.42843 -0.47901,0.42843 -0.11781,0 -0.0951,-0.19279 0.0506,-0.42843 z m 1.92792,-0.42842 v -0.85686 h 0.85685 0.85685 v 0.5968 0.59681 l -0.67768,0.26005 c -0.98297,0.37721 -1.03602,0.34665 -1.03602,-0.5968 z m 18.4224,0.23949 c 0,-0.33954 0.21437,-0.74983 0.47633,-0.91174 l 0.47633,-0.29439 0.35227,0.56997 c 0.43458,0.70317 0.13271,1.25352 -0.68757,1.25352 h -0.61736 z m 2.37467,0.21854 -0.24649,-0.39883 0.37566,-0.23217 c 0.41428,-0.25605 0.9236,0.11495 0.9236,0.6728 0,0.48331 -0.74657,0.45366 -1.05277,-0.0418 z m -17.79807,-0.24382 c 0,-0.11782 0.0964,-0.21421 0.2142,-0.21421 0.11782,0 0.21423,0.0964 0.21423,0.21421 0,0.11782 -0.0964,0.21421 -0.21423,0.21421 -0.11782,0 -0.2142,-0.0964 -0.2142,-0.21421 z m 11.13914,-0.64264 v -0.57124 l 0.28562,0.28562 0.28561,0.28562 -0.28561,0.28562 -0.28562,0.28562 z m 2.43075,-0.60322 c -0.24106,-0.6282 0.0367,-1.11049 0.63963,-1.11049 0.47845,0 0.45733,1.17272 -0.0265,1.47175 l -0.38354,0.23704 z m 6.13781,0.3584 c 0,-0.43949 1.21163,-1.46889 1.72894,-1.46889 h 0.50488 l -0.26006,0.67768 c -0.14303,0.37272 -0.26006,0.75831 -0.26006,0.85685 0,0.0985 -0.38557,0.17918 -0.85685,0.17918 -0.47128,0 -0.85685,-0.11017 -0.85685,-0.24482 z m -23.24841,-0.86814 c -0.14087,-0.14085 -0.1528,-0.52533 -0.0265,-0.85439 l 0.22958,-0.5983 0.38354,0.23704 c 0.21092,0.13037 0.38354,0.51485 0.38354,0.85439 0,0.6309 -0.51044,0.82097 -0.97015,0.36126 z m 2.04121,-0.17233 -0.2648,-0.42842 0.26911,-0.43542 0.26911,-0.43542 0.39883,0.24649 c 0.52035,0.32161 0.51699,1.4812 -0.004,1.4812 -0.22173,0 -0.52229,-0.19279 -0.66792,-0.42843 z m 9.2112,0 c 0,-0.23563 0.1928,-0.42842 0.42844,-0.42842 0.23564,0 0.42841,0.19279 0.42841,0.42842 0,0.23564 -0.19277,0.42843 -0.42841,0.42843 -0.23564,0 -0.42844,-0.19279 -0.42844,-0.42843 z m 8.78279,0 -0.26479,-0.42842 h 0.4537 c 0.24956,0 0.45371,0.19279 0.45371,0.42842 0,0.23564 -0.085,0.42843 -0.18891,0.42843 -0.10393,0 -0.30808,-0.19279 -0.45371,-0.42843 z m 1.4995,-0.2395 v -0.66792 l 0.4354,0.2691 0.43542,0.2691 -0.24648,0.39883 c -0.36727,0.59425 -0.62434,0.48344 -0.62434,-0.26911 z m -17.99399,-0.61735 c 0,-0.23564 0.1928,-0.42843 0.42843,-0.42843 0.23562,0 0.42842,0.19279 0.42842,0.42843 0,0.23563 -0.1928,0.42843 -0.42842,0.42843 -0.23563,0 -0.42843,-0.1928 -0.42843,-0.42843 z m 19.12961,-0.2005 -0.24135,-0.62892 0.4097,-0.25322 c 0.56412,-0.34863 1.26659,0.14705 1.26659,0.89371 v 0.61736 h -0.59679 c -0.32825,0 -0.70544,-0.28302 -0.83815,-0.62893 z m -13.76995,-0.22094 c -0.37132,-0.60083 0.0354,-1.14671 1.05264,-1.41272 l 0.85612,-0.22388 -0.42331,0.79094 c -0.23281,0.43502 -0.60174,0.90123 -0.81981,1.03601 l -0.39653,0.24506 z m 7.49318,-0.39972 v -0.89255 h 0.67406 0.67405 l -0.13851,0.71424 c -0.0762,0.39284 -0.37952,0.79449 -0.67405,0.89256 l -0.53555,0.17831 z m 10.52545,0.0112 -0.23583,-0.38157 0.96031,-0.62914 0.96028,-0.62915 0.85685,0.47518 c 0.47128,0.26134 0.92435,0.51054 1.00687,0.55378 0.0825,0.0432 0.0172,0.29358 -0.14525,0.55633 l -0.29525,0.47774 -0.51179,-0.42472 -0.51175,-0.42473 -0.62826,0.39736 c -0.79475,0.50265 -1.15892,0.50988 -1.45618,0.0289 z m -25.092,-0.47529 c 0,-0.23564 0.28919,-0.42843 0.64265,-0.42843 0.35343,0 0.64262,0.19279 0.64262,0.42843 0,0.23563 -0.28919,0.42843 -0.64262,0.42843 -0.35346,0 -0.64265,-0.1928 -0.64265,-0.42843 z m 16.95844,0.0575 c -0.18455,-0.29862 -0.21984,-0.65864 -0.0784,-0.80005 0.38344,-0.38343 0.8015,0.1805 0.59441,0.80178 l -0.18041,0.5412 z m 6.74791,0.0853 0.28562,-0.28562 0.28561,0.28562 0.28562,0.28562 h -0.57123 -0.57124 z m -8.543,-1.67735 c 0.14303,-0.37273 0.26006,-0.76969 0.26006,-0.88214 0,-0.11245 0.1928,-0.0853 0.42844,0.0603 0.23561,0.14563 0.42841,0.5426 0.42841,0.88214 v 0.61736 h -0.68847 -0.68847 z m 6.25806,0.24925 v -0.42842 h 0.85685 0.85685 v 0.42842 0.42843 h -0.85685 -0.85685 z m 8.56855,-0.21421 c 0,-0.35345 0.19281,-0.64264 0.42844,-0.64264 0.23564,0 0.42842,0.28919 0.42842,0.64264 0,0.35345 -0.19278,0.64264 -0.42842,0.64264 -0.23563,0 -0.42844,-0.28919 -0.42844,-0.64264 z m -16.7087,-0.42843 v -0.64264 h 0.64265 0.64264 v 0.64264 0.64264 h -0.64264 -0.64265 z m 4.94522,0.24382 -0.24648,-0.39883 0.43542,-0.2691 0.4354,-0.2691 0.43543,0.2691 0.43542,0.2691 -0.24649,0.39883 c -0.13557,0.21935 -0.41653,0.39882 -0.62436,0.39882 -0.2078,0 -0.48876,-0.17947 -0.62434,-0.39882 z m -9.37231,-0.31523 c -0.4627,-0.46269 -0.3303,-0.89084 0.35703,-1.15459 l 0.64265,-0.24661 v 0.84341 c 0,0.84189 -0.45932,1.09816 -0.99968,0.55779 z m 1.85653,-0.54595 c 0,-0.45736 -0.1928,-0.95072 -0.42844,-1.09635 -0.23564,-0.14563 -0.42841,-0.45064 -0.42841,-0.67781 v -0.41302 l 1.07106,0.7018 1.07106,0.70179 v 0.80758 0.80759 h -0.64262 -0.64265 z m 15.71324,0.23145 -0.25242,-0.65772 0.38013,-0.23492 0.3801,-0.23492 0.29218,0.47274 0.29218,0.47275 -0.41989,0.41989 -0.4199,0.4199 z m 1.42388,-0.89937 c 0,-0.35346 0.1928,-0.64265 0.42844,-0.64265 0.23564,0 0.42841,0.28919 0.42841,0.64265 0,0.35345 -0.19277,0.64264 -0.42841,0.64264 -0.23564,0 -0.42844,-0.28919 -0.42844,-0.64264 z m -4.99833,-0.0714 0.28562,-0.28562 0.28562,0.28562 0.28562,0.28562 h -0.57124 -0.57123 z m 9.92527,-0.57124 c 0.14562,-0.23563 0.3498,-0.42842 0.4537,-0.42842 0.10391,0 0.18894,0.19279 0.18894,0.42842 0,0.23564 -0.20418,0.42843 -0.45373,0.42843 h -0.45371 z m -12.63865,-1.28528 v -0.85686 h 0.38259 c 0.48157,0 0.93078,1.1144 0.58756,1.45762 -0.51572,0.51572 -0.97015,0.23433 -0.97015,-0.60076 z m 2.14215,0.42843 c 0,-0.23564 0.1928,-0.42843 0.42844,-0.42843 0.23561,0 0.42841,0.19279 0.42841,0.42843 0,0.23563 -0.1928,0.42843 -0.42841,0.42843 -0.23564,0 -0.42844,-0.1928 -0.42844,-0.42843 z m 3.85585,0 v -0.42843 h 1.28529 1.28527 v 0.42843 0.42843 h -1.28527 -1.28529 z m -2.36966,-0.44995 -0.2867,-0.46392 0.26424,-0.26425 0.26426,-0.26426 0.45863,0.45862 0.4586,0.45862 -0.43614,0.26956 -0.43616,0.26955 z m -6.27922,-0.27115 c 0.30927,-0.12376 0.67878,-0.10854 0.82113,0.0338 l 0.25884,0.25884 -0.82113,-0.0338 -0.82116,-0.0338 z m 42.05676,23.32068 c 0.005,-0.17672 -0.37605,0.0643 -0.84733,0.53554 -0.47127,0.47127 -0.85256,1.09784 -0.84733,1.39239 l 0.01,0.53553 0.8378,-1.07107 c 0.4608,-0.58909 0.84209,-1.21566 0.84733,-1.39239 z m 0.72356,1.5352 -0.28562,-0.28562 -0.28562,0.28562 -0.28562,0.28562 h 0.57124 0.57126 z M 275.54675,167.4278 c 0.38941,-1.01478 0.32517,-1.33813 -0.41233,-2.07565 l -0.67241,-0.67239 -0.82709,0.44265 -0.82711,0.44265 v 0.9846 c 0,1.23166 0.31776,1.55582 1.52506,1.55582 h 0.95385 z m 94.62138,-0.4779 c 0.17671,-0.0992 0.32131,-0.62726 0.32131,-1.1736 v -0.99333 l -0.53552,-0.41438 c -0.29456,-0.22791 -0.87731,-0.53633 -1.295,-0.68539 l -0.75949,-0.271 -0.83741,0.83742 -0.83743,0.83742 0.27101,0.75947 c 0.14904,0.41771 0.45593,0.9986 0.68194,1.29086 l 0.41095,0.5314 1.12916,-0.26931 c 0.62103,-0.14812 1.27373,-0.35043 1.45048,-0.44957 z m -0.96396,-1.41499 v -0.57123 l 0.28562,0.28562 0.28561,0.28561 -0.28561,0.28563 -0.28562,0.28561 z m -20.13614,1.07108 c 0,-0.11782 -0.0964,-0.21422 -0.21421,-0.21422 -0.11782,0 -0.21421,0.0964 -0.21421,0.21422 0,0.11781 0.0964,0.21421 0.21421,0.21421 0.11782,0 0.21421,-0.0964 0.21421,-0.21421 z m 2.26346,-0.34081 0.21296,-0.55501 -0.84217,-0.0634 -0.84217,-0.0634 0.51327,0.61845 c 0.62804,0.75674 0.69048,0.76087 0.95811,0.0634 z m 28.15494,0.17905 c 0,-0.20678 -0.28919,-0.61597 -0.64264,-0.90932 l -0.64265,-0.53334 v 0.90932 0.90931 h 0.64265 c 0.35345,0 0.64264,-0.16919 0.64264,-0.37597 z m 11.13915,-7.41978 v -0.34438 h -2.35636 c -2.70938,0 -2.63726,-0.0967 -1.44105,1.93081 l 0.91533,1.55136 1.44105,-1.3967 c 0.79256,-0.76819 1.44103,-1.55168 1.44103,-1.74109 z m -30.49411,1.65515 0.13851,-0.71425 h -0.81684 c -0.44929,0 -0.94375,0.12686 -1.09879,0.2819 l -0.28189,0.2819 0.489,0.58923 c 0.60585,0.72997 1.3856,0.51205 1.57001,-0.43878 z m -73.32834,-7.42629 -0.28562,-0.28562 v 0.57124 0.57123 l 0.28562,-0.28561 0.28562,-0.28562 z m 82.68666,-1.28529 -0.28562,-0.28561 -0.28565,0.28561 -0.28561,0.28562 h 0.57126 0.57123 z m 0.42841,-2.14214 -0.28562,-0.28561 -0.28562,0.28561 -0.28561,0.28562 h 0.57123 0.57124 z m -5.85518,-2.49916 c 0,-0.11782 -0.0964,-0.21422 -0.21423,-0.21422 -0.11779,0 -0.21421,0.0964 -0.21421,0.21422 0,0.11782 0.0964,0.21421 0.21421,0.21421 0.11782,0 0.21423,-0.0964 0.21423,-0.21421 z m -69.8338,-1.4995 c 0,-0.23563 -0.28919,-0.42843 -0.64265,-0.42843 -0.35346,0 -0.64265,0.1928 -0.64265,0.42843 0,0.23564 0.28919,0.42843 0.64265,0.42843 0.35346,0 0.64265,-0.19279 0.64265,-0.42843 z m 47.15385,-2.94902 c -0.62291,-1.16392 -0.94244,-1.14126 -2.15839,0.15306 l -0.99571,1.05989 0.59971,0.19145 c 0.32986,0.1053 0.88889,0.28001 1.24235,0.38824 l 0.64265,0.19679 0.57737,-0.54129 0.57735,-0.54129 z m -23.7331,0.94969 -0.28564,-0.28562 -0.28562,0.28562 -0.28562,0.28562 h 0.57124 0.57126 z m 36.73838,-1.25972 c 0.37272,-0.14302 0.67768,-0.43221 0.67768,-0.64264 v -0.38259 h -1.07106 -1.07109 v 0.64264 c 0,0.69147 0.3924,0.79398 1.46447,0.38259 z m -12.81782,-3.16737 0.2648,-0.42843 h -0.45371 c -0.24956,0 -0.45374,0.19279 -0.45374,0.42843 0,0.23563 0.085,0.42843 0.18894,0.42843 0.1039,0 0.30808,-0.1928 0.45371,-0.42843 z m -34.48846,-0.64264 c 0,-0.11782 -0.0964,-0.21422 -0.21421,-0.21422 -0.11782,0 -0.21423,0.0964 -0.21423,0.21422 0,0.11781 0.0964,0.21421 0.21423,0.21421 0.11782,0 0.21421,-0.0964 0.21421,-0.21421 z m 17.75716,-4.53509 -0.25082,-0.40581 -0.40582,0.2508 -0.40579,0.25081 0.2508,0.40581 0.2508,0.40581 0.40581,-0.2508 0.40582,-0.25081 z m -61.37116,125.48035 c -0.28276,-0.28276 -0.51411,-0.92765 -0.51411,-1.4331 v -0.91898 l 0.78348,-0.70904 c 1.00407,-0.90868 1.48741,-0.89346 2.36334,0.0744 1.7676,1.95318 -0.77817,4.84123 -2.63271,2.98668 z m 121.44012,-3.26836 c -0.92157,-1.01833 -0.89775,-1.91194 0.0744,-2.79176 l 0.78349,-0.70904 h 8.12781 8.12784 l 0.51411,0.51411 c 0.28276,0.28277 0.51412,0.94377 0.51412,1.4689 v 0.95478 l -0.67326,0.67325 -0.67324,0.67324 h -8.04312 -8.04314 z m 28.26258,-13.99081 -0.80414,-0.60891 -0.044,-1.67846 -0.044,-1.67846 0.57928,-0.698 0.5793,-0.698 h 1.15814 1.15816 l 0.93152,0.99157 0.93154,0.99158 v 1.07588 1.07589 l -0.99158,0.93153 -0.99158,0.93154 -0.82923,-0.0136 c -0.45609,-0.007 -1.1911,-0.28763 -1.63338,-0.62253 z m -18.44383,-6.78547 -0.77513,-0.56678 -0.12266,-1.11759 -0.12269,-1.11758 0.84098,-0.76109 0.84101,-0.76108 0.68807,0.43404 c 0.37846,0.23872 0.94896,0.82689 1.26775,1.30703 l 0.57965,0.87298 -0.89548,1.13843 c -1.02333,1.30095 -1.23293,1.35301 -2.3015,0.57164 z m 13.54986,-17.51289 -0.51411,-0.51411 v -9.79633 -9.79632 l 0.4435,-0.8287 0.44352,-0.82869 h 1.18451 1.18454 l 0.51411,0.51412 0.51411,0.51411 v 10.18152 10.18151 l -0.8287,0.4435 c -1.10238,0.58999 -2.30986,0.561 -2.94148,-0.0706 z m -171.89063,-16.73012 -1.41724,-0.96396 -0.56502,-1.64533 -0.56502,-1.64532 0.60537,-1.17066 c 0.33295,-0.64387 0.90866,-1.42236 1.27931,-1.72999 l 0.67395,-0.55933 1.69066,-0.0443 1.69063,-0.0443 1.3053,1.25055 1.3053,1.25056 -0.0143,1.74066 -0.0143,1.74066 -0.73552,0.857 c -0.69193,0.80625 -2.71481,1.92779 -3.47707,1.92779 -0.18971,0 -0.98266,-0.43379 -1.76215,-0.96397 z M 413.84639,184.7285 c -1.08659,-1.08659 -0.55348,-2.85411 1.12813,-3.74018 l 0.99959,-0.52671 0.82122,0.74319 0.82121,0.74319 v 1.13319 1.1332 l -0.51411,0.51412 -0.51411,0.51411 h -1.11392 -1.1139 z m -166.88337,-5.67523 -0.78171,-0.59253 0.13909,-1.21467 0.13906,-1.21466 1.2041,-0.13807 1.20409,-0.13806 0.61674,0.51184 c 0.84318,0.69979 0.77433,1.36146 -0.25683,2.46828 -1.01388,1.08827 -1.21153,1.11602 -2.26454,0.31787 z m -10.55653,-15.63233 c -0.24392,-0.45578 -0.4435,-1.32335 -0.4435,-1.92793 v -1.09923 l 0.85686,-0.85686 0.85685,-0.85685 h 0.99639 0.9964 l 0.93152,0.99157 0.93154,0.99158 v 0.84102 c 0,0.46256 -0.30011,1.26951 -0.66693,1.79321 l -0.66694,0.95218 h -1.67433 -1.67437 z m 18.21741,-12.54791 c -0.36682,-0.5237 -0.66694,-1.39127 -0.66694,-1.92793 v -0.97574 l 0.85685,-0.85686 0.85686,-0.85685 h 0.82182 c 0.45201,0 1.14155,0.12269 1.53233,0.27264 l 0.71049,0.27265 0.38502,1.01264 0.385,1.01264 -0.44464,1.16946 c -0.53993,1.42017 -1.10564,1.81439 -2.61596,1.82298 l -1.1539,0.007 z m -13.91209,-11.94427 -0.80814,-1.32889 0.36801,-1.2832 c 0.20241,-0.70576 0.59251,-1.5537 0.86691,-1.88432 l 0.49887,-0.60112 h 1.82621 1.82618 l 0.69194,1.056 0.69191,1.056 v 1.21957 1.21957 l -0.87355,0.93764 -0.87355,0.93765 h -1.70333 -1.70331 z m 27.89082,-5.82226 -0.40627,-0.77477 0.36751,-0.97346 c 0.20211,-0.5354 0.64627,-1.08042 0.98695,-1.21116 l 0.61946,-0.23771 0.91536,0.48988 0.91535,0.48988 -0.13213,1.36393 -0.13211,1.36393 -1.36393,0.13213 -1.36392,0.13213 z m 105.31424,-1.17791 v -1.47421 l 0.45279,-0.27984 0.45275,-0.27983 1.04675,0.26271 1.04671,0.26271 v 0.97722 c 0,1.24794 -0.76062,2.00545 -2.01361,2.00545 h -0.98539 z m 31.52143,-2.34631 -0.74345,-0.82152 0.14152,-0.99068 0.14153,-0.99067 1.20078,-0.4206 1.20079,-0.4206 0.72715,0.47097 0.72716,0.47097 -0.0696,1.39201 -0.0695,1.39201 -0.57312,0.36326 c -0.93141,0.59039 -1.89002,0.43136 -2.68327,-0.44515 z m -15.02958,-10.40247 c -0.46982,-0.24755 -1.09521,-0.75216 -1.38975,-1.12135 l -0.53554,-0.67127 v -1.71549 -1.71549 l 1.15123,-1.20162 1.15123,-1.20162 h 1.10979 1.1098 l 0.95464,0.66865 c 0.52504,0.36776 1.2468,1.23366 1.6039,1.92423 l 0.64929,1.25558 -0.25955,1.03414 c -0.14275,0.56877 -0.67702,1.41212 -1.18727,1.8741 l -0.92771,0.83995 -1.28791,0.24014 -1.28791,0.24013 z m -133.8004,-1.21711 -0.93765,-0.87354 v -0.78771 -0.78771 l 0.68445,-0.56802 c 0.37642,-0.31242 1.04209,-0.62261 1.47923,-0.68933 l 0.79484,-0.1213 0.66288,0.94641 c 0.87733,1.25255 0.83614,1.86778 -0.19396,2.89789 -1.06985,1.06984 -1.32538,1.06813 -2.48979,-0.0167 z m -21.24215,-0.66099 c -0.14303,-0.37273 -0.26006,-1.33302 -0.26006,-2.13398 v -1.45629 l 1.14851,-0.28826 1.1485,-0.28825 1.0977,0.61614 c 0.60376,0.33887 1.15465,0.91157 1.22418,1.27266 l 0.12644,0.65653 -0.90426,1.14957 -0.90424,1.14956 h -1.20836 -1.20835 z m 62.17743,-0.28628 c -0.38788,-0.29455 -0.88747,-1.02766 -1.11019,-1.62915 l -0.40497,-1.09362 0.43894,-0.83431 c 0.62635,-1.19052 1.63782,-1.90538 2.69597,-1.90538 h 0.91451 l 0.90556,0.96396 0.90559,0.96397 -0.13039,1.18759 -0.13036,1.18759 -0.76692,0.84744 -0.76692,0.84744 h -0.92279 c -0.50752,0 -1.24015,-0.24099 -1.62803,-0.53553 z m 56.45137,0.20255 c -2.16226,-0.46407 -2.98337,-2.39421 -1.56475,-3.67805 l 0.79163,-0.71641 11.08142,0.11448 11.08143,0.11447 0.40577,1.41557 0.40579,1.41557 -0.72639,0.72657 -0.72641,0.72657 -9.94582,0.0326 c -5.47021,0.0179 -10.33142,-0.0502 -10.80267,-0.15134 z m -76.74833,-1.16747 c -0.13583,-0.35398 -0.1275,-1.11959 0.0185,-1.70135 l 0.26548,-1.05775 0.78555,-0.42042 0.78554,-0.42041 0.92311,0.64656 0.9231,0.64656 v 0.79752 c 0,0.43864 -0.11702,1.10248 -0.26005,1.4752 l -0.26006,0.67769 h -1.46709 -1.46712 z m 136.37123,-0.0704 c -0.15709,-0.15709 -0.28562,-0.9861 -0.28562,-1.84224 v -1.55663 l 0.51414,-0.51412 0.51411,-0.51411 h 1.1139 1.11392 l 0.51411,0.51411 0.51411,0.51412 v 1.32812 1.32813 l -0.51411,0.51412 -0.51411,0.51411 h -1.34242 c -0.73832,0 -1.47092,-0.12853 -1.62803,-0.28562 z m -91.25519,-0.85686 c -0.15711,-0.15709 -0.28562,-0.7396 -0.28562,-1.29447 V 112.82 l 1.08688,-0.49522 1.08691,-0.49522 0.68236,0.68236 0.68236,0.68236 -0.27792,1.10733 -0.27791,1.10733 H 323.854 c -0.66315,0 -1.33424,-0.12853 -1.49132,-0.28562 z"
       id="path11" />
  </g>
</svg>
