<?xml version="1.0" encoding="UTF-8" standalone="no"?>
<svg
   width="23.08766"
   height="9.6188564"
   version="1.1"
   viewBox="0 0 2.6661972 9.6188564"
   id="svg16"
   sodipodi:docname="observe_logo_light.svg"
   inkscape:version="1.1.2 (0a00cf5339, 2022-02-04)"
   xmlns:inkscape="http://www.inkscape.org/namespaces/inkscape"
   xmlns:sodipodi="http://sodipodi.sourceforge.net/DTD/sodipodi-0.dtd"
   xmlns="http://www.w3.org/2000/svg"
   xmlns:svg="http://www.w3.org/2000/svg">
  <defs
     id="defs20" />
  <sodipodi:namedview
     id="namedview18"
     pagecolor="#ffffff"
     bordercolor="#666666"
     borderopacity="1.0"
     inkscape:pageshadow="2"
     inkscape:pageopacity="0.0"
     inkscape:pagecheckerboard="0"
     showgrid="false"
     fit-margin-top="0"
     fit-margin-left="0"
     fit-margin-right="0"
     fit-margin-bottom="0"
     inkscape:zoom="23.796296"
     inkscape:cx="12.691051"
     inkscape:cy="6.618677"
     inkscape:window-width="1440"
     inkscape:window-height="842"
     inkscape:window-x="0"
     inkscape:window-y="0"
     inkscape:window-maximized="1"
     inkscape:current-layer="svg16" />
  <g
     fill="none"
     stroke="#000000"
     stroke-linecap="round"
     stroke-linejoin="round"
     stroke-width="0.63609"
     id="g14"
     transform="translate(-0.68688629,-1.011455)"
     style="stroke:#5bb3f4;stroke-opacity:1">
    <path
       d="m -9.2058,9.9051 0.40415,0.05774 c 0,0 0.30127,0.03115 0.40617,-0.01709 0.1612,-0.07416 0.28664,-0.38706 0.28664,-0.38706 0.35942,-0.62449 0.35942,-0.62449 0.52755,-0.94482 l 0.1803,-0.42372 0.10042,-0.19029 -0.44885,0.93432 -0.35942,0.62449 c 0,0 -0.010996,0.31556 0.11548,0.46189 0.10377,0.12007 0.30347,0.10591 0.46189,0.11547 0.15487,0.0095 0.34221,-0.0095 0.49603,-0.07483 0.16553,-0.07056 0.3192,-0.17041 0.42774,-0.32935 0.20274,-0.29691 0.2289,-0.53801 0.30497,-0.83622 0.035051,-0.13737 0.057679,-0.27658 0.060518,-0.41834 0.00208,-0.10306 0.038278,-0.22737 -0.010941,-0.42852 -0.041461,-0.16945 -0.25943,-0.18857 -0.41166,-0.22278 -0.098313,-0.022032 -0.30185,0.016336 -0.30185,0.016336"
       id="path2"
       style="stroke:#5bb3f4;stroke-opacity:1" />
    <path
       d="m 1.0948,1.3295 c 0,0 -0.8329,0.35363 -1.2069,0.60344 -0.27669,0.1848 -0.55464,0.40906 -0.80471,0.62854 -0.30341,0.26631 -0.57282,0.5409 -0.85478,0.8298 -0.39874,0.4086 -0.75905,0.85435 -1.1063,1.3075 -0.32244,0.42074 -0.90518,1.3075 -0.90518,1.3075 l -0.65375,1.056 c 0,0 -0.47545,0.65768 -0.70403,1.0307 -0.18604,0.30364 -0.40412,0.66011 -0.55316,0.98079 -0.11173,0.24034 -0.22764,0.49036 -0.25144,0.75431 -0.010646,0.11805 -0.034823,0.26952 0.050291,0.35202 0.109,0.10564 0.30269,0.07416 0.4526,0.05024 0.20002,-0.03191 0.38668,-0.13608 0.55316,-0.25144 0.19484,-0.13504 0.37237,-0.30497 0.50288,-0.50288 0.099386,-0.15072 0.16701,-0.32562 0.20115,-0.50288 0.044376,-0.23044 0,-0.70403 0,-0.70403 l -0.10057,-0.55317 -0.15087,-0.4023 -0.10058,-0.10058"
       id="path4"
       style="stroke:#5bb3f4;stroke-opacity:1" />
    <path
       d="m 2.6581,3.258 c 0,0 0.70854,-0.5185 1.1002,-0.7119 C 4.04586,2.4041 4.34171,2.23928 4.65018,2.15155 4.94726,2.067034 5.38908,1.98102 5.68638,2.00517 5.865,2.019713 6.02345,2.1578 6.02345,2.1578 L 5.18211,3.3874 4.53492,4.29345 3.88773,5.26423 2.91698,6.49383 2.01093,7.59403 1.23918,8.51841 c -0.11401,0.13655 -0.18624,0.77397 -0.0097,0.79606 0.31605,0.0396 -0.07399,-0.30804 0.53741,-1.019 0.76492,-0.88951 1.9915,-2.902 1.9915,-2.902 l 2.2651,-3.2359 c 0,0 0.35066,0.23367 0.42982,0.48481 C 6.52465,2.8687 6.56731,3.2974 6.4765,3.51665 6.39478,3.71395 6.25795,3.95526 6.10303,4.10225 5.89248,4.30201 5.3763,4.55214 5.3763,4.55214 L 4.47025,4.87573 3.5021,5.23205 5.3763,4.55213 c 0,0 0.17353,0.19951 0.19415,0.32359 C 5.62108,5.18043 5.45762,5.48379 5.3763,5.78177 5.286466,6.11083 5.05268,6.75255 5.05268,6.75255 c 0,0 -0.34375,0.63079 -0.45301,0.97075 -0.10746,0.33432 -0.21734,0.73069 -0.21734,1.0819 0,0.35118 0.07594,0.59806 0.21734,0.91952 0.08686,0.19746 0.14313,0.23591 0.34571,0.31003 0.15006,0.05489 0.76492,-0.03874 0.76492,-0.03874 0,0 -0.95335,0.4297 -1.2418,0.13779 L 4.27889,9.74208 C 4.12551,9.33157 4.06787,8.89227 4.211326,8.24108 c 0.10796,-0.49002 0.44277,-0.90084 0.64719,-1.3591 0.22851,-0.51222 0.51774,-1.1002 0.51774,-1.1002"
       id="path6"
       style="stroke:#5bb3f4;stroke-opacity:1" />
    <path
       d="m 6.555,4.9408 c 0,0 1.184,-0.6835 1.7952,-0.98726 C 8.83461,3.71282 9.27623,3.49313 9.7814,3.2997 10.06212,3.19222 10.32939,3.18916 10.32939,3.18916 10.44758,3.240249 10.56438,3.30498 10.5483,3.43277 10.47692,3.99978 10.06742,4.16097 9.66969,4.57137 9.31522,4.93715 8.91052,5.29246 8.59079,5.68897 8.23438,6.13102 7.84952,6.59464 7.57839,7.09357 7.33252,7.54612 7.00574,7.97429 6.8874,8.47557 c -0.09922,0.42031 -0.22704,0.92822 0,1.2956 0.16922,0.27381 0.54261,0.45417 0.86375,0.43185 0.55767,-0.03874 1.0767,-0.52859 1.4669,-0.92886 0.38798,-0.39799 0.57181,-0.71314 0.86661,-1.0775 0.35719,-0.44144 0.80612,-1.1247 1.0893,-1.6169 0.26356,-0.45813 0.41169,-0.6702 0.63672,-1.1485 0.17073,-0.36286 0.40264,-0.76076 0.58046,-1.1202 0.19487,-0.39391 0.54241,-1.1043 0.54241,-1.1043"
       id="path8"
       style="stroke:#5bb3f4;stroke-opacity:1" />
    <path
       d="m 10.005,10.165 c 0,0 0.66873,-0.26543 1.0058,-0.39114 0.25942,-0.09675 0.78224,-0.27938 0.78224,-0.27938 0,0 0.55296,-0.25304 0.78227,-0.447 0.2021,-0.17095 0.38978,-0.37529 0.50288,-0.61463 C 13.11877,8.347004 13.17732,8.238 13.13403,8.15348 13.03141,7.95318 12.74439,7.86993 12.51939,7.87409 12.26955,7.87883 12.08483,8.06648 11.93968,8.26988 11.77595,8.4993 11.73431,8.76562 11.73714,9.04747 c 0.0023,0.24496 0.0148,0.50141 0.11175,0.72638 0.08403,0.19503 0.19424,0.42334 0.39114,0.50288 0.24422,0.09865 0.78224,-0.11175 0.78224,-0.11175 l 0.2235,-0.05584"
       id="path10"
       style="stroke:#5bb3f4;stroke-opacity:1" />
    <path
       d="m -1.3021,7.3434 c 0,0 -0.33695,-0.16718 -0.49843,-0.1054 -0.15339,0.058693 -0.25442,0.14408 -0.36112,0.26894 -0.11094,0.12983 -0.22303,0.33739 -0.28599,0.49615 -0.073482,0.18529 -0.15068,0.37003 -0.22416,0.55533 -0.062952,0.15874 -0.11142,0.3179 -0.17677,0.47565 -0.069313,0.16734 -0.17183,0.51549 -0.17183,0.51549 0,0 -0.24761,0.29043 -0.40094,0.40094 -0.17317,0.12481 -0.37257,0.21232 -0.57277,0.28638 -0.073829,0.02732 -0.22911,0.05728 -0.22911,0.05728 0,0 0.48484,-0.3617 0.7446,-0.51549 0.14694,-0.087 0.45821,-0.22911 0.45821,-0.22911 L -2.50492,9.435 -1.76032,9.22025 -0.9869,8.93887 -0.50024,8.74768 c 0,0 0.47198,-0.24608 0.68732,-0.40094 C 0.35185,8.22825 0.5168,8.1029 0.64529,7.9458 0.74274,7.82665 0.83489,7.69364 0.8744,7.54486 0.8842,7.507952 0.8986,7.459835 0.8744,7.43031 0.75096,7.27973 0.49628,7.23959 0.30163,7.24422 c -0.1574,0.00376 -0.33172,0.092357 -0.45821,0.18609 -0.1789,0.13255 -0.26917,0.36294 -0.34366,0.57277 -0.045168,0.12722 -0.055172,0.26595 -0.057279,0.40094 -0.00269,0.17287 0.057279,0.51549 0.057279,0.51549 0,0 0.093111,0.20766 0.17183,0.28638 0.078722,0.07872 0.1677,0.1508 0.26743,0.20027 0.092105,0.04568 0.20438,0.06667 0.30535,0.08611 0.093739,0.01804 0.2057,0.03351 0.3007,0.04292 0.09688,0.0096 0.27208,0.01434 0.27208,0.01434"
       id="path12"
       style="stroke:#5bb3f4;stroke-opacity:1" />
  </g>
</svg>
